<svg width="375" height="266" viewBox="0 0 375 266" fill="none" xmlns="http://www.w3.org/2000/svg">
<path d="M128.207 8.07375C78.6069 6.87375 28.2069 22.5737 9.20689 30.5737C0.0068903 34.0662 0.373557 43.3623 1.70689 47.5737C2.90689 53.9737 11.2069 54.9071 15.2069 54.5737C129.207 18.5737 237.374 69.5737 277.207 99.5737C270.007 99.9737 258.207 101.407 253.207 102.074C233.207 105.674 230.207 123.574 231.207 132.074C234.407 152.874 252.207 155.74 260.707 154.574L345.207 145.074C372 142.5 375.54 123.24 374.207 112.074L363.707 23.5738C360.507 3.97376 343.707 0.407095 335.707 1.07376C315.307 3.87376 311.207 20.2404 311.707 28.0738L314.207 57.5738C246.707 22.0738 190.207 9.57375 128.207 8.07375Z" fill="#0097B2" stroke="#0097B2"/>
<path d="M247.238 257.722C296.838 258.922 347.238 243.222 366.238 235.222C375.438 231.729 375.072 222.433 373.738 218.222C372.538 211.822 364.238 210.888 360.238 211.222C246.238 247.222 138.072 196.222 98.2384 166.222C105.438 165.822 117.238 164.388 122.238 163.722C142.238 160.122 145.238 142.222 144.238 133.722C141.038 112.922 123.238 110.055 114.738 111.222L30.2384 120.722C3.44531 123.295 -0.0949097 142.555 1.23843 153.722L11.7384 242.222C14.9384 261.822 31.7384 265.388 39.7384 264.722C60.1384 261.922 64.2384 245.555 63.7384 237.722L61.2384 208.222C128.738 243.722 185.238 256.222 247.238 257.722Z" fill="#0097B2" stroke="#0097B2"/>
</svg>
