<svg width="373" height="135" viewBox="0 0 373 135" fill="none" xmlns="http://www.w3.org/2000/svg">
<path d="M1.12456 113L5.12456 118C47.1242 70.0001 117.625 53.6667 147.625 51.5C209.225 50.3 260.625 75.3333 278.625 88C251.425 90.4 234.292 93.6667 229.125 95C215.925 97.8 200.625 116.833 194.625 126C189.825 134.8 193.958 135 196.625 134C227.425 123.2 293.792 128.167 323.125 132C337.925 135.2 346.292 132.667 348.625 131L366.125 113.5C374.925 105.9 372.458 95.3333 370.125 91L316.125 1L303.625 13.5C294.825 19.9 296.292 30.5 298.125 35L302.625 49.5L262.125 30.5C242.525 21.7 221.292 15.8334 213.125 14C187.125 7.20004 157.292 10.1667 145.625 12.5C117.625 15.7 81.625 32.5 67.125 40.5C14.625 68.5 8.12456 93 4.12456 101.5C0.924559 108.3 0.791225 112 1.12456 113Z" fill="#0097B2" stroke="#0097B2"/>
</svg>
