<svg width="166" height="88" viewBox="0 0 166 88" fill="none" xmlns="http://www.w3.org/2000/svg">
<path d="M3 25L25.8091 4.82274C27.3636 3.44756 29.8114 4.0285 30.5822 5.95556L40.8819 31.7048C41.779 33.9476 44.8236 34.2646 46.1635 32.2547L60.7242 10.4137C61.8505 8.72428 64.2946 8.61822 65.563 10.2037L84.9061 34.3827C86.0231 35.7789 88.1057 35.8943 89.3701 34.6299L109.368 14.632C110.721 13.2789 112.978 13.5214 114.013 15.1311L132.524 43.9265C133.547 45.5174 135.769 45.7766 137.13 44.4638L162.5 20" stroke="#5B13EF" stroke-width="8"/>
<path d="M3 63L25.8091 42.8227C27.3636 41.4476 29.8114 42.0285 30.5822 43.9556L40.8819 69.7048C41.779 71.9476 44.8236 72.2646 46.1635 70.2547L60.7242 48.4137C61.8505 46.7243 64.2946 46.6182 65.563 48.2037L84.9061 72.3827C86.0231 73.7789 88.1057 73.8943 89.3701 72.6299L109.368 52.632C110.721 51.2789 112.978 51.5214 114.013 53.1311L132.524 81.9265C133.547 83.5174 135.769 83.7766 137.13 82.4638L162.5 58" stroke="#5B13EF" stroke-width="8"/>
</svg>
