<?xml version="1.0"?>
<svg xmlns="http://www.w3.org/2000/svg" id="Layer_1" data-name="Layer 1" viewBox="0 0 128 128"><title/><path d="M113.89642,17.85474l-1.751-1.751a5.253,5.253,0,0,0-5.2688-1.29767A5.243,5.243,0,0,0,102.2381,12H99.7619a5.24311,5.24311,0,0,0-4.63855,2.80609,5.25257,5.25257,0,0,0-5.26874,1.29761l-1.75092,1.751A5.24336,5.24336,0,0,0,86.809,23.12183,5.24362,5.24362,0,0,0,84,27.7619v2.4762a5.24328,5.24328,0,0,0,2.80231,4.63654,5.25913,5.25913,0,0,0,1.30127,5.27057l1.751,1.751a5.253,5.253,0,0,0,5.2688,1.29767A5.2429,5.2429,0,0,0,99.7619,46h2.4762a5.24305,5.24305,0,0,0,4.63855-2.80615,5.25267,5.25267,0,0,0,5.26868-1.29749l1.751-1.7511a5.24333,5.24333,0,0,0,1.29474-5.26715,5.24352,5.24352,0,0,0,2.809-4.64V27.7619a5.24333,5.24333,0,0,0-2.80927-4.6402A5.24256,5.24256,0,0,0,113.89642,17.85474ZM114,30.2381a1.23811,1.23811,0,0,1-1.2381,1.2381,1.17848,1.17848,0,0,0-1.12683.8269,11.05522,11.05522,0,0,1-.77936,1.87659,1.17907,1.17907,0,0,0,.21051,1.38464l.00159.00165a1.23811,1.23811,0,0,1,.00006,1.75092L109.317,39.06781a1.238,1.238,0,0,1-1.75092,0l-.00165-.00165a1.1787,1.1787,0,0,0-1.38464-.21045,11.05936,11.05936,0,0,1-1.87659.77936,1.17846,1.17846,0,0,0-.827,1.12683A1.23811,1.23811,0,0,1,102.2381,42H99.7619a1.23811,1.23811,0,0,1-1.2381-1.2381,1.17846,1.17846,0,0,0-.827-1.12683,11.05936,11.05936,0,0,1-1.87659-.77936,1.1787,1.1787,0,0,0-1.38464.21045l-.00159.00165a1.23805,1.23805,0,0,1-1.751,0l-1.75092-1.75092a1.23811,1.23811,0,0,1,.00006-1.75092l.00159-.00165a1.17907,1.17907,0,0,0,.21051-1.38464,11.05522,11.05522,0,0,1-.77936-1.87659,1.17848,1.17848,0,0,0-1.12683-.8269A1.23811,1.23811,0,0,1,88,30.2381V27.7619a1.23811,1.23811,0,0,1,1.2381-1.2381,1.17846,1.17846,0,0,0,1.12683-.827,11.05936,11.05936,0,0,1,.77936-1.87659,1.17915,1.17915,0,0,0-.21045-1.38464l-.00165-.00165a1.23811,1.23811,0,0,1-.00006-1.75092L92.683,18.93213a1.238,1.238,0,0,1,1.75092,0l.00171.00165a1.17844,1.17844,0,0,0,1.38464.21045,11.05,11.05,0,0,1,1.87659-.7793,1.17853,1.17853,0,0,0,.8269-1.12683A1.23811,1.23811,0,0,1,99.7619,16h2.4762a1.23811,1.23811,0,0,1,1.2381,1.2381,1.17853,1.17853,0,0,0,.8269,1.12683,11.05,11.05,0,0,1,1.87659.7793,1.17844,1.17844,0,0,0,1.38464-.21045l.00171-.00165a1.238,1.238,0,0,1,1.75092,0l1.75092,1.75092a1.23811,1.23811,0,0,1-.00006,1.75092l-.00165.00165a1.17915,1.17915,0,0,0-.21045,1.38464,11.05936,11.05936,0,0,1,.77936,1.87659,1.17846,1.17846,0,0,0,1.12683.827A1.23811,1.23811,0,0,1,114,27.7619Z"/><path d="M50.84668,22.19482c.35254.70313.75781,1.42285,1.24023,2.20264.30371.49121.6709,1.04053,1.07617,1.645a42.87083,42.87083,0,0,1,3.04462,5.08606,1.97511,1.97511,0,0,0,1.1084,2.74365c.08734.27051.179.53894.25323.81531a34.229,34.229,0,0,1,.2959,4.01172A3.45987,3.45987,0,0,0,61.34766,42h5.30469a3.46017,3.46017,0,0,0,3.48242-3.30273,35.00108,35.00108,0,0,1,.29395-4.00342c.07483-.27856.16711-.54913.25519-.82166a1.97518,1.97518,0,0,0,1.10852-2.74347,42.856,42.856,0,0,1,3.04449-5.08624c.40527-.60449.77246-1.15381,1.07715-1.64648.48145-.77832.88672-1.498,1.23926-2.20166A15.55453,15.55453,0,0,0,79,15.15234,14.97345,14.97345,0,0,0,64.248,0H63.752A14.97345,14.97345,0,0,0,49,15.15234,15.558,15.558,0,0,0,50.84668,22.19482ZM66.16113,38H61.83887a33.03589,33.03589,0,0,0-.32617-4h4.97577A33.35091,33.35091,0,0,0,66.16113,38ZM63.752,4H64.248A10.97,10.97,0,0,1,75,15.15234a11.69753,11.69753,0,0,1-1.4209,5.24756c-.2998.59668-.64941,1.21631-1.06641,1.89209-.28223.45557-.624.96436-.999,1.52441A43.5799,43.5799,0,0,0,67.90668,30H60.09344a43.59919,43.59919,0,0,0-3.60712-6.18359c-.375-.56006-.7168-1.06885-.998-1.52295-.418-.67725-.76758-1.29687-1.06738-1.89307A11.701,11.701,0,0,1,53,15.15234,10.97,10.97,0,0,1,63.752,4Z"/><path d="M127.99866,58.93018a2.01991,2.01991,0,0,0-.27448-.92712A2.04241,2.04241,0,0,0,126,57H100a2.02011,2.02011,0,0,0-2,2V73a6.00656,6.00656,0,0,0,6,6h18a6.00656,6.00656,0,0,0,6-6V59Q128,58.965,127.99866,58.93018ZM120.2334,61,113,66.70313,105.7666,61ZM124,73a2.00229,2.00229,0,0,1-2,2H104a2.00229,2.00229,0,0,1-2-2V63.1236l9.76172,7.69672a1.99909,1.99909,0,0,0,2.47656,0L124,63.1236Z"/><path d="M6,46H24a6.00656,6.00656,0,0,0,6-6V18a6.00656,6.00656,0,0,0-6-6H17V10a2,2,0,0,0-4,0v2H6a6.00656,6.00656,0,0,0-6,6V40A6.00656,6.00656,0,0,0,6,46ZM4,18a2.00229,2.00229,0,0,1,2-2H24a2.00229,2.00229,0,0,1,2,2V40a2.00229,2.00229,0,0,1-2,2H6a2.00229,2.00229,0,0,1-2-2Z"/><path d="M12,27h6a2,2,0,0,0,0-4H12a2,2,0,0,0,0,4Z"/><path d="M12,35h6a2,2,0,0,0,0-4H12a2,2,0,0,0,0,4Z"/><path d="M1.24719,69.495l.77039,1.32288c1.61688,2.77649,12.388,13.54755,15.16455,15.16455l1.32275.77039q.09714.05658.19739.1076a10.4391,10.4391,0,0,0,14.20447-4.88916l.64545-1.38312a4.7712,4.7712,0,0,0-2.63147-6.47864l-6.19824-2.35107a5.55387,5.55387,0,0,0-4.664.33807,34.087,34.087,0,0,1-4.15717-4.15759,5.552,5.552,0,0,0,.34027-4.66138L13.8905,57.07935A4.79683,4.79683,0,0,0,9.42889,54a4.73613,4.73613,0,0,0-2.017.44775l-1.38312.64551A10.44354,10.44354,0,0,0,1.13959,69.29773Q1.19058,69.39789,1.24719,69.495ZM7.72034,58.718l1.38293-.64539a.77063.77063,0,0,1,1.04724.42535l2.35107,6.19824a1.54252,1.54252,0,0,1-.3515,1.6377l-.32123.32123a1.83113,1.83113,0,0,0-.139,2.43378l.48639.61237a38.024,38.024,0,0,0,6.12256,6.12256l.6123.48639a1.83113,1.83113,0,0,0,2.43384-.139l.32123-.32123a1.54233,1.54233,0,0,1,1.6377-.3515l6.19824,2.35107a.77116.77116,0,0,1,.42529,1.04718l-.64532,1.383a6.43917,6.43917,0,0,1-8.7641,3.0166l-1.32281-.77039c-2.20129-1.282-12.439-11.51971-13.721-13.721l-.77039-1.32281A6.44367,6.44367,0,0,1,7.72034,58.718Z"/><path d="M107.12891,31.30713,103,28.48584V25.0835a2,2,0,1,0-4,0v4.458a2.00131,2.00131,0,0,0,.87109,1.65137l5,3.417a2.00036,2.00036,0,0,0,2.25781-3.30273Z"/><path d="M44.55048,88l9.25592-4.09875A13.09529,13.09529,0,0,0,57.874,88H70.126a13.09529,13.09529,0,0,0,4.06763-4.09875L83.44946,88h6.70679a12.88637,12.88637,0,0,1,1.30664.0683,7.29208,7.29208,0,0,0-2.03711-1.75189,7.91667,7.91667,0,0,0-.72168-.36377L75,79.88379V73.80164a21.6874,21.6874,0,0,0,2.97394-10.084c.014-.09528.02606-3.14734.02606-3.14734C78,52.53564,71.71973,45.999,64,45.999S50,52.53564,50,60.57031c0,0,.02289,3.72833.05566,3.87207A21.7698,21.7698,0,0,0,53,73.80164v6.08215L39.29688,85.95215a7.937,7.937,0,0,0-.72266.36426,7.32415,7.32415,0,0,0-2.19269,1.93451A10.879,10.879,0,0,1,38.67383,88ZM71,80.999c0,1.84082-3.85254,4.42578-7,5.82861-3.14746-1.40283-7-3.98779-7-5.82861V78.45544a10.90389,10.90389,0,0,0,14,0Zm-7-31a10.167,10.167,0,0,1,9.77832,8.35156,7.10835,7.10835,0,0,0-4.90234-.10791,8.66263,8.66263,0,0,1-6.20215-.50928,8.22841,8.22841,0,0,0-3.42871-.75879,7.6357,7.6357,0,0,0-1.78613.21,10.682,10.682,0,0,0-3.28027,1.3916A10.18085,10.18085,0,0,1,64,49.999ZM58.39648,61.07324a4.02715,4.02715,0,0,1,2.6084.29541,12.80948,12.80948,0,0,0,9.05469.69531,3.00741,3.00741,0,0,1,3.9093,1.6842C73.64728,70.65967,68.96143,76.999,64,76.999c-4.8172,0-9.38708-5.97461-9.94305-12.64807A6.86214,6.86214,0,0,1,58.39648,61.07324Z"/><circle cx="64.50964" cy="110" r="3"/><path d="M126,124h-2.85937a8.25,8.25,0,1,0-14.11523,0h-15.114a6.95373,6.95373,0,0,0,.62958-2.13184l2.75-22A6.9998,6.9998,0,0,0,90.3457,92H38.67383a7.00043,7.00043,0,0,0-6.94629,7.86816l2.75,22.00049a6.953,6.953,0,0,0,.63,2.13135H22v-4.57629a8.23611,8.23611,0,0,0,7.542-8.1947A5.235,5.235,0,0,0,24.31248,106H9a5.00589,5.00589,0,0,0-5,5v13H2a2,2,0,0,0,0,4H126a2,2,0,0,0,0-4ZM22,110h2.31248a1.23074,1.23074,0,0,1,1.22951,1.229A4.22637,4.22637,0,0,1,22,115.389Zm-4,14H8V111a1.001,1.001,0,0,1,1-1h9ZM93.32227,99.37207l-2.75,22A3.00476,3.00476,0,0,1,87.5957,124H41.42383a3.00573,3.00573,0,0,1-2.97754-2.62793l-2.75-22A2.99969,2.99969,0,0,1,38.67383,96H90.3457a2.99905,2.99905,0,0,1,2.97656,3.37207ZM116.083,124a4.25,4.25,0,1,1,4.25-4.25A4.25475,4.25475,0,0,1,116.083,124Z"/><path d="M64,74a4.96688,4.96688,0,0,0,3.53613-1.46533,2.00013,2.00013,0,1,0-2.83008-2.82715.99846.99846,0,0,1-1.41211,0,2.00013,2.00013,0,1,0-2.83008,2.82715A4.96688,4.96688,0,0,0,64,74Z"/></svg>
