<svg width="60" height="60" viewBox="0 0 60 60" fill="none" xmlns="http://www.w3.org/2000/svg">
<g clip-path="url(#clip0_555_62)">
<path d="M21.8268 11.3325C14.8332 11.1531 7.7268 13.4993 5.0478 14.6948C3.7506 15.2167 3.8023 16.6058 3.9903 17.2352C4.1595 18.1916 5.3298 18.3311 5.8938 18.2812C21.9678 12.9015 37.2194 20.5228 42.8358 25.0059C41.8206 25.0656 40.1568 25.2798 39.4518 25.3795C36.6318 25.9175 36.2088 28.5924 36.3498 29.8626C36.801 32.9708 39.3108 33.3991 40.5093 33.2249L52.4238 31.8052C56.2016 31.4206 56.7008 28.5425 56.5128 26.8739L55.0323 13.6487C54.5811 10.7198 52.2123 10.1868 51.0843 10.2864C48.2079 10.7048 47.6298 13.1506 47.7003 14.3212L48.0528 18.7296C38.5353 13.4246 30.5688 11.5566 21.8268 11.3325Z" fill="#0097B2" stroke="#0097B2"/>
<path d="M38.6102 48.6384C45.6038 48.8178 52.7102 46.4716 55.3892 45.2761C56.6864 44.7541 56.6348 43.365 56.4467 42.7357C56.2775 41.7793 55.1072 41.6397 54.5432 41.6897C38.4692 47.0694 23.2178 39.4481 17.6013 34.965C18.6164 34.9053 20.2802 34.691 20.9852 34.5914C23.8052 34.0535 24.2282 31.3786 24.0872 30.1084C23.636 27.0001 21.1262 26.5716 19.9277 26.746L8.01329 28.1657C4.23546 28.5502 3.73629 31.4283 3.92429 33.0971L5.40479 46.3222C5.85599 49.2511 8.22479 49.784 9.35279 49.6845C12.2292 49.2661 12.8073 46.8202 12.7368 45.6497L12.3843 41.2413C21.9017 46.5463 29.8682 48.4143 38.6102 48.6384Z" fill="#0097B2" stroke="#0097B2"/>
</g>
<defs>
<clipPath id="clip0_555_62">
<rect width="52.875" height="39.75" fill="white" transform="translate(3.75 10.125)"/>
</clipPath>
</defs>
</svg>
