<svg width="90" height="90" viewBox="0 0 90 90" fill="none" xmlns="http://www.w3.org/2000/svg">
<g clip-path="url(#clip0_555_62)">
<path d="M32.7402 16.9977C22.2498 16.7287 11.5902 20.2479 7.57169 22.0412C5.62589 22.824 5.70344 24.9078 5.98544 25.8518C6.23924 27.2864 7.9947 27.4956 8.8407 27.4209C32.9517 19.3513 55.829 30.7832 64.2537 37.5078C62.7309 37.5975 60.2352 37.9188 59.1777 38.0683C54.9477 38.8752 54.3132 42.8876 54.5247 44.7929C55.2015 49.4553 58.9662 50.0977 60.764 49.8364L78.6357 47.7069C84.3024 47.1299 85.0511 42.8127 84.7692 40.3098L82.5485 20.4721C81.8717 16.0787 78.3185 15.2792 76.6265 15.4286C72.3119 16.0563 71.4447 19.7249 71.5505 21.4808L72.0792 28.0934C57.803 20.1359 45.8532 17.334 32.7402 16.9977Z" fill="#0097B2" stroke="#0097B2"/>
<path d="M57.9154 72.9567C68.4058 73.2256 79.0654 69.7064 83.0839 67.9132C85.0297 67.1302 84.9522 65.0465 84.6701 64.1026C84.4163 62.668 82.6609 62.4586 81.8149 62.5335C57.7039 70.603 34.8267 59.1712 26.4019 52.4466C27.9247 52.3569 30.4204 52.0355 31.4779 51.8862C35.7079 51.0792 36.3424 47.0669 36.1309 45.1616C35.4541 40.4991 31.6894 39.8565 29.8916 40.1181L12.0199 42.2475C6.3532 42.8243 5.60444 47.1415 5.88644 49.6446L8.10719 69.4823C8.78399 73.8757 12.3372 74.675 14.0292 74.5257C18.3438 73.8981 19.2109 70.2294 19.1052 68.4736L18.5764 61.861C32.8526 69.8185 44.8024 72.6204 57.9154 72.9567Z" fill="#0097B2" stroke="#0097B2"/>
</g>
<defs>
<clipPath id="clip0_555_62">
<rect width="79.3125" height="59.625" fill="white" transform="translate(5.625 15.1875)"/>
</clipPath>
</defs>
</svg>
