<?xml version="1.0"?>
<svg xmlns="http://www.w3.org/2000/svg" id="Layer_1" data-name="Layer 1" viewBox="0 0 128 128"><title/><path d="M23.83333,33.40234a1.99977,1.99977,0,0,0,2.54783-3.083l-3.11228-2.57227a1.99977,1.99977,0,0,0-2.54783,3.083Z"/><path d="M16.9662,45.01611l-3.81833-1.36816a2.00008,2.00008,0,0,0-1.3496,3.76563l3.81833,1.36816a2.00008,2.00008,0,0,0,1.3496-3.76562Z"/><path d="M9.16646,62a2,2,0,0,0,0,4h4.063a2,2,0,0,0,0-4Z"/><path d="M15.6166,79.21826l-3.81833,1.36816a2.00008,2.00008,0,1,0,1.3496,3.76563l3.81833-1.36816a2.00008,2.00008,0,0,0-1.3496-3.76562Z"/><path d="M23.26888,100.25293l3.11228-2.57227a1.99977,1.99977,0,0,0-2.54783-3.083l-3.11228,2.57227a1.99977,1.99977,0,1,0,2.54783,3.083Z"/><path d="M39.62617,105.57568a2.00231,2.00231,0,0,0-2.73728.71387l-2.03123,3.46484a2.00029,2.00029,0,1,0,3.45114,2.02344L40.34,108.313A2.00084,2.00084,0,0,0,39.62617,105.57568Z"/><path d="M74.78507,112.8877a2,2,0,1,0-3.93747.70508l.70556,3.94043a2,2,0,1,0,3.93747-.70508Z"/><path d="M91.11111,106.28955A2.00029,2.00029,0,1,0,87.66,108.313l2.03123,3.46484a2.00029,2.00029,0,1,0,3.45114-2.02344Z"/><path d="M104.16667,94.59766a1.99977,1.99977,0,0,0-2.54783,3.083l3.11228,2.57227a1.99977,1.99977,0,0,0,2.54783-3.083Z"/><path d="M109.8258,80.42627a2.00031,2.00031,0,0,0,1.208,2.55762l3.81833,1.36816a2.00008,2.00008,0,0,0,1.3496-3.76562l-3.81833-1.36816A1.9993,1.9993,0,0,0,109.8258,80.42627Z"/><path d="M114.77059,62a2,2,0,0,0,0,4h4.063a2,2,0,0,0,0-4Z"/><path d="M116.20173,47.41357a2.00008,2.00008,0,0,0-1.3496-3.76562l-3.81833,1.36816a2.00008,2.00008,0,1,0,1.3496,3.76563Z"/><path d="M104.73112,27.74707l-3.11228,2.57227a1.99977,1.99977,0,1,0,2.54783,3.083l3.11228-2.57227a1.99977,1.99977,0,0,0-2.54783-3.083Z"/><path d="M29.84256,26.99463a2.00009,2.00009,0,1,0,3.0449-2.59424L25.055,15.2085a2.00009,2.00009,0,1,0-3.0449,2.59424Z"/><path d="M8.48971,34.73877l10.55265,6a2.00024,2.00024,0,0,0,1.97752-3.47754l-10.55265-6a2.00024,2.00024,0,0,0-1.97752,3.47754Z"/><path d="M1.65822,55.20459l11.9999,2.084a2.02143,2.02143,0,0,0,.34472.02979,2.00036,2.00036,0,0,0,.33984-3.97119l-11.9999-2.084a2.00021,2.00021,0,0,0-.68456,3.94141Z"/><path d="M15.97109,72.33984a2.00239,2.00239,0,0,0-2.313-1.62842l-11.9999,2.084a2.00036,2.00036,0,0,0,.33984,3.97119,2.02143,2.02143,0,0,0,.34472-.02979l11.9999-2.084A2.00024,2.00024,0,0,0,15.97109,72.33984Z"/><path d="M21.76987,88.01123a2.00133,2.00133,0,0,0-2.72752-.75l-10.55265,6a2.00024,2.00024,0,1,0,1.97752,3.47754l10.55265-6A2.00063,2.00063,0,0,0,21.76987,88.01123Z"/><path d="M29.84256,101.00537l-7.83246,9.19189a2.00009,2.00009,0,1,0,3.0449,2.59424l7.83246-9.19189a2.00009,2.00009,0,1,0-3.0449-2.59424Z"/><path d="M83.24057,110.291a2,2,0,1,0-3.75192,1.38672l4.16745,11.27637a2,2,0,1,0,3.75192-1.38672Z"/><path d="M98.15744,101.00537a2.00009,2.00009,0,1,0-3.0449,2.59424l7.83246,9.19189a2.00009,2.00009,0,1,0,3.0449-2.59424Z"/><path d="M119.51029,93.26123l-10.55265-6a2.00024,2.00024,0,0,0-1.97752,3.47754l10.55265,6a2.00024,2.00024,0,0,0,1.97752-3.47754Z"/><path d="M126.34178,72.79541l-11.9999-2.084a2.00021,2.00021,0,0,0-.68456,3.94141l11.9999,2.084a2.02143,2.02143,0,0,0,.34472.02979,2.00036,2.00036,0,0,0,.33984-3.97119Z"/><path d="M112.02891,55.66016a2.00054,2.00054,0,0,0,1.96825,1.6582,2.02143,2.02143,0,0,0,.34472-.02979l11.9999-2.084a2.00021,2.00021,0,0,0-.68456-3.94141l-11.9999,2.084A2.00024,2.00024,0,0,0,112.02891,55.66016Z"/><path d="M106.23013,39.98877a1.99955,1.99955,0,0,0,2.72752.75l10.55265-6a2.00024,2.00024,0,0,0-1.97752-3.47754l-10.55265,6A2.00063,2.00063,0,0,0,106.23013,39.98877Z"/><path d="M96.634,27.69775a1.996,1.996,0,0,0,1.52343-.70312l7.83246-9.19189a2.00009,2.00009,0,1,0-3.0449-2.59424l-7.83246,9.19189A2,2,0,0,0,96.634,27.69775Z"/><path d="M23.00033,64A40.84143,40.84143,0,0,1,33.6629,36.44818a10.20818,10.20818,0,0,1-1.5678-4.14789,44.95936,44.95936,0,0,0,14.052,72.99756l.71124-4.06744A41.047,41.047,0,0,1,23.00033,64Z"/><path d="M108.99964,64A44.92953,44.92953,0,0,0,91.99977,28.81091v5.279a40.96262,40.96262,0,0,1-20.45186,70.20178L68.3276,108.7876A45.05892,45.05892,0,0,0,108.99964,64Z"/><path d="M84.65364,76.87549a2.00261,2.00261,0,0,0-2.13865-.81592l-8.46575,2.1167,7.84808-23.54395c.00964-.02893.00989-.0592.01813-.08838a1.9827,1.9827,0,0,0,.058-.28217c.00751-.05646.0144-.112.017-.16858.00146-.03156.0094-.06128.0094-.0932,0-2.50586.4331-3.62158,1.92381-6.15771l1.41942-2.417A19.08286,19.08286,0,0,0,87.99981,35.772V16.70605A6.86546,6.86546,0,0,0,80.99986,10a7.19854,7.19854,0,0,0-3,.65625v-.04932c0-3.36719-3.14011-6.10693-6.99994-6.10693a7.7784,7.7784,0,0,0-3.21653.68884,7.03774,7.03774,0,0,0-13.46535-.382A7.17247,7.17247,0,0,0,51.0001,4a6.87982,6.87982,0,0,0-6.99994,6.73682v7.01764l4-2.42041V10.73682a3.01263,3.01263,0,0,1,6,0v.96667l.02881-.01746A11.64534,11.64534,0,0,1,58,10.20264v-3.354a3.004,3.004,0,0,1,6,0v3.78119a11.24238,11.24238,0,0,1,4,2.3363V10.60693c0-1.14209,1.374-2.10693,3-2.10693s3,.96484,3,2.10693V25.39307c0,1.14209-1.374,2.10693-3,2.10693a3.6563,3.6563,0,0,1-2.18089-.68549c-.11755.13373-.22845.27148-.35376.40033l-3.65036,3.75342A19.66462,19.66462,0,0,1,66.95811,32.704a6.73667,6.73667,0,0,0,.82531-1.89282A7.7784,7.7784,0,0,0,70.99994,31.5a7.291,7.291,0,0,0,5.87581-2.79956,7.19017,7.19017,0,0,0,7.12409.64331V35.772a15.08212,15.08212,0,0,1-2.10545,7.627l-1.41942,2.417A14.86468,14.86468,0,0,0,78.11549,52H47.99866V44.27344a5.70922,5.70922,0,0,0-1.06249-3.83887L40.5329,32.32275a2.23282,2.23282,0,0,1-.499-1.812A2.82737,2.82737,0,0,1,41.444,28.65137L58.17046,18.53027a3.93626,3.93626,0,0,1,4.47457.37256,1.94619,1.94619,0,0,1,.67431,1.37207,1.88829,1.88829,0,0,1-.58886,1.3623L53.05673,31.5835a2.00186,2.00186,0,0,0,1.06249,3.35986c.44531.085,10.88956,2.17773,9.79631,10.46a2.00009,2.00009,0,1,0,3.96579.52344c1.01952-7.72754-4.71578-12.04492-9.63762-13.939l7.35443-7.562a5.87652,5.87652,0,0,0,1.7202-4.24219,5.93606,5.93606,0,0,0-1.936-4.19775,7.944,7.944,0,0,0-9.28215-.87744L39.37373,25.229a6.76058,6.76058,0,0,0-3.27585,4.56885,6.20741,6.20741,0,0,0,1.2954,5.00342l6.40376,8.1123c.17529.22168.20166.50439.20166,1.35986V54l.00146.01453V94a2.00035,2.00035,0,0,0,2.71092,1.86963l5.51167-2.09619-5.57466,31.88232a2,2,0,0,0,3.59616,1.50879l34.38156-48A1.9996,1.9996,0,0,0,84.65364,76.87549ZM80.99986,26a2.86757,2.86757,0,0,1-3-2.70605V16.70605a3.01594,3.01594,0,0,1,6,0v6.58789A2.86757,2.86757,0,0,1,80.99986,26ZM48.00013,56H77.225l-1.3333,4H48.00013Zm4.0986,61.70654,4.66988-26.708a2.00051,2.00051,0,0,0-2.68113-2.21387l-6.08735,2.31494V64h4V80a2,2,0,1,0,4,0V64H74.55833L69.1025,80.36768a2.00024,2.00024,0,0,0,2.3823,2.57275l6.71967-1.68018Z"/></svg>
