<svg width="345" height="116" viewBox="0 0 345 116" fill="none" xmlns="http://www.w3.org/2000/svg">
<path d="M27.515 95.1328H316.562L344 115V18.5021C342.108 4.87884 329.019 1.15768 322.712 1H19.4728C3.95605 4.78423 0.707642 15.1909 1.02301 19.9212V69.1162C0.266113 91.8216 18.369 95.9212 27.515 95.1328Z" stroke="white"/>
<path d="M48.38 40.24C47.6333 40.24 46.84 40.14 46 39.94C45.16 39.74 44.3667 39.4667 43.62 39.12V36.56C45.3533 37.4933 46.9 37.96 48.26 37.96C48.94 37.96 49.4867 37.8133 49.9 37.52C50.3267 37.2267 50.54 36.8133 50.54 36.28C50.54 35.9067 50.42 35.5933 50.18 35.34C49.9533 35.0733 49.6667 34.86 49.32 34.7C48.9733 34.5267 48.48 34.32 47.84 34.08C46.9733 33.76 46.2667 33.4533 45.72 33.16C45.1733 32.8667 44.7067 32.4533 44.32 31.92C43.9333 31.3733 43.74 30.6733 43.74 29.82C43.74 28.5667 44.1733 27.5933 45.04 26.9C45.9067 26.1933 47.0933 25.84 48.6 25.84C49.3067 25.84 50 25.92 50.68 26.08C51.36 26.2267 51.9867 26.4467 52.56 26.74V29.24C51.2133 28.4933 49.9133 28.12 48.66 28.12C47.9667 28.12 47.42 28.2467 47.02 28.5C46.6333 28.74 46.44 29.0867 46.44 29.54C46.44 29.9933 46.64 30.3533 47.04 30.62C47.4533 30.8733 48.0867 31.1533 48.94 31.46C49.8333 31.7933 50.5667 32.1133 51.14 32.42C51.7133 32.7267 52.2067 33.1733 52.62 33.76C53.0467 34.3333 53.2733 35.08 53.3 36C53.3 37.32 52.8533 38.36 51.96 39.12C51.0667 39.8667 49.8733 40.24 48.38 40.24ZM63.753 40L63.373 38.64C62.693 39.24 62.093 39.66 61.573 39.9C61.0663 40.1267 60.4863 40.24 59.833 40.24C59.2063 40.24 58.633 40.0933 58.113 39.8C57.6063 39.5067 57.2063 39.1067 56.913 38.6C56.633 38.08 56.493 37.5 56.493 36.86V29.56H59.133V35.36C59.133 36.2 59.2663 36.8333 59.533 37.26C59.7996 37.6867 60.1863 37.9 60.693 37.9C61.1196 37.9 61.5196 37.8067 61.893 37.62C62.2663 37.4333 62.6663 37.1333 63.093 36.72V29.56H65.733V37.68L66.173 40H63.753ZM74.9259 29.32V31.92H74.5859C73.5459 31.92 72.6993 32.2067 72.0459 32.78V40H69.4059V31.88L68.9659 29.56H71.6059L71.8659 30.94C72.3059 30.34 72.7059 29.92 73.0659 29.68C73.4259 29.44 73.8259 29.32 74.2659 29.32H74.9259ZM86.5938 35.58H79.3338C79.4404 36.38 79.7338 36.9933 80.2138 37.42C80.7071 37.8467 81.3604 38.06 82.1738 38.06C82.7738 38.06 83.4204 37.9533 84.1138 37.74C84.8204 37.5133 85.4738 37.2067 86.0738 36.82H86.1537V38.96C85.6204 39.3733 85.0071 39.6933 84.3138 39.92C83.6338 40.1333 82.9138 40.24 82.1538 40.24C81.0604 40.24 80.1071 40.02 79.2938 39.58C78.4804 39.14 77.8538 38.5067 77.4138 37.68C76.9738 36.8533 76.7538 35.8867 76.7538 34.78C76.7538 33.7 76.9604 32.7467 77.3738 31.92C77.8004 31.0933 78.3938 30.4533 79.1538 30C79.9138 29.5467 80.7938 29.32 81.7938 29.32C82.7671 29.32 83.6138 29.54 84.3338 29.98C85.0671 30.42 85.6271 31.0533 86.0138 31.88C86.4004 32.7067 86.5938 33.6733 86.5938 34.78V35.58ZM81.7938 31.44C81.1671 31.44 80.6404 31.6467 80.2138 32.06C79.8004 32.4733 79.5204 33.0467 79.3738 33.78H83.8738C83.7671 33.02 83.5404 32.44 83.1938 32.04C82.8471 31.64 82.3804 31.44 81.7938 31.44ZM90.1859 40.24C89.6793 40.24 89.2526 40.0733 88.9059 39.74C88.5593 39.4067 88.3859 38.9667 88.3859 38.42C88.3859 37.8733 88.5593 37.4333 88.9059 37.1C89.2526 36.7667 89.6793 36.6 90.1859 36.6C90.6926 36.6 91.1193 36.7667 91.4659 37.1C91.8126 37.4333 91.9859 37.8733 91.9859 38.42C91.9859 38.9667 91.8126 39.4067 91.4659 39.74C91.1193 40.0733 90.6926 40.24 90.1859 40.24ZM115.927 40H113.287V29.42L109.607 40H106.847L103.087 29.44V40H100.447V26.08H104.587L108.267 36.4L111.847 26.08H115.927V40ZM129.096 29.56L123.116 44.64H120.616L122.316 40.34L118.096 29.56H120.776L123.676 37.2L126.456 29.56H129.096ZM136.813 31.52H135.253V29.56H136.813V28.36C136.813 27.12 137.1 26.2 137.673 25.6C138.246 24.9867 139.08 24.68 140.173 24.68C140.586 24.68 140.94 24.72 141.233 24.8C141.526 24.88 141.813 25 142.093 25.16V27.34C141.506 27.0333 140.98 26.88 140.513 26.88C140.126 26.88 139.853 26.9933 139.693 27.22C139.533 27.4333 139.453 27.8133 139.453 28.36V29.56H141.893V31.52H139.453V40H136.813V31.52ZM144.793 28C144.34 28 143.953 27.8467 143.633 27.54C143.313 27.2333 143.153 26.8333 143.153 26.34C143.153 25.8467 143.313 25.4467 143.633 25.14C143.953 24.8333 144.34 24.68 144.793 24.68C145.246 24.68 145.633 24.8333 145.953 25.14C146.273 25.4467 146.433 25.8467 146.433 26.34C146.433 26.8333 146.273 27.2333 145.953 27.54C145.633 27.8467 145.246 28 144.793 28ZM146.113 29.56V40H143.473V29.58L146.113 29.56ZM154.926 29.32V31.92H154.586C153.546 31.92 152.699 32.2067 152.046 32.78V40H149.406V31.88L148.966 29.56H151.606L151.866 30.94C152.306 30.34 152.706 29.92 153.066 29.68C153.426 29.44 153.826 29.32 154.266 29.32H154.926ZM160.804 40.24C160.111 40.24 159.431 40.1467 158.764 39.96C158.098 39.76 157.471 39.48 156.884 39.12V36.62C157.524 37.1 158.131 37.4533 158.704 37.68C159.278 37.9067 159.898 38.02 160.564 38.02C161.244 38.02 161.744 37.9333 162.064 37.76C162.398 37.5867 162.564 37.32 162.564 36.96C162.564 36.6133 162.404 36.36 162.084 36.2C161.778 36.0267 161.284 35.86 160.604 35.7C159.858 35.5133 159.251 35.3267 158.784 35.14C158.318 34.94 157.911 34.62 157.564 34.18C157.231 33.74 157.064 33.1467 157.064 32.4C157.064 31.4667 157.444 30.72 158.204 30.16C158.978 29.6 160.011 29.32 161.304 29.32C161.931 29.32 162.511 29.3933 163.044 29.54C163.578 29.6733 164.124 29.9 164.684 30.22V32.66C164.111 32.26 163.578 31.9733 163.084 31.8C162.591 31.6267 162.064 31.54 161.504 31.54C160.891 31.54 160.418 31.62 160.084 31.78C159.751 31.9267 159.584 32.1467 159.584 32.44C159.584 32.7333 159.724 32.9533 160.004 33.1C160.298 33.2333 160.758 33.3733 161.384 33.52C162.131 33.68 162.751 33.8667 163.244 34.08C163.751 34.28 164.184 34.6133 164.544 35.08C164.904 35.5333 165.084 36.1667 165.084 36.98C165.084 37.6067 164.904 38.1733 164.544 38.68C164.184 39.1733 163.678 39.56 163.024 39.84C162.371 40.1067 161.631 40.24 160.804 40.24ZM170.684 29.56H173.084V31.52H170.684V36.56C170.684 37.5733 171.071 38.08 171.844 38.08C172.204 38.08 172.624 37.9533 173.104 37.7V39.88C172.771 40 172.458 40.0867 172.164 40.14C171.884 40.2067 171.564 40.24 171.204 40.24C169.098 40.24 168.044 39.0133 168.044 36.56V31.52H166.524V29.56H168.044V26.76L170.684 25.84V29.56ZM188.758 40L188.358 38.6C187.878 39.12 187.318 39.52 186.678 39.8C186.051 40.08 185.391 40.22 184.698 40.22C183.471 40.22 182.498 39.74 181.778 38.78C181.071 37.82 180.718 36.5133 180.718 34.86C180.718 33.1133 181.124 31.7533 181.938 30.78C182.764 29.8067 183.924 29.32 185.418 29.32C186.378 29.32 187.271 29.5267 188.098 29.94V24.92H190.738V37.68L191.178 40H188.758ZM183.498 34.82C183.498 35.86 183.658 36.66 183.978 37.22C184.298 37.78 184.771 38.06 185.398 38.06C186.278 38.06 187.178 37.62 188.098 36.74V31.8C187.324 31.6 186.618 31.5 185.978 31.5C185.124 31.5 184.498 31.7733 184.098 32.32C183.698 32.8533 183.498 33.6867 183.498 34.82ZM200.551 40L200.291 38.74C199.344 39.74 198.204 40.24 196.871 40.24C195.817 40.24 194.957 39.9667 194.291 39.42C193.637 38.8733 193.311 38.1533 193.311 37.26C193.311 36.1 193.737 35.2 194.591 34.56C195.457 33.9067 196.704 33.58 198.331 33.58C198.917 33.58 199.504 33.6067 200.091 33.66V33.28C200.091 32.6933 199.924 32.26 199.591 31.98C199.257 31.6867 198.731 31.54 198.011 31.54C197.304 31.54 196.644 31.66 196.031 31.9C195.431 32.1267 194.777 32.5 194.071 33.02V30.66C194.684 30.1933 195.324 29.8533 195.991 29.64C196.657 29.4267 197.391 29.32 198.191 29.32C199.671 29.32 200.797 29.64 201.571 30.28C202.357 30.9067 202.751 31.8267 202.751 33.04V37.68L203.191 40H200.551ZM195.951 37.06C195.951 37.8333 196.391 38.22 197.271 38.22C197.777 38.22 198.257 38.12 198.711 37.92C199.164 37.7067 199.624 37.3733 200.091 36.92V35.5H198.171C197.397 35.5 196.831 35.6133 196.471 35.84C196.124 36.0667 195.951 36.4733 195.951 37.06ZM215.092 29.56L209.112 44.64H206.612L208.312 40.34L204.092 29.56H206.772L209.672 37.2L212.452 29.56H215.092ZM237.729 29.56L234.549 40H231.389L229.369 33L227.389 40H224.229L221.029 29.56H223.709L225.909 37.3L228.069 29.56H230.749L232.949 37.32L235.129 29.56H237.729ZM246.156 40L245.896 38.74C244.949 39.74 243.809 40.24 242.476 40.24C241.423 40.24 240.563 39.9667 239.896 39.42C239.243 38.8733 238.916 38.1533 238.916 37.26C238.916 36.1 239.343 35.2 240.196 34.56C241.063 33.9067 242.309 33.58 243.936 33.58C244.523 33.58 245.109 33.6067 245.696 33.66V33.28C245.696 32.6933 245.529 32.26 245.196 31.98C244.863 31.6867 244.336 31.54 243.616 31.54C242.909 31.54 242.249 31.66 241.636 31.9C241.036 32.1267 240.383 32.5 239.676 33.02V30.66C240.289 30.1933 240.929 29.8533 241.596 29.64C242.263 29.4267 242.996 29.32 243.796 29.32C245.276 29.32 246.403 29.64 247.176 30.28C247.963 30.9067 248.356 31.8267 248.356 33.04V37.68L248.796 40H246.156ZM241.556 37.06C241.556 37.8333 241.996 38.22 242.876 38.22C243.383 38.22 243.863 38.12 244.316 37.92C244.769 37.7067 245.229 37.3733 245.696 36.92V35.5H243.776C243.003 35.5 242.436 35.6133 242.076 35.84C241.729 36.0667 241.556 36.4733 241.556 37.06ZM254.418 40.24C253.724 40.24 253.044 40.1467 252.378 39.96C251.711 39.76 251.084 39.48 250.498 39.12V36.62C251.138 37.1 251.744 37.4533 252.318 37.68C252.891 37.9067 253.511 38.02 254.178 38.02C254.858 38.02 255.358 37.9333 255.678 37.76C256.011 37.5867 256.178 37.32 256.178 36.96C256.178 36.6133 256.018 36.36 255.698 36.2C255.391 36.0267 254.898 35.86 254.218 35.7C253.471 35.5133 252.864 35.3267 252.398 35.14C251.931 34.94 251.524 34.62 251.178 34.18C250.844 33.74 250.678 33.1467 250.678 32.4C250.678 31.4667 251.058 30.72 251.818 30.16C252.591 29.6 253.624 29.32 254.918 29.32C255.544 29.32 256.124 29.3933 256.658 29.54C257.191 29.6733 257.738 29.9 258.298 30.22V32.66C257.724 32.26 257.191 31.9733 256.698 31.8C256.204 31.6267 255.678 31.54 255.118 31.54C254.504 31.54 254.031 31.62 253.698 31.78C253.364 31.9267 253.198 32.1467 253.198 32.44C253.198 32.7333 253.338 32.9533 253.618 33.1C253.911 33.2333 254.371 33.3733 254.998 33.52C255.744 33.68 256.364 33.8667 256.858 34.08C257.364 34.28 257.798 34.6133 258.158 35.08C258.518 35.5333 258.698 36.1667 258.698 36.98C258.698 37.6067 258.518 38.1733 258.158 38.68C257.798 39.1733 257.291 39.56 256.638 39.84C255.984 40.1067 255.244 40.24 254.418 40.24ZM46.7 55.4V59.1H51.88V61.3H46.7V67H44.06V53.08H53.2V55.4H46.7ZM64.1914 62.58H56.9314C57.0381 63.38 57.3314 63.9933 57.8114 64.42C58.3047 64.8467 58.9581 65.06 59.7714 65.06C60.3714 65.06 61.0181 64.9533 61.7114 64.74C62.4181 64.5133 63.0714 64.2067 63.6714 63.82H63.7514V65.96C63.2181 66.3733 62.6047 66.6933 61.9114 66.92C61.2314 67.1333 60.5114 67.24 59.7514 67.24C58.6581 67.24 57.7047 67.02 56.8914 66.58C56.0781 66.14 55.4514 65.5067 55.0114 64.68C54.5714 63.8533 54.3514 62.8867 54.3514 61.78C54.3514 60.7 54.5581 59.7467 54.9714 58.92C55.3981 58.0933 55.9914 57.4533 56.7514 57C57.5114 56.5467 58.3914 56.32 59.3914 56.32C60.3647 56.32 61.2114 56.54 61.9314 56.98C62.6647 57.42 63.2247 58.0533 63.6114 58.88C63.9981 59.7067 64.1914 60.6733 64.1914 61.78V62.58ZM59.3914 58.44C58.7647 58.44 58.2381 58.6467 57.8114 59.06C57.3981 59.4733 57.1181 60.0467 56.9714 60.78H61.4714C61.3647 60.02 61.1381 59.44 60.7914 59.04C60.4447 58.64 59.9781 58.44 59.3914 58.44ZM72.4636 56.32C73.3303 56.32 74.0903 56.5467 74.7436 57C75.4103 57.4533 75.9303 58.1 76.3036 58.94C76.6769 59.7667 76.8636 60.7267 76.8636 61.82C76.8636 63.5133 76.4236 64.84 75.5436 65.8C74.6769 66.7467 73.4903 67.22 71.9836 67.22C71.5436 67.22 71.1303 67.1733 70.7436 67.08C70.3569 66.9867 69.9169 66.82 69.4236 66.58V67H66.7836V51.92H69.4236V57.58C70.2636 56.74 71.2769 56.32 72.4636 56.32ZM71.7236 65C72.5503 65 73.1503 64.7467 73.5236 64.24C73.8969 63.7333 74.0836 62.9133 74.0836 61.78C74.0836 60.7 73.9303 59.9 73.6236 59.38C73.3169 58.86 72.8369 58.6 72.1836 58.6C71.2503 58.6 70.3303 59.0267 69.4236 59.88V64.76C69.7836 64.8667 70.1369 64.9333 70.4836 64.96C70.8303 64.9867 71.2436 65 71.7236 65ZM85.3166 56.32V58.92H84.9766C83.9366 58.92 83.0899 59.2067 82.4366 59.78V67H79.7966V58.88L79.3566 56.56H81.9966L82.2566 57.94C82.6966 57.34 83.0966 56.92 83.4566 56.68C83.8166 56.44 84.2166 56.32 84.6566 56.32H85.3166ZM95.335 67L94.955 65.64C94.275 66.24 93.675 66.66 93.155 66.9C92.6483 67.1267 92.0683 67.24 91.415 67.24C90.7883 67.24 90.215 67.0933 89.695 66.8C89.1883 66.5067 88.7883 66.1067 88.495 65.6C88.215 65.08 88.075 64.5 88.075 63.86V56.56H90.715V62.36C90.715 63.2 90.8483 63.8333 91.115 64.26C91.3817 64.6867 91.7683 64.9 92.275 64.9C92.7017 64.9 93.1017 64.8067 93.475 64.62C93.8483 64.4333 94.2483 64.1333 94.675 63.72V56.56H97.315V64.68L97.755 67H95.335ZM107.328 67L107.068 65.74C106.121 66.74 104.981 67.24 103.648 67.24C102.595 67.24 101.735 66.9667 101.068 66.42C100.415 65.8733 100.088 65.1533 100.088 64.26C100.088 63.1 100.515 62.2 101.368 61.56C102.235 60.9067 103.481 60.58 105.108 60.58C105.695 60.58 106.281 60.6067 106.868 60.66V60.28C106.868 59.6933 106.701 59.26 106.368 58.98C106.035 58.6867 105.508 58.54 104.788 58.54C104.081 58.54 103.421 58.66 102.808 58.9C102.208 59.1267 101.555 59.5 100.848 60.02V57.66C101.461 57.1933 102.101 56.8533 102.768 56.64C103.435 56.4267 104.168 56.32 104.968 56.32C106.448 56.32 107.575 56.64 108.348 57.28C109.135 57.9067 109.528 58.8267 109.528 60.04V64.68L109.968 67H107.328ZM102.728 64.06C102.728 64.8333 103.168 65.22 104.048 65.22C104.555 65.22 105.035 65.12 105.488 64.92C105.941 64.7067 106.401 64.3733 106.868 63.92V62.5H104.948C104.175 62.5 103.608 62.6133 103.248 62.84C102.901 63.0667 102.728 63.4733 102.728 64.06ZM118.11 56.32V58.92H117.77C116.73 58.92 115.883 59.2067 115.23 59.78V67H112.59V58.88L112.15 56.56H114.79L115.05 57.94C115.49 57.34 115.89 56.92 116.25 56.68C116.61 56.44 117.01 56.32 117.45 56.32H118.11ZM130.268 56.56L124.288 71.64H121.788L123.488 67.34L119.268 56.56H121.948L124.848 64.2L127.628 56.56H130.268ZM146.905 64.66V67H137.425V65L141.885 60.32C142.618 59.56 143.125 58.9267 143.405 58.42C143.685 57.9133 143.825 57.4267 143.825 56.96C143.825 55.7333 143.065 55.12 141.545 55.12C140.918 55.12 140.285 55.2133 139.645 55.4C139.018 55.5867 138.418 55.8667 137.845 56.24V53.82C139.018 53.1667 140.292 52.84 141.665 52.84C143.145 52.84 144.318 53.1867 145.185 53.88C146.065 54.5733 146.505 55.5267 146.505 56.74C146.505 58.1267 145.878 59.5133 144.625 60.9L141.205 64.66H146.905ZM159.947 63.96H158.027V67H155.387V63.96H149.147V61.9L155.387 53.08H158.027V61.7H159.947V63.96ZM155.387 61.7V56.8L152.227 61.7H155.387ZM164.81 64C164.81 64.8933 164.69 65.8133 164.45 66.76C164.21 67.7067 163.783 68.7867 163.17 70H160.53C160.97 69.2 161.29 68.4467 161.49 67.74C161.69 67.0467 161.81 66.4333 161.85 65.9C161.903 65.3533 161.93 64.72 161.93 64H164.81ZM182.51 64.66V67H173.03V65L177.49 60.32C178.224 59.56 178.73 58.9267 179.01 58.42C179.29 57.9133 179.43 57.4267 179.43 56.96C179.43 55.7333 178.67 55.12 177.15 55.12C176.524 55.12 175.89 55.2133 175.25 55.4C174.624 55.5867 174.024 55.8667 173.45 56.24V53.82C174.624 53.1667 175.897 52.84 177.27 52.84C178.75 52.84 179.924 53.1867 180.79 53.88C181.67 54.5733 182.11 55.5267 182.11 56.74C182.11 58.1267 181.484 59.5133 180.23 60.9L176.81 64.66H182.51ZM190.173 67.24C188.293 67.24 186.906 66.5867 186.013 65.28C185.119 63.96 184.673 62.2133 184.673 60.04C184.673 57.8667 185.119 56.1267 186.013 54.82C186.906 53.5 188.293 52.84 190.173 52.84C192.053 52.84 193.439 53.5 194.333 54.82C195.226 56.1267 195.673 57.8667 195.673 60.04C195.673 62.2133 195.226 63.96 194.333 65.28C193.439 66.5867 192.053 67.24 190.173 67.24ZM190.173 64.98C191.133 64.98 191.826 64.5267 192.253 63.62C192.679 62.7133 192.893 61.52 192.893 60.04C192.893 58.56 192.679 57.3667 192.253 56.46C191.826 55.5533 191.133 55.1 190.173 55.1C189.213 55.1 188.519 55.5533 188.093 56.46C187.666 57.3667 187.453 58.56 187.453 60.04C187.453 61.52 187.666 62.7133 188.093 63.62C188.519 64.5267 189.213 64.98 190.173 64.98ZM207.315 64.66V67H197.835V65L202.295 60.32C203.028 59.56 203.535 58.9267 203.815 58.42C204.095 57.9133 204.235 57.4267 204.235 56.96C204.235 55.7333 203.475 55.12 201.955 55.12C201.328 55.12 200.695 55.2133 200.055 55.4C199.428 55.5867 198.828 55.8667 198.255 56.24V53.82C199.428 53.1667 200.702 52.84 202.075 52.84C203.555 52.84 204.728 53.1867 205.595 53.88C206.475 54.5733 206.915 55.5267 206.915 56.74C206.915 58.1267 206.288 59.5133 205.035 60.9L201.615 64.66H207.315ZM217.677 59.72C218.357 60.08 218.884 60.5667 219.257 61.18C219.644 61.78 219.837 62.4467 219.837 63.18C219.837 63.9933 219.611 64.7067 219.157 65.32C218.704 65.9333 218.064 66.4067 217.237 66.74C216.411 67.0733 215.471 67.24 214.417 67.24C213.644 67.24 212.904 67.1467 212.197 66.96C211.504 66.7733 210.811 66.4867 210.117 66.1V63.52H210.197C211.584 64.48 212.957 64.96 214.317 64.96C215.171 64.96 215.851 64.7933 216.357 64.46C216.864 64.1133 217.117 63.64 217.117 63.04C217.117 62.3867 216.831 61.86 216.257 61.46C215.684 61.0467 214.911 60.84 213.937 60.84H213.097V58.64H213.937C214.844 58.64 215.557 58.4733 216.077 58.14C216.597 57.8067 216.857 57.3467 216.857 56.76C216.857 56.24 216.637 55.84 216.197 55.56C215.771 55.28 215.171 55.14 214.397 55.14C213.797 55.14 213.191 55.2333 212.577 55.42C211.977 55.6067 211.317 55.9 210.597 56.3H210.517V53.82C211.784 53.1667 213.117 52.84 214.517 52.84C216.037 52.84 217.251 53.1733 218.157 53.84C219.077 54.4933 219.537 55.3867 219.537 56.52C219.537 57.1867 219.371 57.8 219.037 58.36C218.717 58.9067 218.264 59.36 217.677 59.72Z" fill="white"/>
</svg>
