<svg width="345" height="116" viewBox="0 0 345 116" fill="none" xmlns="http://www.w3.org/2000/svg">
<path d="M27.515 95.1328H316.562L344 115V18.5021C342.108 4.87884 329.019 1.15768 322.712 1H19.4728C3.95605 4.78423 0.707642 15.1909 1.02301 19.9212V69.1162C0.266113 91.8216 18.369 95.9212 27.515 95.1328Z" stroke="white"/>
<path d="M52.32 49.84H46.38L45.22 53H42.58L47.86 39.08H50.94L56.22 53H53.48L52.32 49.84ZM51.5 47.6L49.36 41.68L47.2 47.6H51.5ZM70.5047 42.32C71.5047 42.32 72.3047 42.6333 72.9047 43.26C73.518 43.8733 73.8247 44.6867 73.8247 45.7V53H71.1847V47.2C71.1847 46.2933 71.0647 45.6467 70.8247 45.26C70.5847 44.86 70.1847 44.66 69.6247 44.66C68.9447 44.66 68.2447 45.04 67.5247 45.8V53H64.8847V47.2C64.8847 46.2933 64.7647 45.6467 64.5247 45.26C64.2847 44.86 63.8847 44.66 63.3247 44.66C62.6447 44.66 61.9447 45.04 61.2247 45.8V53H58.5847V44.88L58.1447 42.56H60.5647L60.9447 43.9C61.478 43.34 62.0047 42.94 62.5247 42.7C63.0447 42.4467 63.6047 42.32 64.2047 42.32C64.8714 42.32 65.458 42.4733 65.9647 42.78C66.4847 43.0733 66.878 43.48 67.1447 44C67.7047 43.4 68.2447 42.9733 68.7647 42.72C69.298 42.4533 69.878 42.32 70.5047 42.32ZM83.0988 39.08H85.7388V53H83.0988V39.08ZM104.23 48.58H96.9705C97.0771 49.38 97.3705 49.9933 97.8505 50.42C98.3438 50.8467 98.9971 51.06 99.8105 51.06C100.41 51.06 101.057 50.9533 101.75 50.74C102.457 50.5133 103.11 50.2067 103.71 49.82H103.79V51.96C103.257 52.3733 102.644 52.6933 101.95 52.92C101.27 53.1333 100.55 53.24 99.7905 53.24C98.6971 53.24 97.7438 53.02 96.9305 52.58C96.1171 52.14 95.4905 51.5067 95.0505 50.68C94.6105 49.8533 94.3905 48.8867 94.3905 47.78C94.3905 46.7 94.5971 45.7467 95.0105 44.92C95.4371 44.0933 96.0305 43.4533 96.7905 43C97.5505 42.5467 98.4305 42.32 99.4305 42.32C100.404 42.32 101.25 42.54 101.97 42.98C102.704 43.42 103.264 44.0533 103.65 44.88C104.037 45.7067 104.23 46.6733 104.23 47.78V48.58ZM99.4305 44.44C98.8038 44.44 98.2771 44.6467 97.8505 45.06C97.4371 45.4733 97.1571 46.0467 97.0105 46.78H101.51C101.404 46.02 101.177 45.44 100.83 45.04C100.484 44.64 100.017 44.44 99.4305 44.44ZM106.703 37.92H109.343V53H106.703V37.92ZM113.628 41C113.175 41 112.788 40.8467 112.468 40.54C112.148 40.2333 111.988 39.8333 111.988 39.34C111.988 38.8467 112.148 38.4467 112.468 38.14C112.788 37.8333 113.175 37.68 113.628 37.68C114.081 37.68 114.468 37.8333 114.788 38.14C115.108 38.4467 115.268 38.8467 115.268 39.34C115.268 39.8333 115.108 40.2333 114.788 40.54C114.468 40.8467 114.081 41 113.628 41ZM114.948 42.56V53H112.308V42.58L114.948 42.56ZM127.874 42.56L127.434 44.86V53C127.434 54.5867 126.967 55.7933 126.034 56.62C125.1 57.46 123.827 57.88 122.214 57.88C121.36 57.88 120.594 57.7667 119.914 57.54C119.234 57.3133 118.58 57.0067 117.954 56.62V54.14C119.207 55.1 120.554 55.58 121.994 55.58C123.86 55.58 124.794 54.72 124.794 53V52.18C123.967 52.6333 123.06 52.86 122.074 52.86C120.674 52.86 119.567 52.4 118.754 51.48C117.954 50.5467 117.554 49.2667 117.554 47.64C117.554 45.9867 117.974 44.6867 118.814 43.74C119.667 42.7933 120.82 42.32 122.274 42.32C122.74 42.32 123.187 42.3733 123.614 42.48C124.04 42.5733 124.547 42.74 125.134 42.98L125.234 42.56H127.874ZM122.174 50.58C123.014 50.58 123.887 50.3133 124.794 49.78V44.78C124.447 44.6733 124.1 44.6067 123.754 44.58C123.42 44.5533 123.014 44.54 122.534 44.54C121.76 44.54 121.2 44.7867 120.854 45.28C120.507 45.7733 120.334 46.56 120.334 47.64C120.334 48.6667 120.48 49.4133 120.774 49.88C121.067 50.3467 121.534 50.58 122.174 50.58ZM131.636 41C131.183 41 130.796 40.8467 130.476 40.54C130.156 40.2333 129.996 39.8333 129.996 39.34C129.996 38.8467 130.156 38.4467 130.476 38.14C130.796 37.8333 131.183 37.68 131.636 37.68C132.089 37.68 132.476 37.8333 132.796 38.14C133.116 38.4467 133.276 38.8467 133.276 39.34C133.276 39.8333 133.116 40.2333 132.796 40.54C132.476 40.8467 132.089 41 131.636 41ZM132.956 42.56V53H130.316V42.58L132.956 42.56ZM141.721 42.32C142.588 42.32 143.348 42.5467 144.001 43C144.668 43.4533 145.188 44.1 145.561 44.94C145.935 45.7667 146.121 46.7267 146.121 47.82C146.121 49.5133 145.681 50.84 144.801 51.8C143.935 52.7467 142.748 53.22 141.241 53.22C140.801 53.22 140.388 53.1733 140.001 53.08C139.615 52.9867 139.175 52.82 138.681 52.58V53H136.041V37.92H138.681V43.58C139.521 42.74 140.535 42.32 141.721 42.32ZM140.981 51C141.808 51 142.408 50.7467 142.781 50.24C143.155 49.7333 143.341 48.9133 143.341 47.78C143.341 46.7 143.188 45.9 142.881 45.38C142.575 44.86 142.095 44.6 141.441 44.6C140.508 44.6 139.588 45.0267 138.681 45.88V50.76C139.041 50.8667 139.395 50.9333 139.741 50.96C140.088 50.9867 140.501 51 140.981 51ZM148.714 37.92H151.354V53H148.714V37.92ZM163.84 48.58H156.58C156.687 49.38 156.98 49.9933 157.46 50.42C157.953 50.8467 158.607 51.06 159.42 51.06C160.02 51.06 160.667 50.9533 161.36 50.74C162.067 50.5133 162.72 50.2067 163.32 49.82H163.4V51.96C162.867 52.3733 162.253 52.6933 161.56 52.92C160.88 53.1333 160.16 53.24 159.4 53.24C158.307 53.24 157.353 53.02 156.54 52.58C155.727 52.14 155.1 51.5067 154.66 50.68C154.22 49.8533 154 48.8867 154 47.78C154 46.7 154.207 45.7467 154.62 44.92C155.047 44.0933 155.64 43.4533 156.4 43C157.16 42.5467 158.04 42.32 159.04 42.32C160.013 42.32 160.86 42.54 161.58 42.98C162.313 43.42 162.873 44.0533 163.26 44.88C163.647 45.7067 163.84 46.6733 163.84 47.78V48.58ZM159.04 44.44C158.413 44.44 157.887 44.6467 157.46 45.06C157.047 45.4733 156.767 46.0467 156.62 46.78H161.12C161.013 46.02 160.787 45.44 160.44 45.04C160.093 44.64 159.627 44.44 159.04 44.44ZM172.458 44.52H170.898V42.56H172.458V41.36C172.458 40.12 172.744 39.2 173.318 38.6C173.891 37.9867 174.724 37.68 175.818 37.68C176.231 37.68 176.584 37.72 176.878 37.8C177.171 37.88 177.458 38 177.738 38.16V40.34C177.151 40.0333 176.624 39.88 176.158 39.88C175.771 39.88 175.498 39.9933 175.338 40.22C175.178 40.4333 175.098 40.8133 175.098 41.36V42.56H177.538V44.52H175.098V53H172.458V44.52ZM184.045 53.24C182.991 53.24 182.065 53.02 181.265 52.58C180.465 52.1267 179.845 51.4867 179.405 50.66C178.978 49.8333 178.765 48.8733 178.765 47.78C178.765 46.6867 178.978 45.7267 179.405 44.9C179.845 44.0733 180.465 43.44 181.265 43C182.065 42.5467 182.991 42.32 184.045 42.32C185.098 42.32 186.025 42.5467 186.825 43C187.625 43.44 188.238 44.0733 188.665 44.9C189.105 45.7267 189.325 46.6867 189.325 47.78C189.325 48.8733 189.105 49.8333 188.665 50.66C188.238 51.4867 187.625 52.1267 186.825 52.58C186.025 53.02 185.098 53.24 184.045 53.24ZM184.045 51.06C184.831 51.06 185.445 50.78 185.885 50.22C186.325 49.6467 186.545 48.8333 186.545 47.78C186.545 46.7133 186.325 45.9 185.885 45.34C185.445 44.78 184.831 44.5 184.045 44.5C183.258 44.5 182.645 44.78 182.205 45.34C181.765 45.9 181.545 46.7133 181.545 47.78C181.545 48.8333 181.765 49.6467 182.205 50.22C182.645 50.78 183.258 51.06 184.045 51.06ZM197.778 42.32V44.92H197.438C196.398 44.92 195.551 45.2067 194.898 45.78V53H192.258V44.88L191.818 42.56H194.458L194.718 43.94C195.158 43.34 195.558 42.92 195.918 42.68C196.278 42.44 196.678 42.32 197.118 42.32H197.778ZM209.141 41.4V45.1H214.321V47.3H209.141V53H206.501V39.08H215.641V41.4H209.141ZM233.974 53H231.334V42.42L227.654 53H224.894L221.134 42.44V53H218.494V39.08H222.634L226.314 49.4L229.894 39.08H233.974V53ZM238.103 39.08H240.743V50.68H246.603V53H238.103V39.08ZM257.965 49.84H252.025L250.865 53H248.225L253.505 39.08H256.585L261.865 53H259.125L257.965 49.84ZM257.145 47.6L255.005 41.68L252.845 47.6H257.145ZM265.529 47.78C265.529 47.02 265.656 46.3933 265.909 45.9C266.163 45.3933 266.469 45 266.829 44.72C267.189 44.4267 267.643 44.1267 268.189 43.82C268.776 43.4867 269.203 43.1933 269.469 42.94C269.749 42.6733 269.889 42.3133 269.889 41.86C269.889 41.2733 269.629 40.82 269.109 40.5C268.603 40.1667 267.929 40 267.089 40C265.823 40 264.596 40.38 263.409 41.14H263.329V38.78C264.489 38.0467 265.796 37.68 267.249 37.68C268.249 37.68 269.149 37.84 269.949 38.16C270.749 38.48 271.383 38.9533 271.849 39.58C272.329 40.2067 272.569 40.9667 272.569 41.86C272.569 42.5 272.449 43.04 272.209 43.48C271.969 43.9067 271.676 44.2533 271.329 44.52C270.983 44.7733 270.536 45.0467 269.989 45.34C269.376 45.6733 268.916 45.98 268.609 46.26C268.316 46.54 268.169 46.9133 268.169 47.38V47.92H265.529V47.78ZM266.829 53.24C266.336 53.24 265.916 53.08 265.569 52.76C265.236 52.4267 265.069 51.9933 265.069 51.46C265.069 50.9267 265.236 50.5 265.569 50.18C265.916 49.8467 266.336 49.68 266.829 49.68C267.323 49.68 267.736 49.8467 268.069 50.18C268.416 50.5 268.589 50.9267 268.589 51.46C268.589 51.9933 268.416 52.4267 268.069 52.76C267.736 53.08 267.323 53.24 266.829 53.24Z" fill="white"/>
</svg>
