<svg width="348" height="119" viewBox="0 0 348 119" fill="none" xmlns="http://www.w3.org/2000/svg">
<path d="M318.408 97.61H28.5182L1 118V18.9627C2.8978 4.98091 16.0243 1.16183 22.3503 1H326.473C342.035 4.88382 345.293 15.5643 344.977 20.4191V70.9087C345.736 94.2116 327.58 98.4191 318.408 97.61Z" stroke="white"/>
<path d="M46.2 28.08C47.6267 28.08 48.8533 28.3667 49.88 28.94C50.9067 29.5 51.6867 30.3067 52.22 31.36C52.7533 32.4 53.02 33.6267 53.02 35.04C53.02 36.4533 52.7533 37.6867 52.22 38.74C51.6867 39.78 50.9067 40.5867 49.88 41.16C48.8533 41.72 47.6267 42 46.2 42H41.06V28.08H46.2ZM46.2 39.66C47.4667 39.66 48.4533 39.2667 49.16 38.48C49.88 37.6933 50.24 36.5467 50.24 35.04C50.24 33.5333 49.88 32.3867 49.16 31.6C48.4533 30.8133 47.4667 30.42 46.2 30.42H43.7V39.66H46.2ZM61.0055 42.24C59.9521 42.24 59.0255 42.02 58.2255 41.58C57.4255 41.1267 56.8055 40.4867 56.3655 39.66C55.9388 38.8333 55.7255 37.8733 55.7255 36.78C55.7255 35.6867 55.9388 34.7267 56.3655 33.9C56.8055 33.0733 57.4255 32.44 58.2255 32C59.0255 31.5467 59.9521 31.32 61.0055 31.32C62.0588 31.32 62.9855 31.5467 63.7855 32C64.5855 32.44 65.1988 33.0733 65.6255 33.9C66.0655 34.7267 66.2855 35.6867 66.2855 36.78C66.2855 37.8733 66.0655 38.8333 65.6255 39.66C65.1988 40.4867 64.5855 41.1267 63.7855 41.58C62.9855 42.02 62.0588 42.24 61.0055 42.24ZM61.0055 40.06C61.7921 40.06 62.4055 39.78 62.8455 39.22C63.2855 38.6467 63.5055 37.8333 63.5055 36.78C63.5055 35.7133 63.2855 34.9 62.8455 34.34C62.4055 33.78 61.7921 33.5 61.0055 33.5C60.2188 33.5 59.6055 33.78 59.1655 34.34C58.7255 34.9 58.5055 35.7133 58.5055 36.78C58.5055 37.8333 58.7255 38.6467 59.1655 39.22C59.6055 39.78 60.2188 40.06 61.0055 40.06ZM84.1039 31.56L78.1239 46.64H75.6239L77.3239 42.34L73.1039 31.56H75.7839L78.6839 39.2L81.4639 31.56H84.1039ZM90.5953 42.24C89.542 42.24 88.6153 42.02 87.8153 41.58C87.0153 41.1267 86.3953 40.4867 85.9553 39.66C85.5286 38.8333 85.3153 37.8733 85.3153 36.78C85.3153 35.6867 85.5286 34.7267 85.9553 33.9C86.3953 33.0733 87.0153 32.44 87.8153 32C88.6153 31.5467 89.542 31.32 90.5953 31.32C91.6486 31.32 92.5753 31.5467 93.3753 32C94.1753 32.44 94.7886 33.0733 95.2153 33.9C95.6553 34.7267 95.8753 35.6867 95.8753 36.78C95.8753 37.8733 95.6553 38.8333 95.2153 39.66C94.7886 40.4867 94.1753 41.1267 93.3753 41.58C92.5753 42.02 91.6486 42.24 90.5953 42.24ZM90.5953 40.06C91.382 40.06 91.9953 39.78 92.4353 39.22C92.8753 38.6467 93.0953 37.8333 93.0953 36.78C93.0953 35.7133 92.8753 34.9 92.4353 34.34C91.9953 33.78 91.382 33.5 90.5953 33.5C89.8086 33.5 89.1953 33.78 88.7553 34.34C88.3153 34.9 88.0953 35.7133 88.0953 36.78C88.0953 37.8333 88.3153 38.6467 88.7553 39.22C89.1953 39.78 89.8086 40.06 90.5953 40.06ZM105.948 42L105.568 40.64C104.888 41.24 104.288 41.66 103.768 41.9C103.262 42.1267 102.682 42.24 102.028 42.24C101.402 42.24 100.828 42.0933 100.308 41.8C99.8016 41.5067 99.4016 41.1067 99.1083 40.6C98.8283 40.08 98.6883 39.5 98.6883 38.86V31.56H101.328V37.36C101.328 38.2 101.462 38.8333 101.728 39.26C101.995 39.6867 102.382 39.9 102.888 39.9C103.315 39.9 103.715 39.8067 104.088 39.62C104.462 39.4333 104.862 39.1333 105.288 38.72V31.56H107.928V39.68L108.368 42H105.948ZM132.327 31.56L129.147 42H125.987L123.967 35L121.987 42H118.827L115.627 31.56H118.307L120.507 39.3L122.667 31.56H125.347L127.547 39.32L129.727 31.56H132.327ZM138.994 42.24C137.94 42.24 137.014 42.02 136.214 41.58C135.414 41.1267 134.794 40.4867 134.354 39.66C133.927 38.8333 133.714 37.8733 133.714 36.78C133.714 35.6867 133.927 34.7267 134.354 33.9C134.794 33.0733 135.414 32.44 136.214 32C137.014 31.5467 137.94 31.32 138.994 31.32C140.047 31.32 140.974 31.5467 141.774 32C142.574 32.44 143.187 33.0733 143.614 33.9C144.054 34.7267 144.274 35.6867 144.274 36.78C144.274 37.8733 144.054 38.8333 143.614 39.66C143.187 40.4867 142.574 41.1267 141.774 41.58C140.974 42.02 140.047 42.24 138.994 42.24ZM138.994 40.06C139.78 40.06 140.394 39.78 140.834 39.22C141.274 38.6467 141.494 37.8333 141.494 36.78C141.494 35.7133 141.274 34.9 140.834 34.34C140.394 33.78 139.78 33.5 138.994 33.5C138.207 33.5 137.594 33.78 137.154 34.34C136.714 34.9 136.494 35.7133 136.494 36.78C136.494 37.8333 136.714 38.6467 137.154 39.22C137.594 39.78 138.207 40.06 138.994 40.06ZM152.727 31.32V33.92H152.387C151.347 33.92 150.5 34.2067 149.847 34.78V42H147.207V33.88L146.767 31.56H149.407L149.667 32.94C150.107 32.34 150.507 31.92 150.867 31.68C151.227 31.44 151.627 31.32 152.067 31.32H152.727ZM159.385 37.62L158.185 38.94V42H155.545V26.92H158.185V35.76L161.825 31.56H164.825L161.025 35.78L165.065 42H162.045L159.385 37.62ZM173.012 33.52H171.452V31.56H173.012V30.36C173.012 29.12 173.299 28.2 173.872 27.6C174.446 26.9867 175.279 26.68 176.372 26.68C176.786 26.68 177.139 26.72 177.432 26.8C177.726 26.88 178.012 27 178.292 27.16V29.34C177.706 29.0333 177.179 28.88 176.712 28.88C176.326 28.88 176.052 28.9933 175.892 29.22C175.732 29.4333 175.652 29.8133 175.652 30.36V31.56H178.092V33.52H175.652V42H173.012V33.52ZM187.159 42L186.779 40.64C186.099 41.24 185.499 41.66 184.979 41.9C184.473 42.1267 183.893 42.24 183.239 42.24C182.613 42.24 182.039 42.0933 181.519 41.8C181.013 41.5067 180.613 41.1067 180.319 40.6C180.039 40.08 179.899 39.5 179.899 38.86V31.56H182.539V37.36C182.539 38.2 182.673 38.8333 182.939 39.26C183.206 39.6867 183.593 39.9 184.099 39.9C184.526 39.9 184.926 39.8067 185.299 39.62C185.673 39.4333 186.073 39.1333 186.499 38.72V31.56H189.139V39.68L189.579 42H187.159ZM192.472 26.92H195.112V42H192.472V26.92ZM198.078 26.92H200.718V42H198.078V26.92ZM206.903 31.56H209.303V33.52H206.903V38.56C206.903 39.5733 207.29 40.08 208.063 40.08C208.423 40.08 208.843 39.9533 209.323 39.7V41.88C208.99 42 208.676 42.0867 208.383 42.14C208.103 42.2067 207.783 42.24 207.423 42.24C205.316 42.24 204.263 41.0133 204.263 38.56V33.52H202.743V31.56H204.263V28.76L206.903 27.84V31.56ZM213.011 30C212.558 30 212.171 29.8467 211.851 29.54C211.531 29.2333 211.371 28.8333 211.371 28.34C211.371 27.8467 211.531 27.4467 211.851 27.14C212.171 26.8333 212.558 26.68 213.011 26.68C213.464 26.68 213.851 26.8333 214.171 27.14C214.491 27.4467 214.651 27.8467 214.651 28.34C214.651 28.8333 214.491 29.2333 214.171 29.54C213.851 29.8467 213.464 30 213.011 30ZM214.331 31.56V42H211.691V31.58L214.331 31.56ZM229.516 31.32C230.516 31.32 231.316 31.6333 231.916 32.26C232.53 32.8733 232.836 33.6867 232.836 34.7V42H230.196V36.2C230.196 35.2933 230.076 34.6467 229.836 34.26C229.596 33.86 229.196 33.66 228.636 33.66C227.956 33.66 227.256 34.04 226.536 34.8V42H223.896V36.2C223.896 35.2933 223.776 34.6467 223.536 34.26C223.296 33.86 222.896 33.66 222.336 33.66C221.656 33.66 220.956 34.04 220.236 34.8V42H217.596V33.88L217.156 31.56H219.576L219.956 32.9C220.49 32.34 221.016 31.94 221.536 31.7C222.056 31.4467 222.616 31.32 223.216 31.32C223.883 31.32 224.47 31.4733 224.976 31.78C225.496 32.0733 225.89 32.48 226.156 33C226.716 32.4 227.256 31.9733 227.776 31.72C228.31 31.4533 228.89 31.32 229.516 31.32ZM245.625 37.58H238.365C238.472 38.38 238.765 38.9933 239.245 39.42C239.738 39.8467 240.392 40.06 241.205 40.06C241.805 40.06 242.452 39.9533 243.145 39.74C243.852 39.5133 244.505 39.2067 245.105 38.82H245.185V40.96C244.652 41.3733 244.038 41.6933 243.345 41.92C242.665 42.1333 241.945 42.24 241.185 42.24C240.092 42.24 239.138 42.02 238.325 41.58C237.512 41.14 236.885 40.5067 236.445 39.68C236.005 38.8533 235.785 37.8867 235.785 36.78C235.785 35.7 235.992 34.7467 236.405 33.92C236.832 33.0933 237.425 32.4533 238.185 32C238.945 31.5467 239.825 31.32 240.825 31.32C241.798 31.32 242.645 31.54 243.365 31.98C244.098 32.42 244.658 33.0533 245.045 33.88C245.432 34.7067 245.625 35.6733 245.625 36.78V37.58ZM240.825 33.44C240.198 33.44 239.672 33.6467 239.245 34.06C238.832 34.4733 238.552 35.0467 238.405 35.78H242.905C242.798 35.02 242.572 34.44 242.225 34.04C241.878 33.64 241.412 33.44 240.825 33.44ZM258.623 42.24C257.569 42.24 256.643 42.02 255.843 41.58C255.043 41.1267 254.423 40.4867 253.983 39.66C253.556 38.8333 253.343 37.8733 253.343 36.78C253.343 35.6867 253.556 34.7267 253.983 33.9C254.423 33.0733 255.043 32.44 255.843 32C256.643 31.5467 257.569 31.32 258.623 31.32C259.676 31.32 260.603 31.5467 261.403 32C262.203 32.44 262.816 33.0733 263.243 33.9C263.683 34.7267 263.903 35.6867 263.903 36.78C263.903 37.8733 263.683 38.8333 263.243 39.66C262.816 40.4867 262.203 41.1267 261.403 41.58C260.603 42.02 259.676 42.24 258.623 42.24ZM258.623 40.06C259.409 40.06 260.023 39.78 260.463 39.22C260.903 38.6467 261.123 37.8333 261.123 36.78C261.123 35.7133 260.903 34.9 260.463 34.34C260.023 33.78 259.409 33.5 258.623 33.5C257.836 33.5 257.223 33.78 256.783 34.34C256.343 34.9 256.123 35.7133 256.123 36.78C256.123 37.8333 256.343 38.6467 256.783 39.22C257.223 39.78 257.836 40.06 258.623 40.06ZM272.356 31.32V33.92H272.016C270.976 33.92 270.129 34.2067 269.476 34.78V42H266.836V33.88L266.396 31.56H269.036L269.296 32.94C269.736 32.34 270.136 31.92 270.496 31.68C270.856 31.44 271.256 31.32 271.696 31.32H272.356ZM46.66 58.34C47.4467 58.34 48.14 58.5667 48.74 59.02C49.3533 59.46 49.8267 60.0867 50.16 60.9C50.5067 61.7 50.68 62.6267 50.68 63.68C50.68 64.72 50.48 65.6667 50.08 66.52C49.68 67.36 49.1267 68.0267 48.42 68.52C47.7267 69 46.94 69.24 46.06 69.24C44.9933 69.24 44.0467 69.02 43.22 68.58V73.64H40.58V60.88L40.14 58.56H42.56L42.98 60.04C43.46 59.4933 44.02 59.0733 44.66 58.78C45.3 58.4867 45.9667 58.34 46.66 58.34ZM45.52 67.06C47.1067 67.06 47.9 65.9467 47.9 63.72C47.9 62.6933 47.74 61.9 47.42 61.34C47.1133 60.78 46.66 60.5 46.06 60.5C45.1 60.5 44.1533 60.9667 43.22 61.9V66.74C44.0733 66.9533 44.84 67.06 45.52 67.06ZM59.953 69L59.693 67.74C58.7463 68.74 57.6063 69.24 56.273 69.24C55.2196 69.24 54.3596 68.9667 53.693 68.42C53.0396 67.8733 52.713 67.1533 52.713 66.26C52.713 65.1 53.1396 64.2 53.993 63.56C54.8596 62.9067 56.1063 62.58 57.733 62.58C58.3196 62.58 58.9063 62.6067 59.493 62.66V62.28C59.493 61.6933 59.3263 61.26 58.993 60.98C58.6596 60.6867 58.133 60.54 57.413 60.54C56.7063 60.54 56.0463 60.66 55.433 60.9C54.833 61.1267 54.1796 61.5 53.473 62.02V59.66C54.0863 59.1933 54.7263 58.8533 55.393 58.64C56.0596 58.4267 56.793 58.32 57.593 58.32C59.073 58.32 60.1996 58.64 60.973 59.28C61.7596 59.9067 62.153 60.8267 62.153 62.04V66.68L62.593 69H59.953ZM55.353 66.06C55.353 66.8333 55.793 67.22 56.673 67.22C57.1796 67.22 57.6596 67.12 58.113 66.92C58.5663 66.7067 59.0263 66.3733 59.493 65.92V64.5H57.573C56.7996 64.5 56.233 64.6133 55.873 64.84C55.5263 65.0667 55.353 65.4733 55.353 66.06ZM70.7345 58.32V60.92H70.3945C69.3545 60.92 68.5079 61.2067 67.8545 61.78V69H65.2145V60.88L64.7745 58.56H67.4145L67.6745 59.94C68.1145 59.34 68.5145 58.92 68.8745 58.68C69.2345 58.44 69.6345 58.32 70.0745 58.32H70.7345ZM76.493 58.56H78.893V60.52H76.493V65.56C76.493 66.5733 76.8796 67.08 77.653 67.08C78.013 67.08 78.433 66.9533 78.913 66.7V68.88C78.5796 69 78.2663 69.0867 77.973 69.14C77.693 69.2067 77.373 69.24 77.013 69.24C74.9063 69.24 73.853 68.0133 73.853 65.56V60.52H72.333V58.56H73.853V55.76L76.493 54.84V58.56ZM84.5008 58.56H86.9008V60.52H84.5008V65.56C84.5008 66.5733 84.8874 67.08 85.6608 67.08C86.0208 67.08 86.4408 66.9533 86.9208 66.7V68.88C86.5874 69 86.2741 69.0867 85.9808 69.14C85.7008 69.2067 85.3808 69.24 85.0208 69.24C82.9141 69.24 81.8608 68.0133 81.8608 65.56V60.52H80.3408V58.56H81.8608V55.76L84.5008 54.84V58.56ZM90.6086 57C90.1553 57 89.7686 56.8467 89.4486 56.54C89.1286 56.2333 88.9686 55.8333 88.9686 55.34C88.9686 54.8467 89.1286 54.4467 89.4486 54.14C89.7686 53.8333 90.1553 53.68 90.6086 53.68C91.0619 53.68 91.4486 53.8333 91.7686 54.14C92.0886 54.4467 92.2486 54.8467 92.2486 55.34C92.2486 55.8333 92.0886 56.2333 91.7686 56.54C91.4486 56.8467 91.0619 57 90.6086 57ZM91.9286 58.56V69H89.2886V58.58L91.9286 58.56ZM107.114 58.32C108.114 58.32 108.914 58.6333 109.514 59.26C110.127 59.8733 110.434 60.6867 110.434 61.7V69H107.794V63.2C107.794 62.2933 107.674 61.6467 107.434 61.26C107.194 60.86 106.794 60.66 106.234 60.66C105.554 60.66 104.854 61.04 104.134 61.8V69H101.494V63.2C101.494 62.2933 101.374 61.6467 101.134 61.26C100.894 60.86 100.494 60.66 99.9341 60.66C99.2541 60.66 98.5541 61.04 97.8341 61.8V69H95.1941V60.88L94.7541 58.56H97.1741L97.5541 59.9C98.0874 59.34 98.6141 58.94 99.1341 58.7C99.6541 58.4467 100.214 58.32 100.814 58.32C101.481 58.32 102.067 58.4733 102.574 58.78C103.094 59.0733 103.487 59.48 103.754 60C104.314 59.4 104.854 58.9733 105.374 58.72C105.907 58.4533 106.487 58.32 107.114 58.32ZM123.223 64.58H115.963C116.069 65.38 116.363 65.9933 116.843 66.42C117.336 66.8467 117.989 67.06 118.803 67.06C119.403 67.06 120.049 66.9533 120.743 66.74C121.449 66.5133 122.103 66.2067 122.703 65.82H122.783V67.96C122.249 68.3733 121.636 68.6933 120.943 68.92C120.263 69.1333 119.543 69.24 118.783 69.24C117.689 69.24 116.736 69.02 115.923 68.58C115.109 68.14 114.483 67.5067 114.043 66.68C113.603 65.8533 113.383 64.8867 113.383 63.78C113.383 62.7 113.589 61.7467 114.003 60.92C114.429 60.0933 115.023 59.4533 115.783 59C116.543 58.5467 117.423 58.32 118.423 58.32C119.396 58.32 120.243 58.54 120.963 58.98C121.696 59.42 122.256 60.0533 122.643 60.88C123.029 61.7067 123.223 62.6733 123.223 63.78V64.58ZM118.423 60.44C117.796 60.44 117.269 60.6467 116.843 61.06C116.429 61.4733 116.149 62.0467 116.003 62.78H120.503C120.396 62.02 120.169 61.44 119.823 61.04C119.476 60.64 119.009 60.44 118.423 60.44ZM127.295 63.78C127.295 63.02 127.422 62.3933 127.675 61.9C127.928 61.3933 128.235 61 128.595 60.72C128.955 60.4267 129.408 60.1267 129.955 59.82C130.542 59.4867 130.968 59.1933 131.235 58.94C131.515 58.6733 131.655 58.3133 131.655 57.86C131.655 57.2733 131.395 56.82 130.875 56.5C130.368 56.1667 129.695 56 128.855 56C127.588 56 126.362 56.38 125.175 57.14H125.095V54.78C126.255 54.0467 127.562 53.68 129.015 53.68C130.015 53.68 130.915 53.84 131.715 54.16C132.515 54.48 133.148 54.9533 133.615 55.58C134.095 56.2067 134.335 56.9667 134.335 57.86C134.335 58.5 134.215 59.04 133.975 59.48C133.735 59.9067 133.442 60.2533 133.095 60.52C132.748 60.7733 132.302 61.0467 131.755 61.34C131.142 61.6733 130.682 61.98 130.375 62.26C130.082 62.54 129.935 62.9133 129.935 63.38V63.92H127.295V63.78ZM128.595 69.24C128.102 69.24 127.682 69.08 127.335 68.76C127.002 68.4267 126.835 67.9933 126.835 67.46C126.835 66.9267 127.002 66.5 127.335 66.18C127.682 65.8467 128.102 65.68 128.595 65.68C129.088 65.68 129.502 65.8467 129.835 66.18C130.182 66.5 130.355 66.9267 130.355 67.46C130.355 67.9933 130.182 68.4267 129.835 68.76C129.502 69.08 129.088 69.24 128.595 69.24Z" fill="white"/>
</svg>
