
<svg width="59" height="144" viewBox="0 0 59 144" fill="none" xmlns="http://www.w3.org/2000/svg">
<mask id="mask0_618_1645" style="mask-type:alpha" maskUnits="userSpaceOnUse" x="-66" y="19" width="106" height="106">
<circle cx="-13.1342" cy="71.8661" r="51.6868" transform="rotate(58.1563 -13.1342 71.8661)" fill="#D9D9D9" stroke="#5E17EB"/>
</mask>
<g mask="url(#mask0_618_1645)">
<mask id="mask1_618_1645" style="mask-type:alpha" maskUnits="userSpaceOnUse" x="-90" y="-6" width="153" height="156">
<rect x="1.14119" y="-3.75565" width="113.16" height="104.05" transform="rotate(58.1563 1.14119 -3.75565)" fill="#D9D9D9" stroke="#5E17EB" stroke-width="3"/>
</mask>
<g mask="url(#mask1_618_1645)">
<line x1="-0.569622" y1="-24.0594" x2="-84.2136" y2="128.359" stroke="#5E17EB" stroke-width="2"/>
<line x1="6.90401" y1="-20.4075" x2="-76.74" y2="132.011" stroke="#5E17EB" stroke-width="2"/>
<line x1="14.3776" y1="-16.7549" x2="-69.2664" y2="135.663" stroke="#5E17EB" stroke-width="2"/>
<line x1="21.8513" y1="-13.1013" x2="-61.7927" y2="139.317" stroke="#5E17EB" stroke-width="2"/>
<line x1="29.3249" y1="-9.44981" x2="-54.3191" y2="142.969" stroke="#5E17EB" stroke-width="2"/>
<line x1="36.7985" y1="-5.79674" x2="-46.8455" y2="146.622" stroke="#5E17EB" stroke-width="2"/>
<line x1="44.2722" y1="-2.14476" x2="-39.3718" y2="150.274" stroke="#5E17EB" stroke-width="2"/>
<line x1="51.7448" y1="1.50832" x2="-31.8992" y2="153.927" stroke="#5E17EB" stroke-width="2"/>
<line x1="59.2185" y1="5.16139" x2="-24.4256" y2="157.58" stroke="#5E17EB" stroke-width="2"/>
<line x1="66.6921" y1="8.81337" x2="-16.9519" y2="161.232" stroke="#5E17EB" stroke-width="2"/>
<line x1="74.1657" y1="12.4664" x2="-9.47829" y2="164.885" stroke="#5E17EB" stroke-width="2"/>
<line x1="81.6394" y1="16.1195" x2="-2.00466" y2="168.538" stroke="#5E17EB" stroke-width="2"/>
<line x1="89.113" y1="19.771" x2="5.46897" y2="172.189" stroke="#5E17EB" stroke-width="2"/>
<line x1="96.5866" y1="23.4246" x2="12.9426" y2="175.843" stroke="#5E17EB" stroke-width="2"/>
<line x1="104.06" y1="27.0761" x2="20.4162" y2="179.494" stroke="#5E17EB" stroke-width="2"/>
<line x1="111.533" y1="30.729" x2="27.8889" y2="183.147" stroke="#5E17EB" stroke-width="2"/>
<line x1="119.007" y1="34.3822" x2="35.3625" y2="186.801" stroke="#5E17EB" stroke-width="2"/>
</g>
</g>
</svg>
