
<svg width="302" height="301" viewBox="0 0 302 301" fill="none" xmlns="http://www.w3.org/2000/svg">
<g opacity="0.44">
<path d="M-108.941 175.063L-128 198.789L-51.4873 260.25C-51.5002 259.262 -51.5132 258.274 -51.5113 257.117C-50.1936 257.234 -49.0692 257.34 -47.9025 257.445C-47.9221 258.624 -47.924 259.781 -47.9544 261.024C-49.0013 260.871 -49.9814 260.736 -51.0528 260.563L-42.0801 267.771C-42.0938 267.687 -42.083 267.623 -42.079 267.518C-40.7966 267.679 -39.7566 267.79 -38.5409 267.934C-38.524 268.817 -38.5002 269.741 -38.4764 270.665L-29.2586 278.07C-29.0407 278.1 -28.8475 278.11 -28.612 278.118C-28.6091 278.266 -28.6063 278.413 -28.6212 278.582L4.96502 305.561C4.98012 303.835 5.00604 302.045 5.02796 300.361C6.97459 300.548 9.28332 300.737 11.2967 300.942C11.2804 302.921 11.2549 305.363 11.2455 307.383C9.73163 307.108 7.86656 306.769 6.0682 306.447L14.3299 313.083C14.3198 312.242 14.3165 311.443 14.3269 310.727C16.4491 310.947 19.1091 311.201 21.3579 311.414C21.1917 313.127 20.9946 315.431 20.7879 317.547C20.4612 317.501 20.1168 317.478 19.7724 317.455L24.847 321.531C27.0822 321.661 29.2085 321.776 31.2081 321.898C30.5134 323.114 30.1905 324.52 30.2405 325.864L38.0854 332.166C38.9647 332.075 39.7989 331.84 40.5322 331.379C42.9649 329.857 44.0312 326.622 42.5143 323.991C41.6461 322.461 40.0469 320.886 38.4579 320.153C36.9179 319.459 34.9689 319.777 33.1135 319.626C34.6768 316.826 34.5468 313.825 31.8769 311.173C29.1826 308.502 26.1172 308.502 22.8759 310.026C24.9508 306.841 25.0194 305.701 23.6117 301.528C27.9472 303.563 30.7457 303.493 32.9465 301.205C34.7623 299.296 35.1614 295.887 33.3302 293.547C32.2294 292.156 30.478 290.821 28.8319 290.26C27.2349 289.737 25.3976 290.217 23.7452 290.265C25.3427 287.674 25.4085 286.387 23.9819 282.489C24.4693 282.736 24.9146 282.985 25.3286 283.173C28.2997 284.545 31.2682 284.214 33.1575 282.364C35.0999 280.448 35.3427 277.384 33.7603 274.484C33.5722 274.115 33.4086 273.767 33.2382 273.376L33.2519 273.46C30.4024 270.881 27.3446 270.018 23.638 271.82C25.6124 269.061 25.7195 266.467 23.9421 263.157C27.3658 265.472 30.2909 265.396 33.1102 263.895L33.0082 263.921C35.1667 261.636 35.942 258.963 34.245 255.754C32.4227 252.298 28.9617 251.184 24.8259 252.315C25.0572 250.22 25.3318 247.87 25.5996 245.477C27.9213 246.654 30.3754 246.562 32.7009 245.424C35.4553 242.748 35.8954 239.589 33.9373 236.604C31.8674 233.457 28.834 232.614 24.0681 233.927C26.0836 231.418 25.9523 228.669 24.3779 225.558C25.0969 225.918 25.5598 226.145 25.9983 226.352C29.2077 227.88 32.4619 227.344 34.2339 225.038C36.0058 222.731 35.7435 219.443 33.6427 216.886C31.5978 214.411 28.4692 213.636 25.4196 214.771C24.8984 214.968 24.3009 214.959 23.7415 215.052C26.1127 213.155 26.5283 209.976 24.7839 207.127C22.8024 203.869 19.4641 202.853 15.1554 204.1C15.4949 202.924 16.1406 201.668 16.175 200.32C16.2026 198.93 15.6434 197.467 15.3061 195.929C15.8426 196.215 16.3546 196.481 16.8843 196.725C19.8867 198.16 23.1341 197.582 24.8707 195.319C26.6427 193.013 26.398 189.702 24.2442 187.212C22.1394 184.76 18.9618 183.946 16.0525 185.158C15.5558 185.374 14.9964 185.468 14.4439 185.604C16.7832 182.993 17.2615 179.937 15.203 177.378C14.1021 175.987 12.2936 174.824 10.6515 174.157C8.9918 173.511 7.11071 173.594 6.13055 173.458C7.13264 171.909 7.52136 169.216 5.42577 166.302C3.19392 163.205 0.21129 162.801 -3.19802 163.43C-1.85814 160.306 -2.05898 157.392 -4.70829 154.866C-7.3331 152.359 -10.3346 152.229 -12.7159 153.286C-12.5228 151.087 -12.3109 148.614 -12.103 146.246C-8.20077 147.715 -5.31949 147.241 -3.56403 144.705C-2.03156 142.495 -2.2352 139.435 -4.05948 137.137C-5.98866 134.718 -9.22376 133.423 -11.7357 134.592C-13.2365 135.305 -14.6771 136.647 -15.3062 138.133C-15.9246 139.555 -15.4345 141.506 -15.4187 142.641C-17.8471 142.501 -20.3423 142.344 -22.2576 142.217C-22.1284 140.149 -21.9627 137.783 -21.8323 135.462C-17.9763 137.038 -15.0351 136.54 -13.2443 133.959C-11.6411 131.662 -11.9428 128.523 -13.9359 126.234C-16.0652 123.763 -19.2251 122.927 -21.9372 124.043C-25.0016 125.348 -25.9252 128.155 -24.9097 132.012C-27.4049 131.854 -30.0511 131.684 -32.4374 131.542C-31.0902 129.111 -31.1006 126.061 -33.8331 123.287C-36.4607 120.633 -39.5289 120.486 -42.9213 121.998C-40.815 118.874 -40.6743 115.836 -43.2586 112.927C-45.9164 109.96 -49.1288 109.842 -52.5457 111.334C-52.1909 110.641 -51.9571 110.249 -51.7478 109.838C-50.8209 107.831 -50.8605 105.771 -51.7588 103.927L-58.7776 112.665C-57.1098 113.099 -55.4112 112.943 -53.9839 112.17C-54.2682 114.331 -54.5605 116.704 -54.8584 118.782C-56.7138 118.631 -59.0647 118.445 -61.1134 118.284C-61.1413 117.465 -61.1406 116.56 -61.1889 115.616L-65.6795 121.206C-65.2085 121.223 -64.7552 121.261 -64.3019 121.299C-64.3905 122.966 -64.4952 125.055 -64.5959 127.038C-66.2471 126.834 -68.0495 126.617 -69.8097 126.398L-74.6539 132.429C-74.6968 133.336 -74.7329 134.285 -74.7758 135.192C-75.3448 135.097 -75.9805 134.984 -76.6163 134.872L-108.652 174.753C-107.654 174.866 -106.681 174.96 -105.623 175.049C-105.663 176.104 -105.717 177.074 -105.757 178.128C-106.797 178.017 -107.735 177.879 -108.841 177.751C-108.901 176.87 -108.918 175.988 -108.941 175.063ZM-99.0419 187.795C-99.0765 186.935 -99.1124 186.326 -99.151 185.571C-98.2866 185.65 -97.4467 185.709 -96.4979 185.783C-96.5368 186.585 -96.5649 187.323 -96.5861 188.102C-97.4573 187.982 -98.153 187.894 -99.0419 187.795ZM-89.3981 180.007C-89.4492 178.916 -89.4867 177.908 -89.5407 176.67C-88.4231 176.735 -87.3477 176.802 -86.1879 176.865C-86.2497 178.046 -86.2829 179.142 -86.3242 180.449C-87.48 180.281 -88.4179 180.143 -89.3981 180.007ZM-80.1356 171.841C-80.1543 170.558 -80.1797 169.234 -80.1875 167.888C-78.7609 168.02 -77.4431 168.137 -75.9076 168.285C-75.9557 169.549 -75.9901 170.898 -76.0571 172.437C-77.413 172.217 -78.6953 172.056 -80.1356 171.841ZM-70.4729 163.778C-70.4875 162.391 -70.505 160.856 -70.5184 159.216C-68.874 159.378 -67.2718 159.542 -65.6695 159.707C-65.7011 161.202 -65.7367 162.803 -65.7478 164.424C-67.2303 164.21 -68.7972 164.002 -70.4729 163.778ZM-89.5441 198.466C-89.5297 197.645 -89.5438 196.909 -89.5363 196.046C-88.5276 196.096 -87.5856 196.129 -86.577 196.179C-86.56 197.061 -86.5635 197.819 -86.5437 198.849C-87.5239 198.713 -88.4618 198.575 -89.5441 198.466ZM-80.0393 190.35C-80.0945 189.364 -80.1673 188.4 -80.2429 187.289C-79.0341 187.391 -77.8675 187.495 -76.5076 187.61C-76.6008 188.73 -76.6613 189.659 -76.7151 190.63C-77.815 190.543 -78.8482 190.473 -80.0393 190.35ZM-70.4622 182.544C-70.474 181.304 -70.4857 180.063 -70.5072 178.634C-69.1473 178.748 -67.7452 178.861 -66.3254 178.951C-66.3843 180.28 -66.4256 181.586 -66.4885 183.02C-67.7464 182.879 -69.0954 182.701 -70.4622 182.544ZM-60.7959 169.958C-59.2849 170.086 -57.7072 170.231 -56.0029 170.369C-56.0453 171.928 -56.0878 173.487 -56.1302 175.046C-57.6127 174.833 -59.1796 174.624 -60.7955 174.377C-60.8032 173.03 -60.8138 171.537 -60.7959 169.958ZM-89.5373 217.338C-89.572 216.477 -89.6106 215.722 -89.6276 214.839C-88.7318 214.979 -87.9695 215.085 -87.1404 215.207C-87.1548 216.029 -87.1652 216.745 -87.1796 217.566C-87.9596 217.482 -88.6729 217.416 -89.5373 217.338ZM-79.8774 209.128C-79.8904 208.14 -79.9142 207.216 -79.9448 206.25C-78.9293 206.341 -77.9805 206.415 -76.8561 206.522C-76.8677 207.49 -76.8684 208.395 -76.8526 209.53C-77.9839 209.382 -78.8551 209.261 -79.8774 209.128ZM-70.2461 201.004C-70.2169 200.014 -70.1985 199.087 -70.1761 198.055C-69.1007 198.122 -68.092 198.172 -66.89 198.232C-66.9301 199.287 -66.9947 200.321 -67.028 201.417C-68.1347 201.288 -69.157 201.155 -70.2461 201.004ZM-60.8132 193.228C-60.8073 191.965 -60.8191 190.725 -60.816 189.315C-59.3472 189.445 -58.005 189.582 -56.6029 189.694C-56.655 191.064 -56.6826 192.454 -56.7347 193.825C-58.1328 193.607 -59.4818 193.429 -60.8132 193.228ZM-51.1048 180.64C-49.5938 180.767 -48.0406 180.892 -46.3961 181.055C-46.4277 182.55 -46.4457 184.129 -46.4744 185.772C-48.0413 185.563 -49.615 185.313 -51.1397 185.102C-51.1189 183.67 -51.105 182.197 -51.1048 180.64ZM-80.0258 228.092C-80.0319 227.146 -80.0392 226.452 -80.0317 225.589C-79.1496 225.646 -78.3097 225.705 -77.3187 225.777C-77.3262 226.64 -77.3475 227.419 -77.3727 228.304C-78.2126 228.245 -78.9681 228.181 -80.0258 228.092ZM-70.2393 219.876C-70.2768 218.868 -70.3006 217.944 -70.3027 216.892C-69.2695 216.961 -68.2364 217.031 -67.1119 217.137C-67.152 218.191 -67.1813 219.182 -67.2008 220.361C-68.3566 220.193 -69.2347 220.031 -70.2393 219.876ZM-60.6747 211.735C-60.6523 210.702 -60.5986 209.732 -60.5762 208.7C-59.3497 208.78 -58.2389 208.803 -56.928 208.878C-56.9408 210.099 -56.9278 211.087 -56.9297 212.244C-58.1699 212.081 -59.3502 211.893 -60.6747 211.735ZM-51.1318 203.721C-51.1721 202.566 -51.2084 201.306 -51.2583 199.962C-49.8562 200.074 -48.4296 200.206 -46.8941 200.353C-46.9382 201.513 -46.9686 202.756 -47.0275 204.085C-48.4541 203.953 -49.7473 203.855 -51.1318 203.721ZM-41.498 191.326C-39.9448 191.451 -38.3004 191.613 -36.6628 191.734C-36.6984 193.335 -36.7272 194.977 -36.7696 196.537C-38.2521 196.323 -39.8612 196.117 -41.5193 195.872C-41.5162 194.462 -41.5091 192.947 -41.498 191.326ZM-70.4476 238.864C-70.4429 237.854 -70.453 237.013 -70.4523 236.108C-69.4613 236.18 -68.5969 236.259 -67.5814 236.35C-67.5821 237.255 -67.5719 238.096 -67.5807 239.212C-68.4941 239.093 -69.4076 238.975 -70.4476 238.864ZM-60.7387 230.694C-60.7408 229.642 -60.7538 228.654 -60.7695 227.519C-59.6275 227.603 -58.5275 227.69 -57.3433 227.772C-57.3765 228.868 -57.4166 229.922 -57.4538 231.124C-58.694 230.96 -59.6496 230.845 -60.7387 230.694ZM-51.0121 222.502C-51.017 221.303 -51.022 220.104 -51.0406 218.822C-49.5963 218.932 -48.3453 219.031 -47.0698 219.151C-47.1002 220.394 -47.1306 221.637 -47.1759 223.049C-48.4406 222.866 -49.6385 222.7 -51.0121 222.502ZM-41.4338 214.444C-41.368 213.157 -41.3022 211.87 -41.2718 210.627C-39.8942 210.72 -38.601 210.817 -37.1813 210.908C-37.2294 212.172 -37.2638 213.521 -37.3404 214.872C-38.7071 214.715 -40.0494 214.578 -41.4338 214.444ZM-31.9363 201.867C-30.3341 202.032 -28.6475 202.192 -26.9608 202.352C-27.0004 204.058 -27.0115 205.679 -27.0295 207.257C-28.5963 207.049 -30.3388 206.808 -32.0146 206.584C-31.9585 205.109 -31.9474 203.488 -31.9363 201.867ZM-60.8979 249.722C-60.9177 248.692 -60.9551 247.684 -60.9573 246.632C-59.7239 246.754 -58.7506 246.848 -57.7106 246.959C-57.733 247.991 -57.7799 249.003 -57.8132 250.099C-58.86 249.946 -59.8157 249.831 -60.8979 249.722ZM-51.2203 241.49C-51.243 240.313 -51.2451 239.261 -51.25 238.062C-50.0657 238.145 -48.8991 238.249 -47.5392 238.364C-47.5696 239.607 -47.6029 240.702 -47.6265 241.987C-48.7822 241.819 -49.9557 241.673 -51.2203 241.49ZM-41.4938 233.298C-41.4879 232.035 -41.4643 230.751 -41.472 229.405C-40.1121 229.519 -38.7522 229.634 -37.3079 229.744C-37.3395 231.24 -37.3808 232.546 -37.4152 233.895C-38.7466 233.694 -40.078 233.494 -41.4938 233.298ZM-31.8556 225.216C-31.8075 223.951 -31.7485 222.622 -31.7033 221.21C-30.3679 221.305 -29.008 221.42 -27.6481 221.535C-27.5776 223.003 -27.5521 224.327 -27.4953 225.713C-28.8621 225.557 -30.2955 225.383 -31.8556 225.216ZM-22.2435 216.715C-22.3072 215.287 -22.3708 213.86 -22.4168 212.411C-20.8077 212.617 -19.2232 212.804 -17.6141 213.01C-17.6485 214.358 -17.6938 215.77 -17.7676 217.268C-19.3521 217.082 -20.7679 216.886 -22.2435 216.715ZM-12.8173 203.574C-10.9864 203.705 -9.00439 203.848 -7.23337 204.004C-7.31919 205.818 -7.39534 207.82 -7.47832 209.782C-9.03434 209.509 -10.8572 209.168 -12.5467 208.861C-12.6541 207.036 -12.7263 205.168 -12.8173 203.574ZM-41.7482 252.394C-41.7423 251.131 -41.7364 249.869 -41.7442 248.523C-40.6374 248.651 -39.5062 248.8 -38.2306 248.919C-38.2052 250.243 -38.1826 251.42 -38.1149 252.742C-39.2394 252.635 -40.4059 252.531 -41.7482 252.394ZM-31.9212 243.776C-31.9575 242.515 -32.0115 241.277 -32.0329 239.848C-30.6171 240.043 -29.3593 240.185 -28.0102 240.363C-27.9711 241.771 -27.9388 243.136 -27.9065 244.502C-29.2202 244.28 -30.5585 244.037 -31.9212 243.776ZM-22.2055 235.647C-22.2542 234.051 -22.307 232.56 -22.3421 231.047C-20.8311 231.175 -19.2779 231.3 -17.7247 231.425C-17.7467 233.109 -17.7754 234.752 -17.7797 236.414C-19.1601 236.174 -20.6494 235.92 -22.2055 235.647ZM-13.0382 227.549C-12.9576 226.093 -12.9043 224.47 -12.8089 222.845C-11.1958 222.946 -9.3894 223.057 -7.62523 223.17C-7.73438 224.712 -7.88974 226.362 -8.01374 228.073C-9.72488 227.893 -11.3938 227.711 -13.0382 227.549ZM-3.52238 214.046C-1.51588 214.209 0.708441 214.402 2.58152 214.531C2.48486 216.409 2.40472 218.517 2.28637 220.522C0.561561 220.259 -1.48997 219.951 -3.5415 219.643C-3.55092 217.897 -3.54148 215.877 -3.52238 214.046ZM-32.2491 262.813C-32.2746 261.489 -32.3177 260.187 -32.3569 258.779C-31.0215 258.874 -29.6861 258.969 -28.3262 259.084C-28.3156 260.577 -28.2873 262.048 -28.2835 263.5C-29.5727 263.297 -30.9109 263.055 -32.2491 262.813ZM-22.9799 254.688C-22.9415 253.234 -22.9099 251.738 -22.8743 250.138C-21.3633 250.265 -19.7257 250.385 -18.1303 250.508C-18.159 252.151 -18.1701 253.771 -18.2126 255.331C-19.7127 255.14 -21.3041 254.911 -22.9799 254.688ZM-13.2601 246.454C-13.2354 244.917 -13.1958 243.21 -13.1738 241.526C-11.4872 241.686 -9.67401 241.839 -7.903 241.994C-7.92894 243.784 -7.9372 245.552 -7.95913 247.236C-9.64174 246.971 -11.4509 246.712 -13.2601 246.454ZM-23.301 273.766C-23.2558 272.354 -23.231 270.817 -23.1777 269.194C-21.6 269.339 -20.0645 269.486 -18.4691 269.609C-18.4762 271.124 -18.4696 272.723 -18.4915 274.407C-19.9985 274.174 -21.6498 273.97 -23.301 273.766ZM-13.5459 265.489C-13.5212 263.951 -13.4747 262.287 -13.4528 260.602C-11.7662 260.762 -10.0129 260.94 -8.25952 261.117C-8.29512 262.718 -8.30338 264.485 -8.35383 266.255C-10.0365 265.99 -11.8034 265.73 -13.5459 265.489ZM-3.74581 257.356C-3.7062 255.649 -3.68309 253.712 -3.64348 252.006C-1.76356 252.176 0.200744 252.342 2.01396 252.495C1.93898 254.245 1.86285 256.248 1.78388 258.104C-0.0498376 257.826 -1.96113 257.594 -3.74581 257.356ZM5.98339 243.336C8.0566 243.516 10.383 243.683 12.2629 243.853C12.1908 245.751 12.1134 248.006 12.0333 250.114C10.2594 249.812 8.04999 249.45 5.99163 249.1C5.98622 247.249 5.97513 245.103 5.98339 243.336ZM-13.8847 284.589C-13.856 282.947 -13.8096 281.282 -13.7808 279.639C-11.9676 279.792 -10.172 279.967 -8.55212 280.11C-8.5849 281.858 -8.59316 283.625 -8.59057 285.329C-10.2664 285.106 -12.0755 284.848 -13.8847 284.589ZM-4.07379 276.392C-4.02734 274.728 -3.99056 272.874 -3.96462 271.085C-2.08471 271.255 -0.0605248 271.396 1.66829 271.554C1.63151 273.407 1.54853 275.369 1.48723 277.202C-0.26209 276.92 -2.2224 276.649 -4.07379 276.392ZM-4.46163 295.454C-4.42887 293.706 -4.38123 291.789 -4.34163 290.082C-2.37732 290.248 -0.328634 290.409 1.43554 290.523C1.36741 292.315 1.29809 294.359 1.25047 296.276C-0.64995 295.981 -2.61024 295.71 -4.46163 295.454ZM5.31798 287.196C5.34392 285.406 5.35735 283.28 5.39413 281.427C7.38296 281.612 9.63179 281.825 11.5784 282.013C11.5171 283.847 11.4466 286.144 11.4018 288.208C9.54361 287.91 7.37634 287.545 5.31798 287.196ZM21.8506 292.473C20.6883 294.473 20.4968 297.071 21.9413 299.39C19.5494 298.953 16.9152 298.467 14.6499 298.023C14.6975 296.106 14.7298 293.706 14.7666 291.852C16.9065 292.05 19.4575 292.289 21.8506 292.473ZM21.69 273.442C21.6873 275.504 21.6579 278.051 21.6621 280.155C19.797 279.816 17.2295 279.346 15.0554 278.94C15.0962 276.981 15.1177 274.645 15.1368 272.813C17.1991 273.058 19.6835 273.279 21.69 273.442ZM22.4467 254.424C21.2775 256.381 21.1283 258.977 22.4502 261.198C20.1495 260.798 17.6065 260.349 15.4324 259.942C15.4242 257.944 15.4348 255.671 15.4225 253.778C17.5203 253.979 20.0468 254.198 22.4467 254.424ZM11.8996 262.934C11.8451 264.81 11.7855 267.043 11.7161 269.088C9.8579 268.79 7.67297 268.447 5.7235 268.112C5.74261 266.281 5.74522 264.219 5.74665 262.41C7.75998 262.615 10.0265 262.806 11.8996 262.934ZM22.2889 235.54C22.1078 237.422 21.9107 239.726 21.7257 241.714C19.888 241.541 17.6323 241.286 15.5101 241.066C15.6517 239.333 15.834 237.198 15.962 235.382C18.0147 235.438 20.3451 235.499 22.2889 235.54ZM23.6571 215.057C23.134 216.411 22.2774 217.678 22.1899 219.093C22.0836 220.782 22.6798 222.6 22.915 224.165C20.6772 222.332 17.8634 221.918 15.5568 222.781C15.5646 220.361 15.5764 217.836 15.5733 215.48C18.1265 216.77 21.1245 217.658 23.6571 215.057ZM12.5122 225.115C12.35 226.723 12.101 228.841 11.8806 230.872C10.0851 230.698 7.89613 230.46 6.03389 230.268C6.00397 228.397 5.95755 226.296 5.93045 224.572C7.97915 224.733 10.3722 224.917 12.5122 225.115ZM2.3094 233.649C2.28747 235.333 2.25753 237.229 2.2521 239.143C0.418384 238.865 -1.5419 238.594 -3.52672 238.304C-3.45293 236.806 -3.37797 235.055 -3.30701 233.41C-1.46528 233.478 0.552058 233.577 2.3094 233.649ZM12.7843 205.997C12.7326 208.02 12.661 210.569 12.6093 212.592C10.6422 212.279 8.19041 211.867 6.04766 211.522C6.07761 209.626 6.09907 207.29 6.11534 205.311C8.1532 205.536 10.662 205.777 12.7843 205.997ZM14.2466 185.699C12.8765 188.509 11.6154 191.334 14.1551 194.75C11.3523 192.716 8.51108 192.136 6.12293 193.151C6.17976 190.77 6.19154 188.245 6.22785 185.739C8.67091 187.267 11.5595 187.487 14.2466 185.699ZM3.07546 195.338C2.97196 197.174 2.83074 199.559 2.70438 201.775C0.972738 201.47 -1.26124 201.088 -3.38631 200.721C-3.42308 198.808 -3.43413 196.663 -3.43954 194.812C-1.34865 194.97 1.09346 195.194 3.07546 195.338ZM4.0512 176.097C2.55127 178.115 2.55598 180.871 3.92979 183.278C1.7175 182.768 -0.670415 182.226 -2.7316 181.729C-2.84592 179.863 -2.98641 177.577 -3.10756 175.669C-1.0235 175.786 1.55604 175.939 4.0512 176.097ZM-6.89974 185.261C-6.89032 187.007 -6.89292 189.068 -6.89834 190.983C-8.6545 190.659 -10.6285 190.304 -12.4759 189.943C-12.5343 188.158 -12.6201 186.206 -12.6609 184.399C-10.8517 184.657 -8.77565 184.985 -6.89974 185.261ZM-17.1624 193.819C-17.1353 195.543 -17.1435 197.31 -17.1273 199.098C-18.754 198.914 -20.5564 198.697 -22.2675 198.517C-22.2661 196.708 -22.247 194.877 -22.2319 193.151C-20.5806 193.354 -18.8381 193.595 -17.1624 193.819ZM-6.448 166.07C-6.38672 168.002 -6.30612 170.312 -6.26652 172.371C-8.2023 172.12 -10.6159 171.811 -12.5762 171.54C-12.5736 169.478 -12.5835 167.08 -12.5741 165.06C-10.8179 165.384 -8.52404 165.742 -6.448 166.07ZM-15.9961 174.441C-16.082 176.256 -16.2151 178.43 -16.3335 180.435C-18.1427 180.177 -20.1942 179.869 -22.179 179.578C-22.1953 177.79 -22.2172 175.709 -22.2403 173.88C-20.2515 174.065 -17.9183 174.274 -15.9961 174.441ZM-26.3472 183.11C-26.4113 184.796 -26.4971 186.61 -26.5761 188.466C-28.1851 188.26 -30.061 187.984 -31.8702 187.726C-31.8837 186.086 -31.8754 184.318 -31.8848 182.572C-30.0049 182.742 -28.1005 182.932 -26.3472 183.11ZM-15.4315 155.16C-15.5253 157.185 -15.6215 159.715 -15.7085 161.781C-17.6933 161.491 -20.1628 161.1 -22.1898 160.812C-22.1912 158.855 -22.1697 156.519 -22.1643 154.604C-20.0489 154.782 -17.4625 154.977 -15.4315 155.16ZM-25.6981 163.824C-25.8153 165.576 -25.9445 167.645 -26.0913 169.736C-27.7249 169.51 -29.7764 169.202 -31.7858 168.892C-31.798 166.999 -31.8485 165.003 -31.8647 163.215C-29.8936 163.423 -27.6447 163.636 -25.6981 163.824ZM-36.0491 172.492C-36.1064 174.22 -36.15 176.032 -36.1897 177.738C-37.8478 177.493 -39.6746 177.256 -41.4662 176.976C-41.4619 175.314 -41.4958 173.548 -41.4916 171.886C-39.6892 172.103 -37.827 172.295 -36.0491 172.492ZM-25.0274 144.41C-25.1417 146.31 -25.3223 148.845 -25.4732 151.041C-27.3069 150.763 -29.7518 150.392 -31.8279 150.064C-31.8293 148.108 -31.8568 145.732 -31.8554 143.923C-29.6379 144.074 -27.0094 144.267 -25.0274 144.41ZM-35.3402 153.182C-35.4642 154.892 -35.5866 157.003 -35.7294 158.989C-37.4719 158.748 -39.4989 158.459 -41.417 158.186C-41.4715 156.295 -41.5111 154.236 -41.5558 152.534C-39.5847 152.741 -37.3958 152.979 -35.3402 153.182ZM-45.7648 161.791C-45.7976 163.539 -45.848 165.309 -45.9053 167.037C-47.5389 166.811 -49.3481 166.553 -51.1573 166.294C-51.157 164.738 -51.1351 163.053 -51.1582 161.224C-49.4648 161.426 -47.627 161.598 -45.7648 161.791ZM-34.8218 134.008C-34.8939 135.905 -34.9616 138.35 -35.0309 140.394C-37.0824 140.086 -39.4783 139.755 -41.6388 139.431C-41.5433 137.806 -41.3964 135.715 -41.2616 133.941C-39.198 133.933 -36.8078 133.97 -34.8218 134.008ZM-45.0382 142.458C-45.1485 144.253 -45.2709 146.363 -45.3784 148.305C-47.1209 148.064 -49.1901 147.778 -51.1082 147.504C-51.1626 145.614 -51.2022 143.554 -51.2116 141.808C-49.1983 142.013 -46.9426 142.268 -45.0382 142.458ZM-55.3961 151.085C-55.4357 152.791 -55.4793 154.603 -55.5297 156.373C-57.1633 156.147 -58.9902 155.911 -60.7994 155.652C-60.8128 154.012 -60.8222 152.266 -60.8317 150.521C-59.0116 150.715 -57.1916 150.91 -55.3961 151.085ZM-44.453 123.302C-44.686 124.998 -44.9919 127.287 -45.3007 129.429C-47.1806 129.258 -49.4471 129.067 -51.3447 128.919C-51.2276 127.166 -51.063 125.053 -50.9487 123.154C-48.8538 123.207 -46.3968 123.261 -44.453 123.302ZM-54.6273 131.75C-54.7444 133.503 -54.8845 135.635 -55.0205 137.663C-56.8474 137.426 -58.9166 137.14 -60.8524 136.889C-60.8823 135.018 -60.911 132.895 -60.9096 131.085C-58.9139 131.312 -56.5984 131.543 -54.6273 131.75ZM-65.0028 140.399C-65.0669 142.085 -65.1282 143.919 -65.1718 145.731C-66.8299 145.485 -68.6813 145.229 -70.5082 144.993C-70.5421 143.227 -70.5829 141.42 -70.6209 139.76C-68.6919 139.97 -66.8052 140.182 -65.0028 140.399ZM-75.2232 148.954C-75.2902 150.494 -75.3435 152.117 -75.4144 153.762C-76.9813 153.553 -78.5904 153.347 -80.1994 153.141C-80.2032 151.689 -80.2029 150.133 -80.1987 148.47C-78.6387 148.637 -76.9344 148.775 -75.2232 148.954ZM-85.528 157.515C-85.5733 158.927 -85.6363 160.361 -85.6992 161.795C-86.8795 161.608 -88.0774 161.442 -89.4333 161.222C-89.5147 159.817 -89.5686 158.578 -89.6186 157.235C-88.241 157.327 -86.9056 157.422 -85.528 157.515ZM-99.2141 169.732C-99.2151 168.428 -99.224 167.335 -99.2358 166.094C-98.1536 166.203 -97.0714 166.312 -95.8802 166.436C-95.8821 167.593 -95.8418 168.748 -95.8477 170.01C-96.9898 169.926 -98.072 169.817 -99.2141 169.732Z" fill="#CB6CE6" fill-opacity="0.34"/>
<path d="M32.9733 263.965C34.4975 263.524 35.9984 262.811 37.6018 262.722C40.2846 262.596 42.905 264.556 44.0393 267.061C45.1804 269.607 44.6611 272.412 42.7199 274.076C40.7079 275.827 37.9789 276.061 35.3699 274.69C34.6264 274.31 33.9292 273.822 33.2211 273.398L33.2347 273.482C30.9128 270.096 30.7309 266.908 33.0686 263.897L32.9733 263.965Z" fill="#CB6CE6" fill-opacity="0.34"/>
<path d="M32.6301 245.512C35.7865 243.34 39.0965 242.885 42.7859 245.523L42.7722 245.439C45.3996 249.65 45.5976 252.416 43.4213 254.724C41.2805 256.987 37.7361 257.182 34.8803 255.214C32.1647 253.322 31.0625 249.974 32.2147 247.134C32.4457 246.595 32.5433 246.022 32.7076 245.466C32.6831 245.446 32.6301 245.512 32.6301 245.512Z" fill="#CB6CE6" fill-opacity="0.34"/>
<path d="M42.9502 293.019C38.5417 295.344 35.3549 294.993 32.7364 291.876C30.5934 289.322 30.5256 285.791 32.5712 283.596C34.6522 281.356 38.0809 281.105 40.9338 282.926C43.7201 284.73 45.0048 288.152 43.8703 290.97C43.5822 291.68 43.2029 292.353 42.8658 293.024L42.9502 293.019Z" fill="#CB6CE6" fill-opacity="0.34"/>
<path d="M5.89846 155.42C3.88299 157.929 -0.272639 158.031 -3.15462 155.643C-6.0366 153.256 -6.66149 149.314 -4.53994 146.673C-2.36535 143.965 1.71673 143.804 4.69677 146.271C7.63462 148.739 8.14377 152.624 5.89846 155.42Z" fill="#CB6CE6" fill-opacity="0.34"/>
<path d="M4.88255 156.885C6.82047 154.422 10.8849 154.283 13.764 156.524C16.7236 158.865 17.4505 162.78 15.378 165.461C13.3055 168.141 9.33514 168.464 6.34025 166.167C3.17375 163.732 2.55569 159.832 4.88255 156.885Z" fill="#CB6CE6" fill-opacity="0.34"/>
<path d="M41.2021 302.477C44.144 304.84 44.7865 308.76 42.6895 311.421C40.5394 314.148 36.4397 314.331 33.4596 311.865C30.5531 309.457 29.995 305.533 32.1587 302.889C34.3048 300.268 38.2534 300.072 41.2021 302.477Z" fill="#CB6CE6" fill-opacity="0.34"/>
<path d="M34.3728 205.885C32.318 208.544 28.3477 208.867 25.3596 206.611C22.298 204.297 21.526 200.237 23.6339 197.512C25.7594 194.766 29.8278 194.521 32.8433 196.943C35.7674 199.329 36.4277 203.227 34.3728 205.885Z" fill="#CB6CE6" fill-opacity="0.34"/>
<path d="M43.6052 235.716C41.4238 238.381 37.2995 238.545 34.3617 236.076C31.4974 233.667 30.9147 229.722 33.0431 227.123C35.2245 224.457 39.3488 224.294 42.2866 226.763C45.1754 229.192 45.7336 233.116 43.6052 235.716Z" fill="#CB6CE6" fill-opacity="0.34"/>
<path d="M24.861 176.301C22.6904 178.902 18.7594 179.076 15.8039 176.63C12.8974 174.222 12.3039 170.342 14.5098 167.696C16.6804 165.094 20.6113 164.921 23.5669 167.367C26.4489 169.755 27.0247 173.657 24.861 176.301Z" fill="#CB6CE6" fill-opacity="0.34"/>
<path d="M34.9321 217.089C31.9481 214.728 31.2878 210.83 33.427 208.167C35.5662 205.504 39.4904 205.288 42.4636 207.713C45.3387 210.059 45.9785 213.831 43.9413 216.468C41.8335 219.193 37.9162 219.45 34.9321 217.089Z" fill="#CB6CE6" fill-opacity="0.34"/>
<path d="M42.7615 245.503C41.4134 242.863 40.9052 240.282 42.7616 237.971C44.8478 235.374 48.6739 235.08 51.553 237.32C54.4989 239.578 55.272 243.386 53.3615 246.015C51.3802 248.733 47.6658 249.189 44.6561 247.061C43.9833 246.593 43.3921 245.974 42.7302 245.442C42.7479 245.42 42.7615 245.503 42.7615 245.503Z" fill="#CB6CE6" fill-opacity="0.34"/>
<path d="M44.2259 265.472C41.2595 263.09 40.6061 259.233 42.7698 256.59C44.9091 253.927 48.8401 253.753 51.7711 256.18C54.6217 258.506 55.2438 262.301 53.1998 264.896C51.1027 267.556 47.21 267.833 44.2259 265.472Z" fill="#CB6CE6" fill-opacity="0.34"/>
<path d="M42.8667 293.024C45.4413 291.978 48.0437 291.751 50.6179 293.818C53.5107 296.142 54.2171 299.932 52.2153 302.525C50.2027 305.181 46.3658 305.539 43.4336 303.365C40.4278 301.131 39.5663 297.434 41.4387 294.701C41.8493 294.089 42.4247 293.574 42.9021 292.98C42.9511 293.019 42.8667 293.024 42.8667 293.024Z" fill="#CB6CE6" fill-opacity="0.34"/>
<path d="M34.4719 186.882C32.3082 189.525 28.3772 189.699 25.4394 187.23C22.6064 184.882 22.0442 181.063 24.1549 178.486C26.3186 175.842 30.2741 175.688 33.1875 178.137C36.0204 180.485 36.6003 184.282 34.4719 186.882Z" fill="#CB6CE6" fill-opacity="0.34"/>
<path d="M51.4608 275.195C54.385 277.58 54.9364 281.463 52.7304 284.108C50.5598 286.71 46.6152 286.801 43.6774 284.332C40.8621 281.962 40.3489 278.182 42.4351 275.585C44.5989 272.942 48.5298 272.768 51.4608 275.195Z" fill="#CB6CE6" fill-opacity="0.34"/>
<path d="M35.1486 197.89C32.3402 195.561 31.7711 191.7 33.8465 189.167C35.9749 186.568 40.0216 186.451 42.8682 188.882C45.6168 191.235 46.1259 195.12 44.0016 197.614C41.9017 200.128 37.9816 200.238 35.1486 197.89Z" fill="#CB6CE6" fill-opacity="0.34"/>
<path d="M-12.5968 126.224C-15.4406 123.939 -16.0763 120.061 -14.0255 117.508C-11.9461 114.869 -7.91307 114.669 -5.02426 117.098C-2.21582 119.426 -1.66448 123.309 -3.76434 125.823C-5.83969 128.356 -9.75298 128.508 -12.5968 126.224Z" fill="#CB6CE6" fill-opacity="0.34"/>
<path d="M23.4254 148.714C26.2446 150.978 26.8695 154.92 24.8364 157.451C22.8032 159.983 18.8546 160.178 15.9686 157.896C13.1562 155.673 12.5244 151.69 14.5576 149.159C16.6152 146.647 20.6061 146.449 23.4254 148.714Z" fill="#CB6CE6" fill-opacity="0.34"/>
<path d="M6.06327 147.079C3.47147 145.034 2.91729 141.004 4.91508 138.517C6.96591 135.963 10.8832 135.706 13.7447 137.969C16.6061 140.231 17.3018 144.085 15.3 146.677C13.1322 149.426 9.20125 149.6 6.06327 147.079Z" fill="#CB6CE6" fill-opacity="0.34"/>
<path d="M-2.94757 136.908C-5.77368 134.601 -6.42709 130.745 -4.37626 128.192C-2.27239 125.573 1.76065 125.372 4.62496 127.782C7.43339 130.11 7.98473 133.993 5.88487 136.507C3.78501 139.02 -0.103775 139.192 -2.94757 136.908Z" fill="#CB6CE6" fill-opacity="0.34"/>
<path d="M44.6095 227.687C41.7657 225.403 41.0701 221.549 43.0964 218.976C45.1757 216.337 49.202 216.095 52.0839 218.482C54.8924 220.811 55.5036 224.669 53.4282 227.203C51.3774 229.756 47.4533 229.971 44.6095 227.687Z" fill="#CB6CE6" fill-opacity="0.34"/>
<path d="M62.0011 294.308C59.9611 296.797 55.9035 296.978 53.1441 294.689C50.3847 292.4 49.8129 288.392 51.9019 285.942C53.9379 283.558 57.8689 283.384 60.5901 285.57C63.3848 287.815 64.0411 291.819 62.0011 294.308Z" fill="#CB6CE6" fill-opacity="0.34"/>
<path d="M62.1555 256.809C59.9507 259.202 55.9012 259.172 53.2302 256.773C50.5837 254.394 50.1914 250.313 52.4099 248.003C54.6106 245.715 58.5512 245.73 61.1664 248.048C63.8551 250.425 64.3425 254.438 62.1555 256.809Z" fill="#CB6CE6" fill-opacity="0.34"/>
<path d="M62.3294 275.271C60.2962 277.802 56.2387 277.983 53.4548 275.674C50.6709 273.366 50.0813 269.38 52.188 266.908C54.2172 264.482 58.1482 264.308 60.8939 266.514C63.7308 268.757 64.3802 272.718 62.3294 275.271Z" fill="#CB6CE6" fill-opacity="0.34"/>
<path d="M62.9755 237.913C60.9641 240.317 56.9242 240.475 54.2452 238.287C51.4681 236.02 50.8934 231.865 53.0206 229.518C55.1056 227.174 59.1347 227.079 61.7607 229.333C64.422 231.543 64.9693 235.531 62.9755 237.913Z" fill="#CB6CE6" fill-opacity="0.34"/>
<path d="M61.6773 313.24C59.7571 315.681 55.7553 315.942 52.9811 313.822C50.1755 311.641 49.4987 307.513 51.521 305.045C53.5325 302.642 57.5479 302.463 60.2446 304.63C62.9658 306.815 63.6397 310.797 61.6773 313.24Z" fill="#CB6CE6" fill-opacity="0.34"/>
<path d="M35.6276 178.865C32.9309 176.699 32.2815 172.737 34.1772 170.277C36.1505 167.77 40.3278 167.541 43.045 169.832C45.6887 172.064 46.2959 176.028 44.3266 178.43C42.3397 180.853 38.3243 181.032 35.6276 178.865Z" fill="#CB6CE6" fill-opacity="0.34"/>
<path d="M53.5653 208.303C51.4096 210.735 47.2825 210.751 44.6115 208.352C42.0072 205.971 41.5579 202.061 43.6253 199.739C45.781 197.306 49.9081 197.29 52.5791 199.689C55.2011 202.048 55.6327 205.98 53.5653 208.303Z" fill="#CB6CE6" fill-opacity="0.34"/>
<path d="M25.673 168.009C22.9775 165.59 22.5853 161.509 24.786 159.221C26.9868 156.934 30.9941 156.966 33.5671 159.286C36.2626 161.705 36.6548 165.786 34.4541 168.074C32.2533 170.362 28.2637 170.307 25.673 168.009Z" fill="#CB6CE6" fill-opacity="0.34"/>
<path d="M63.3351 218.685C61.4217 221.168 57.3955 221.41 54.6743 219.224C51.9531 217.038 51.3037 213.076 53.2906 210.653C55.2245 208.296 59.082 208.063 61.7827 210.124C64.5324 212.224 65.2662 216.181 63.3351 218.685Z" fill="#CB6CE6" fill-opacity="0.34"/>
<path d="M6.141 117.158C4.20992 119.662 0.250416 119.922 -2.47764 117.694C-5.14982 115.548 -5.80723 111.797 -3.9115 109.336C-1.98042 106.832 1.97907 106.572 4.70712 108.8C7.36163 110.969 8.01904 114.719 6.141 117.158Z" fill="#CB6CE6" fill-opacity="0.34"/>
<path d="M71.6122 286.059C69.4006 288.411 65.4953 288.352 62.9087 285.948C60.3888 283.562 60.0336 279.836 62.1322 277.575C64.3438 275.224 68.2491 275.283 70.8357 277.686C73.3556 280.073 73.7108 283.798 71.6122 286.059Z" fill="#CB6CE6" fill-opacity="0.34"/>
<path d="M45.4451 189.54C42.6463 187.4 41.9615 183.483 43.9593 180.996C45.8864 178.597 49.6771 178.347 52.4269 180.447C55.2256 182.586 55.9104 186.504 53.9126 188.991C51.9855 191.39 48.1948 191.64 45.4451 189.54Z" fill="#CB6CE6" fill-opacity="0.34"/>
<path d="M71.9339 266.981C69.7468 269.352 65.7993 269.295 63.2548 266.889C60.7173 264.525 60.3375 260.78 62.4362 258.519C64.6233 256.148 68.5708 256.204 71.1152 258.61C73.6596 261.016 74.0149 264.742 71.9339 266.981Z" fill="#CB6CE6" fill-opacity="0.34"/>
<path d="M-3.62151 106.564C-5.60846 108.988 -9.36383 109.194 -12.085 107.008C-14.8975 104.785 -15.4665 100.924 -13.3775 98.4741C-11.3415 96.0902 -7.57245 95.9674 -4.8866 98.1973C-2.24294 100.429 -1.65224 104.163 -3.62151 106.564Z" fill="#CB6CE6" fill-opacity="0.34"/>
<path d="M15.0898 127.859C12.8782 130.211 8.97293 130.152 6.38631 127.748C3.84189 125.342 3.5112 121.636 5.60989 119.375C7.82148 117.024 11.7268 117.083 14.3134 119.486C16.8578 121.892 17.213 125.618 15.0898 127.859Z" fill="#CB6CE6" fill-opacity="0.34"/>
<path d="M63.6251 248.502C60.9216 246.294 60.3132 242.582 62.2579 240.161C64.2489 237.633 68.1622 237.481 70.9039 239.792C73.5721 242.044 74.0961 245.76 72.0846 248.164C70.1085 250.523 66.3286 250.71 63.6251 248.502Z" fill="#CB6CE6" fill-opacity="0.34"/>
<path d="M16.1582 138.53C13.4872 136.131 13.1291 132.259 15.3544 129.991C17.5198 127.747 21.3338 127.769 23.8822 130.069C26.5532 132.468 26.9113 136.341 24.686 138.609C22.4961 140.833 18.6821 140.811 16.1582 138.53Z" fill="#CB6CE6" fill-opacity="0.34"/>
<path d="M72.4385 228.894C70.4652 231.401 66.8433 231.642 64.0553 229.439C61.2851 227.213 60.6972 223.627 62.695 221.14C64.6643 218.739 68.1596 218.505 70.8917 220.627C73.7395 222.806 74.3872 226.368 72.4385 228.894Z" fill="#CB6CE6" fill-opacity="0.34"/>
<path d="M71.5187 304.705C69.6053 307.187 65.9058 307.474 63.1492 305.332C60.3014 303.153 59.6372 299.361 61.6771 296.872C63.6641 294.448 67.3528 294.225 70.074 296.411C72.7952 298.596 73.4321 302.222 71.5187 304.705Z" fill="#CB6CE6" fill-opacity="0.34"/>
<path d="M26.2032 149.424C23.4643 147.26 22.8029 143.615 24.6917 141.112C26.6582 138.564 30.4666 138.292 33.2682 140.578C35.9717 142.786 36.5664 146.414 34.6108 148.899C32.6062 151.344 28.9421 151.588 26.2032 149.424Z" fill="#CB6CE6" fill-opacity="0.34"/>
<path d="M34.5129 151.681C36.5598 149.234 40.1777 149.098 42.9194 151.409C45.6298 153.659 46.1156 157.272 44.0021 159.702C42.0015 162.042 38.4434 162.153 35.7644 159.965C33.0363 157.737 32.4906 154.149 34.5129 151.681Z" fill="#CB6CE6" fill-opacity="0.34"/>
<path d="M63.4912 199.511C61.5179 202.017 57.896 202.258 55.1081 200.055C52.3378 197.83 51.7499 194.243 53.7477 191.756C55.717 189.355 59.2123 189.121 61.9444 191.243C64.7922 193.422 65.44 196.984 63.4912 199.511Z" fill="#CB6CE6" fill-opacity="0.34"/>
<path d="M80.2234 269.113C82.9132 271.238 83.5365 274.78 81.6761 277.197C79.745 279.701 76.0564 279.925 73.3283 277.697C70.6983 275.548 70.1173 272.004 72.0443 269.605C73.9714 267.206 77.558 267.009 80.2234 269.113Z" fill="#CB6CE6" fill-opacity="0.34"/>
<path d="M81.6326 258.622C79.7055 261.021 76.1189 261.218 73.4536 259.113C70.6902 256.93 70.1131 253.279 72.1423 250.854C74.1007 248.516 77.6941 248.361 80.3486 250.529C83.0208 252.676 83.5596 256.223 81.6326 258.622Z" fill="#CB6CE6" fill-opacity="0.34"/>
<path d="M64.755 210.591C62.125 208.443 61.5861 204.896 63.4955 202.519C65.458 200.075 69.1603 199.935 71.853 202.207C74.4231 204.38 74.9021 207.951 72.9436 210.289C70.9784 212.585 67.385 212.74 64.755 210.591Z" fill="#CB6CE6" fill-opacity="0.34"/>
<path d="M52.7118 161.664C55.4575 163.87 56.0032 167.459 53.9564 169.906C51.9979 172.244 48.4467 172.397 45.7745 170.25C43.0288 168.045 42.4831 164.456 44.5299 162.008C46.4884 159.671 50.0396 159.518 52.7118 161.664Z" fill="#CB6CE6" fill-opacity="0.34"/>
<path d="M79.8706 288.131C82.5536 290.213 83.2014 293.775 81.3832 296.19C79.4943 298.692 75.788 298.937 73.0668 296.751C70.4191 294.625 69.838 291.08 71.7229 288.683C73.6078 286.286 77.2297 286.046 79.8706 288.131Z" fill="#CB6CE6" fill-opacity="0.34"/>
<path d="M62.3421 172.37C64.9653 174.477 65.5355 178.086 63.6438 180.441C61.7521 182.796 58.0988 182.975 55.4756 180.868C52.8525 178.761 52.2823 175.153 54.174 172.798C56.048 170.465 59.719 170.263 62.3421 172.37Z" fill="#CB6CE6" fill-opacity="0.34"/>
<path d="M80.6346 231.495C83.2401 233.624 83.8103 237.232 81.8941 239.567C79.9778 241.903 76.3245 242.082 73.719 239.953C71.1136 237.824 70.5434 234.216 72.4596 231.88C74.3758 229.545 78.0291 229.366 80.6346 231.495Z" fill="#CB6CE6" fill-opacity="0.34"/>
<path d="M-3.25746 90.3448C-1.33439 88.0512 2.43464 87.9285 4.93805 90.0842C7.48365 92.2377 7.96544 95.9561 5.98651 98.1686C4.06745 100.357 0.442703 100.451 -2.04019 98.42C-4.61432 96.3522 -5.18053 92.6384 -3.25746 90.3448Z" fill="#CB6CE6" fill-opacity="0.34"/>
<path d="M36.2479 140.836C33.6738 138.768 33.0762 134.993 34.9639 132.743C36.8163 130.537 40.4696 130.358 42.9878 132.345C45.562 134.412 46.1595 138.187 44.2718 140.437C42.4263 142.684 38.7485 142.844 36.2479 140.836Z" fill="#CB6CE6" fill-opacity="0.34"/>
<path d="M33.4618 121.759C36.0251 123.891 36.5491 127.607 34.6192 129.859C32.6716 132.133 28.8957 132.214 26.3923 130.058C23.938 127.942 23.459 124.37 25.2623 122.125C27.1363 119.792 30.8985 119.628 33.4618 121.759Z" fill="#CB6CE6" fill-opacity="0.34"/>
<path d="M23.7315 110.975C26.3302 113.062 26.9562 116.752 25.04 119.087C23.1237 121.422 19.4037 121.584 16.816 119.433C14.3262 117.361 13.7207 113.796 15.5172 111.51C17.3844 109.135 21.0907 108.89 23.7315 110.975Z" fill="#CB6CE6" fill-opacity="0.34"/>
<path d="M15.7734 108.782C13.8572 111.117 10.1304 111.238 7.54257 109.086C4.97929 106.955 4.47295 103.217 6.44505 100.963C8.33959 98.7548 11.982 98.639 14.5071 100.667C17.1058 102.755 17.6896 106.447 15.7734 108.782Z" fill="#CB6CE6" fill-opacity="0.34"/>
<path d="M82.2082 220.447C80.4294 222.712 76.7231 222.957 74.1872 220.992C71.5777 218.969 70.9311 215.154 72.8365 212.883C74.6888 210.677 78.3843 210.495 80.8849 212.504C83.3855 214.512 84.0047 218.16 82.2082 220.447Z" fill="#CB6CE6" fill-opacity="0.34"/>
<path d="M52.7169 143.129C55.2243 145.179 55.766 148.874 53.9381 151.099C52.0926 153.346 48.3481 153.489 45.8652 151.458C43.3578 149.408 42.8161 145.713 44.644 143.488C46.4895 141.241 50.2095 141.079 52.7169 143.129Z" fill="#CB6CE6" fill-opacity="0.34"/>
<path d="M65.1847 191.528C62.6841 189.519 62.0649 185.871 63.8192 183.587C65.651 181.256 69.4908 181.045 72.0295 183.157C74.4948 185.21 75.0541 188.882 73.2263 191.107C71.3808 193.354 67.6853 193.536 65.1847 191.528Z" fill="#CB6CE6" fill-opacity="0.34"/>
<path d="M62.264 153.84C64.8137 155.888 65.3485 159.54 63.454 161.748C61.5948 163.912 58.0612 164.043 55.6097 162.073C53.0601 160.025 52.5252 156.373 54.4198 154.165C56.279 152.001 59.8125 151.87 62.264 153.84Z" fill="#CB6CE6" fill-opacity="0.34"/>
<path d="M90.7967 306.865C88.9934 309.11 85.2802 309.314 82.7973 307.284C80.3144 305.253 79.7305 301.561 81.6074 299.375C83.4244 297.214 86.9933 297.039 89.438 298.966C91.9739 300.931 92.6177 304.598 90.7967 306.865Z" fill="#CB6CE6" fill-opacity="0.34"/>
<path d="M91.3814 268.88C89.5113 271.107 85.7668 271.25 83.3193 269.175C80.8472 267.081 80.3654 263.362 82.2491 261.218C84.1151 259.096 87.7154 258.982 90.1424 260.932C92.6675 262.96 93.2514 266.652 91.3814 268.88Z" fill="#CB6CE6" fill-opacity="0.34"/>
<path d="M83.2056 288.347C80.6697 286.383 80.0191 282.673 81.8401 280.406C83.6611 278.139 87.3742 277.936 89.8817 279.986C92.3155 281.977 92.9143 285.5 91.2198 287.76C89.4901 290.064 85.7415 290.312 83.2056 288.347Z" fill="#CB6CE6" fill-opacity="0.34"/>
<path d="M83.4565 250.527C80.9736 248.496 80.4319 244.802 82.2665 242.619C84.1611 240.411 87.8879 240.29 90.2933 242.367C92.6741 244.425 93.2061 247.93 91.4559 250.109C89.6594 252.396 85.9393 252.558 83.4565 250.527Z" fill="#CB6CE6" fill-opacity="0.34"/>
<path d="M74.4812 201.747C71.9493 199.677 71.4036 196.089 73.3404 193.878C75.1995 191.714 78.6909 191.586 81.1493 193.597C83.6812 195.667 84.2269 199.256 82.2901 201.466C80.431 203.63 76.9396 203.758 74.4812 201.747Z" fill="#CB6CE6" fill-opacity="0.34"/>
<path d="M73.0334 172.268C71.1879 174.515 67.83 174.678 65.298 172.608C62.7906 170.558 62.2683 167.241 64.1315 164.972C65.977 162.725 69.3349 162.561 71.8668 164.632C74.3742 166.682 74.8966 169.998 73.0334 172.268Z" fill="#CB6CE6" fill-opacity="0.34"/>
<path d="M91.6255 231.017C89.78 233.265 86.3799 233.43 83.8479 231.36C81.3405 229.31 80.8113 225.952 82.6745 223.682C84.52 221.435 87.9202 221.269 90.4521 223.339C92.9663 225.432 93.471 228.77 91.6255 231.017Z" fill="#CB6CE6" fill-opacity="0.34"/>
<path d="M56.0718 142.819C53.6625 140.847 53.147 137.572 54.8972 135.393C56.672 133.234 59.9878 133.073 62.4148 135.023C64.8241 136.994 65.3396 140.269 63.5894 142.448C61.8391 144.627 58.4812 144.79 56.0718 142.819Z" fill="#CB6CE6" fill-opacity="0.34"/>
<path d="M91.9267 211.814C90.1656 214.056 86.9303 214.318 84.4257 212.415C81.8407 210.411 81.2516 207.077 83.0726 204.81C84.8406 202.609 88.1318 202.428 90.601 204.376C93.0948 206.343 93.6457 209.573 91.9267 211.814Z" fill="#CB6CE6" fill-opacity="0.34"/>
<path d="M6.17261 78.6556C4.42917 80.8763 1.16929 81.1184 -1.31077 79.2348C-3.87123 77.2505 -4.46029 73.9167 -2.63929 71.6497C-0.84682 69.4684 2.40221 69.29 4.87143 71.2373C7.32298 73.2066 7.89837 76.457 6.17261 78.6556Z" fill="#CB6CE6" fill-opacity="0.34"/>
<path d="M54.0605 131.715C52.2994 133.958 49.064 134.22 46.5594 132.317C43.9745 130.313 43.3854 126.979 45.2064 124.712C46.9744 122.511 50.2656 122.33 52.7348 124.277C55.2285 126.244 55.7794 129.475 54.0605 131.715Z" fill="#CB6CE6" fill-opacity="0.34"/>
<path d="M82.8668 182.52C81.0744 184.702 77.8008 184.86 75.3493 182.891C72.8242 180.863 72.3372 177.502 74.2317 175.294C76.0556 173.174 79.3605 173.077 81.7766 175.09C84.1928 177.104 84.6593 180.339 82.8668 182.52Z" fill="#CB6CE6" fill-opacity="0.34"/>
<path d="M25.0498 99.7938C23.2111 102.083 19.8463 102.204 17.3076 100.093C14.8914 98.0794 14.4249 94.844 16.2105 92.621C18.0492 90.3321 21.414 90.2104 23.9527 92.3222C26.3758 94.3772 26.8599 97.5905 25.0498 99.7938Z" fill="#CB6CE6" fill-opacity="0.34"/>
<path d="M33.5772 102.986C36.1091 105.056 36.547 108.378 34.5926 110.61C32.7511 112.752 29.4639 112.827 27.0232 110.794C24.5158 108.744 24.0533 105.403 26.0077 103.171C27.8316 101.051 31.1188 100.975 33.5772 102.986Z" fill="#CB6CE6" fill-opacity="0.34"/>
<path d="M101.11 241.605C99.3351 243.764 95.988 243.864 93.5787 241.892C91.1693 239.921 90.7137 236.622 92.4885 234.463C94.2633 232.303 97.6104 232.204 100.02 234.175C102.411 236.169 102.909 239.466 101.11 241.605Z" fill="#CB6CE6" fill-opacity="0.34"/>
<path d="M99.6823 271.853C102.116 273.844 102.625 277.077 100.839 279.3C99.0005 281.589 95.6113 281.691 93.1147 279.577C90.7162 277.542 90.2919 274.304 92.1266 272.121C93.9436 269.959 97.2239 269.842 99.6823 271.853Z" fill="#CB6CE6" fill-opacity="0.34"/>
<path d="M93.2579 260.971C90.824 258.98 90.3153 255.747 92.101 253.524C93.922 251.257 97.3289 251.133 99.8255 253.247C102.224 255.283 102.648 258.52 100.814 260.704C98.9789 262.887 95.6986 263.004 93.2579 260.971Z" fill="#CB6CE6" fill-opacity="0.34"/>
<path d="M14.6364 81.9775C17.1438 84.0278 17.5818 87.349 15.6696 89.5789C13.8458 91.6987 10.5831 91.7937 8.12468 89.7827C5.61727 87.7323 5.17931 84.4113 7.09153 82.1814C8.93303 80.0395 12.1957 79.9445 14.6364 81.9775Z" fill="#CB6CE6" fill-opacity="0.34"/>
<path d="M100.511 298.337C98.7427 300.538 95.4515 300.719 92.9823 298.772C90.415 296.746 89.9103 293.407 91.7981 291.158C93.615 288.996 96.8954 288.879 99.3538 290.89C101.812 292.901 102.321 296.134 100.511 298.337Z" fill="#CB6CE6" fill-opacity="0.34"/>
<path d="M36.5982 121.419C34.1261 119.325 33.7304 116.001 35.7093 113.789C37.5821 111.708 40.8762 111.675 43.2992 113.73C45.7712 115.824 46.167 119.147 44.1881 121.36C42.2976 123.462 39.0212 123.474 36.5982 121.419Z" fill="#CB6CE6" fill-opacity="0.34"/>
<path d="M73.1966 153.134C71.4394 155.272 67.9658 155.378 65.634 153.36C63.3757 151.401 62.9024 148.124 64.631 146.073C66.3881 143.936 69.8863 143.849 72.1936 145.847C74.4273 147.786 74.9006 151.063 73.1966 153.134Z" fill="#CB6CE6" fill-opacity="0.34"/>
<path d="M101.459 222.441C99.822 224.529 96.4532 224.756 94.1134 222.949C91.7245 221.103 91.1258 217.58 92.8721 215.507C94.583 213.477 97.9586 213.292 100.245 215.165C102.55 217.016 103.097 220.352 101.459 222.441Z" fill="#CB6CE6" fill-opacity="0.34"/>
<path d="M84.7567 193.273C82.4169 191.466 81.7611 188.114 83.3494 185.986C84.9663 183.773 88.5038 183.536 90.8818 185.447C93.2108 187.317 93.7577 190.654 92.1203 192.742C90.5075 194.85 87.121 195.099 84.7567 193.273Z" fill="#CB6CE6" fill-opacity="0.34"/>
<path d="M81.6183 156.459C83.8982 158.29 84.4411 161.732 82.7723 163.759C81.086 165.808 77.6123 165.915 75.3677 164.039C73.1898 162.181 72.6812 158.948 74.241 156.906C75.8783 154.817 79.3383 154.627 81.6183 156.459Z" fill="#CB6CE6" fill-opacity="0.34"/>
<path d="M101.95 264.26C103.685 262.25 107.159 262.143 109.368 264.063C111.602 266.002 112.036 269.428 110.269 271.377C108.538 273.281 105.233 273.378 103.044 271.584C100.75 269.669 100.232 266.247 101.95 264.26Z" fill="#CB6CE6" fill-opacity="0.34"/>
<path d="M110.429 289.756C108.859 291.862 105.406 292.093 103.066 290.286C100.768 288.477 100.166 285.06 101.827 282.991C103.419 281.01 106.721 280.766 109.022 282.47C111.355 284.235 112.042 287.648 110.429 289.756Z" fill="#CB6CE6" fill-opacity="0.34"/>
<path d="M110.041 308.817C108.404 310.906 104.986 311.093 102.699 309.22C100.486 307.406 99.9352 304.175 101.537 302.131C103.175 300.042 106.592 299.855 108.879 301.728C111.092 303.542 111.619 306.753 110.041 308.817Z" fill="#CB6CE6" fill-opacity="0.34"/>
<path d="M103.481 252.562C101.141 250.755 100.588 247.377 102.25 245.308C103.883 243.325 107.125 243.105 109.416 244.873C111.756 246.68 112.309 250.058 110.648 252.127C109.014 254.11 105.772 254.33 103.481 252.562Z" fill="#CB6CE6" fill-opacity="0.34"/>
<path d="M27.6574 91.6774C25.3843 89.8877 24.7981 86.7009 26.3511 84.617C27.9571 82.467 31.3504 82.2597 33.6616 84.1525C35.8994 85.9862 36.4257 89.1973 34.7992 91.2222C33.1727 93.247 29.9482 93.4451 27.6574 91.6774Z" fill="#CB6CE6" fill-opacity="0.34"/>
<path d="M36.0878 95.1905C37.7144 93.1657 40.9389 92.9676 43.2542 94.755C45.6008 96.6038 46.13 99.962 44.4014 102.013C42.7258 103.999 39.4455 104.116 37.2077 102.282C34.9632 100.407 34.4613 97.2154 36.0878 95.1905Z" fill="#CB6CE6" fill-opacity="0.34"/>
<path d="M54.0135 112.594C52.3448 114.621 49.1312 114.755 46.8689 112.902C44.6066 111.048 44.1293 107.877 45.798 105.849C47.4668 103.822 50.6804 103.688 52.9427 105.541C55.2294 107.414 55.7068 110.586 54.0135 112.594Z" fill="#CB6CE6" fill-opacity="0.34"/>
<path d="M101.577 203.415C99.9011 205.401 96.6698 205.557 94.4144 203.745C92.0854 201.874 91.6161 198.492 93.376 196.502C95.1006 194.556 98.3878 194.48 100.566 196.339C102.768 198.216 103.228 201.41 101.577 203.415Z" fill="#CB6CE6" fill-opacity="0.34"/>
<path d="M73.3183 133.751C71.6456 135.884 68.6321 136.07 66.2786 134.18C64.0232 132.368 63.5201 129.429 65.1222 127.385C66.7949 125.252 69.8084 125.065 72.1619 126.956C74.3996 128.79 74.9203 131.706 73.3183 133.751Z" fill="#CB6CE6" fill-opacity="0.34"/>
<path d="M62.458 116.191C64.8047 118.04 65.3282 121.103 63.6487 123.194C61.9691 125.285 58.8644 125.435 56.5531 123.542C54.3153 121.708 53.8123 118.769 55.3898 116.705C57.038 114.553 60.1114 114.342 62.458 116.191Z" fill="#CB6CE6" fill-opacity="0.34"/>
<path d="M5.77958 59.7631C4.13538 61.8099 1.18172 61.9721 -1.09138 60.1824C-3.46254 58.3139 -3.93703 55.2894 -2.19076 53.2158C-0.515211 51.2304 2.44526 51.1099 4.70752 52.9633C6.98746 54.7947 7.42378 57.7162 5.77958 59.7631Z" fill="#CB6CE6" fill-opacity="0.34"/>
<path d="M110.87 232.969C109.191 235.06 106.11 235.229 103.799 233.337C101.488 231.444 101.031 228.397 102.76 226.346C104.435 224.36 107.413 224.218 109.662 225.988C112.009 227.837 112.55 230.879 110.87 232.969Z" fill="#CB6CE6" fill-opacity="0.34"/>
<path d="M14.5691 63.1312C16.9403 64.9997 17.4569 68.0219 15.7352 70.1151C14.0665 72.1423 11.1128 72.3045 8.83973 70.5148C6.46857 68.6463 5.95188 65.624 7.67363 63.5308C9.32467 61.5257 12.296 61.3415 14.5691 63.1312Z" fill="#CB6CE6" fill-opacity="0.34"/>
<path d="M91.952 173.922C90.3147 176.01 87.1922 176.182 84.8701 174.352C82.548 172.523 82.0421 169.437 83.6795 167.349C85.3168 165.26 88.4393 165.089 90.7614 166.918C93.0659 168.769 93.5894 171.833 91.952 173.922Z" fill="#CB6CE6" fill-opacity="0.34"/>
<path d="M111.076 213.834C109.467 215.837 106.478 216.043 104.223 214.231C101.992 212.439 101.464 209.481 103.091 207.456C104.7 205.453 107.688 205.247 109.944 207.058C112.199 208.87 112.685 211.831 111.076 213.834Z" fill="#CB6CE6" fill-opacity="0.34"/>
<path d="M100.273 177.672C102.571 179.482 103.092 182.399 101.514 184.463C99.8945 186.529 96.9477 186.733 94.6569 184.966C92.3593 183.156 91.8386 180.239 93.4161 178.175C95.0358 176.109 98.0003 175.883 100.273 177.672Z" fill="#CB6CE6" fill-opacity="0.34"/>
<path d="M18.356 81.1631C16.0692 79.29 15.5879 76.2237 17.2497 74.1548C18.9361 72.1057 22.0409 71.9562 24.3453 73.8073C26.6321 75.6805 27.1135 78.7467 25.4516 80.8156C23.772 82.9065 20.6427 83.0362 18.356 81.1631Z" fill="#CB6CE6" fill-opacity="0.34"/>
<path d="M81.7261 137.644C83.9571 139.436 84.4846 142.395 82.8581 144.42C81.2492 146.423 78.2602 146.629 76.0048 144.817C73.7739 143.025 73.2464 140.067 74.8729 138.042C76.4817 136.039 79.4776 135.874 81.7261 137.644Z" fill="#CB6CE6" fill-opacity="0.34"/>
<path d="M118.533 293.477C120.799 295.225 121.358 298.245 119.773 300.267C118.189 302.29 115.133 302.478 112.902 300.686C110.745 298.953 110.207 296.059 111.689 294.063C113.224 292.001 116.266 291.729 118.533 293.477Z" fill="#CB6CE6" fill-opacity="0.34"/>
<path d="M120.407 243.491C118.911 245.404 115.862 245.634 113.701 244.007C111.466 242.32 110.922 239.131 112.52 237.192C114.065 235.319 117.145 235.15 119.254 236.843C121.38 238.515 121.879 241.559 120.407 243.491Z" fill="#CB6CE6" fill-opacity="0.34"/>
<path d="M118.933 274.499C121.164 276.291 121.656 279.294 120.047 281.296C118.414 283.28 115.369 283.405 113.156 281.591C111.034 279.814 110.562 276.936 112.069 274.96C113.629 272.918 116.66 272.709 118.933 274.499Z" fill="#CB6CE6" fill-opacity="0.34"/>
<path d="M120.016 262.658C118.358 264.621 115.306 264.705 113.111 262.868C110.933 261.01 110.567 258.001 112.25 256.057C113.904 254.199 116.829 254.123 118.986 255.856C121.224 257.689 121.674 260.694 120.016 262.658Z" fill="#CB6CE6" fill-opacity="0.34"/>
<path d="M91.3154 148.353C93.4169 150.005 93.9582 153.046 92.5113 154.998C91.0045 156.975 87.78 157.173 85.6158 155.398C83.5497 153.702 83.0683 150.636 84.5888 148.743C86.1161 146.892 89.214 146.701 91.3154 148.353Z" fill="#CB6CE6" fill-opacity="0.34"/>
<path d="M27.9741 72.704C25.904 71.1135 25.3343 68.1573 26.7281 66.2714C28.175 64.3196 31.3083 64.0844 33.3989 65.8C35.4337 67.4345 35.9191 70.3953 34.4762 72.2418C33.051 74.0663 30.0443 74.2945 27.9741 72.704Z" fill="#CB6CE6" fill-opacity="0.34"/>
<path d="M56.057 97.7968C57.5244 95.97 60.5134 95.7638 62.5904 97.396C64.7164 99.0676 65.2046 102.176 63.6351 104.029C62.1187 105.816 59.0915 105.919 57.0744 104.263C55.0505 102.565 54.5896 99.6236 56.057 97.7968Z" fill="#CB6CE6" fill-opacity="0.34"/>
<path d="M101.522 165.423C100.006 167.21 96.9784 167.313 94.9613 165.657C92.8461 163.921 92.4423 160.809 94.0853 159.014C95.693 157.264 98.7094 157.225 100.673 158.947C102.662 160.69 103.045 163.677 101.522 165.423Z" fill="#CB6CE6" fill-opacity="0.34"/>
<path d="M111.252 194.784C109.707 196.657 106.529 196.748 104.48 195.03C102.407 193.292 101.997 190.138 103.597 188.346C105.145 186.62 108.19 186.495 110.2 188.11C112.291 189.825 112.804 192.953 111.252 194.784Z" fill="#CB6CE6" fill-opacity="0.34"/>
<path d="M120.655 224.353C119.201 226.263 116.019 226.459 113.952 224.763C111.942 223.148 111.432 220.168 112.851 218.302C114.304 216.392 117.487 216.196 119.553 217.892C121.546 219.529 122.055 222.509 120.655 224.353Z" fill="#CB6CE6" fill-opacity="0.34"/>
<path d="M37.8574 82.9957C35.7559 81.3439 35.2432 78.2162 36.7704 76.3651C38.2447 74.58 41.2827 74.4132 43.3107 76.006C45.4122 77.6579 45.9249 80.7856 44.3976 82.6367C42.9057 84.4437 39.8853 84.5885 37.8574 82.9957Z" fill="#CB6CE6" fill-opacity="0.34"/>
<path d="M54.0641 93.2985C52.5369 95.1496 49.3654 95.2816 47.3346 93.5417C45.3774 91.8609 44.9274 88.856 46.4016 87.071C47.9289 85.2199 51.1004 85.0878 53.1311 86.8277C55.0884 88.5085 55.5384 91.5134 54.0641 93.2985Z" fill="#CB6CE6" fill-opacity="0.34"/>
<path d="M18.6232 62.1512C16.5571 60.4553 16.1344 57.6172 17.6617 55.7661C19.189 53.915 22.0651 53.7992 24.1312 55.4951C26.1973 57.191 26.62 60.029 25.0927 61.8801C23.5654 63.7312 20.6893 63.8471 18.6232 62.1512Z" fill="#CB6CE6" fill-opacity="0.34"/>
<path d="M73.2531 114.652C71.719 116.461 68.8007 116.579 66.7591 114.903C64.6439 113.168 64.2116 110.141 65.8723 108.325C67.4555 106.555 70.4051 106.498 72.3692 108.22C74.4 109.96 74.7872 112.842 73.2531 114.652Z" fill="#CB6CE6" fill-opacity="0.34"/>
<path d="M129.727 253.982C128.189 255.897 125.415 255.986 123.317 254.229C121.318 252.551 120.929 249.921 122.414 248.072C123.953 246.158 126.727 246.068 128.824 247.826C130.806 249.526 131.212 252.134 129.727 253.982Z" fill="#CB6CE6" fill-opacity="0.34"/>
<path d="M129.438 291.7C127.977 293.568 125.308 293.778 123.196 292.19C121.01 290.543 120.492 287.773 122.005 285.838C123.519 283.904 126.328 283.771 128.444 285.506C130.485 287.182 130.898 289.831 129.438 291.7Z" fill="#CB6CE6" fill-opacity="0.34"/>
<path d="M76.5271 125.538C74.3943 123.825 73.9608 121.051 75.548 119.175C77.0821 117.366 79.7472 117.262 81.8242 118.894C83.957 120.607 84.3905 123.381 82.8034 125.257C81.2692 127.066 78.6041 127.17 76.5271 125.538Z" fill="#CB6CE6" fill-opacity="0.34"/>
<path d="M123.052 273.389C120.961 271.674 120.527 268.899 122.115 267.024C123.684 265.17 126.5 265.079 128.58 266.858C130.562 268.559 130.975 271.208 129.49 273.057C127.969 274.949 125.142 275.105 123.052 273.389Z" fill="#CB6CE6" fill-opacity="0.34"/>
<path d="M9.02838 51.4007C6.91322 49.6655 6.57096 46.9282 8.18263 45.0724C9.72358 43.3047 12.3955 43.2422 14.4372 44.9184C16.5278 46.634 16.8946 49.3909 15.2829 51.2467C13.742 53.0144 11.07 53.0769 9.02838 51.4007Z" fill="#CB6CE6" fill-opacity="0.34"/>
<path d="M120.657 205.271C119.147 207.1 116.489 207.246 114.429 205.592C112.296 203.879 111.912 201.144 113.499 199.268C115.04 197.501 117.712 197.438 119.754 199.114C121.795 200.79 122.166 203.442 120.657 205.271Z" fill="#CB6CE6" fill-opacity="0.34"/>
<path d="M110.15 169.746C112.192 171.422 112.58 174.052 111.053 175.903C109.49 177.798 106.716 177.887 104.629 176.066C102.648 174.365 102.319 171.712 103.878 169.922C105.412 168.112 108.084 168.05 110.15 169.746Z" fill="#CB6CE6" fill-opacity="0.34"/>
<path d="M86.1988 136.094C84.1817 134.438 83.7687 131.788 85.2606 129.981C86.7525 128.174 89.4354 128.048 91.4525 129.704C93.4696 131.361 93.8825 134.01 92.3906 135.817C90.9232 137.644 88.2404 137.77 86.1988 136.094Z" fill="#CB6CE6" fill-opacity="0.34"/>
<path d="M4.61158 34.2024C4.53803 34.1433 4.44681 34.1063 4.37327 34.0472L-0.753815 40.4299C-0.655753 40.5087 -0.599875 40.5898 -0.501813 40.6685C1.53297 42.303 4.25796 42.1745 5.70085 40.328C7.12606 38.5035 6.66404 35.8149 4.61158 34.2024Z" fill="#CB6CE6" fill-opacity="0.34"/>
<path d="M122.851 229.05C124.368 227.263 127.124 227.196 129.106 228.896C131.063 230.577 131.381 233.295 129.84 235.062C128.345 236.722 125.715 236.783 123.754 235.207C121.737 233.551 121.36 230.857 122.851 229.05Z" fill="#CB6CE6" fill-opacity="0.34"/>
<path d="M114.464 186.719C112.612 185.158 112.221 182.382 113.631 180.726C115.041 179.071 117.858 178.979 119.71 180.54C121.562 182.1 121.954 184.877 120.543 186.532C119.133 188.187 116.317 188.279 114.464 186.719Z" fill="#CB6CE6" fill-opacity="0.34"/>
<path d="M101.705 146.015C100.375 147.771 97.6211 147.985 95.6559 146.515C93.6171 144.986 93.0855 142.133 94.5598 140.348C95.9388 138.631 98.6814 138.481 100.636 140.014C102.548 141.55 103.035 144.259 101.705 146.015Z" fill="#CB6CE6" fill-opacity="0.34"/>
<path d="M129.215 209.83C131.103 211.346 131.561 214.14 130.2 215.835C128.814 217.51 125.938 217.626 124.11 216.085C122.331 214.584 121.894 211.915 123.178 210.266C124.483 208.491 127.328 208.313 129.215 209.83Z" fill="#CB6CE6" fill-opacity="0.34"/>
<path d="M138.929 283.5C137.61 285.192 134.766 285.369 132.902 283.873C131.039 282.376 130.599 279.56 131.967 277.907C133.282 276.32 136 276.15 137.825 277.543C139.724 278.996 140.249 281.807 138.929 283.5Z" fill="#CB6CE6" fill-opacity="0.34"/>
<path d="M138.467 301.849C137.148 303.542 134.255 303.68 132.409 302.161C130.655 300.68 130.193 297.991 131.477 296.342C132.796 294.65 135.689 294.512 137.535 296.031C139.314 297.532 139.734 300.223 138.467 301.849Z" fill="#CB6CE6" fill-opacity="0.34"/>
<path d="M110.319 150.906C112.098 152.408 112.475 155.101 111.142 156.71C109.757 158.385 106.849 158.439 105.074 156.833C103.349 155.265 103.031 152.548 104.42 151.02C105.826 149.47 108.565 149.425 110.319 150.906Z" fill="#CB6CE6" fill-opacity="0.34"/>
<path d="M133.132 264.757C131.279 263.197 130.941 260.354 132.407 258.78C133.838 257.249 136.577 257.204 138.331 258.686C140.184 260.246 140.522 263.089 139.056 264.663C137.625 266.193 134.886 266.238 133.132 264.757Z" fill="#CB6CE6" fill-opacity="0.34"/>
<path d="M62.4205 79.0806C64.2836 80.5772 64.7131 83.457 63.2959 85.0706C61.9141 86.6402 59.2068 86.7468 57.3926 85.2895C55.5294 83.7929 55.1 80.9131 56.5172 79.2995C57.899 77.7299 60.6308 77.643 62.4205 79.0806Z" fill="#CB6CE6" fill-opacity="0.34"/>
<path d="M52.8197 68.4359C54.6897 69.9742 55.0701 72.8146 53.6284 74.4086C52.222 75.9585 49.4902 76.0453 47.7359 74.5638C45.8659 73.0254 45.4855 70.185 46.9272 68.5911C48.2914 67.0435 51.0477 66.9763 52.8197 68.4359Z" fill="#CB6CE6" fill-opacity="0.34"/>
<path d="M38.112 63.9C36.2979 62.4427 35.8359 59.7541 37.1618 58.1034C38.4986 56.389 41.3748 56.2731 43.2094 57.8555C44.9705 59.3788 45.3481 62.072 43.9908 63.6614C42.6335 65.2507 39.9262 65.3572 38.112 63.9Z" fill="#CB6CE6" fill-opacity="0.34"/>
<path d="M133.677 245.75C131.797 244.275 131.348 241.67 132.692 239.997C134.035 238.324 136.676 238.201 138.522 239.719C140.294 241.179 140.721 243.659 139.48 245.305C138.185 247.017 135.558 247.224 133.677 245.75Z" fill="#CB6CE6" fill-opacity="0.34"/>
<path d="M81.8564 100.125C83.7372 101.6 84.1856 104.205 82.8419 105.878C81.4983 107.55 78.8577 107.674 77.0122 106.156C75.2402 104.696 74.8124 102.216 76.0539 100.57C77.3486 98.8577 79.9755 98.6503 81.8564 100.125Z" fill="#CB6CE6" fill-opacity="0.34"/>
<path d="M72.3653 89.4963C74.1862 90.9953 74.5815 93.6665 73.2311 95.2975C71.8806 96.9285 69.1733 97.0351 67.3523 95.5361C65.5313 94.0372 65.136 91.3659 66.4865 89.7349C67.837 88.1039 70.5443 87.9973 72.3653 89.4963Z" fill="#CB6CE6" fill-opacity="0.34"/>
<path d="M34.749 53.1231C33.4544 54.8352 30.8206 55.0008 28.9398 53.5262C27.0766 52.0295 26.6528 49.444 27.9964 47.7713C29.3116 46.1843 31.7942 46.0059 33.6369 47.3774C35.5776 48.8278 36.0858 51.4087 34.749 53.1231Z" fill="#CB6CE6" fill-opacity="0.34"/>
<path d="M24.9249 42.4066C23.599 44.0573 21.1938 44.1894 19.3552 42.7125C17.5165 41.2355 17.1269 38.8585 18.4529 37.2078C19.7788 35.5571 22.1839 35.425 24.0226 36.902C25.8858 38.3986 26.2686 40.7339 24.9249 42.4066Z" fill="#CB6CE6" fill-opacity="0.34"/>
<path d="M129.965 196.997C128.579 198.672 126.051 198.705 124.192 197.103C122.431 195.58 122.15 193.218 123.501 191.587C124.886 189.912 127.414 189.878 129.273 191.48C131.017 193.026 131.322 195.407 129.965 196.997Z" fill="#CB6CE6" fill-opacity="0.34"/>
<path d="M92.4639 116.395C91.187 118.085 88.7955 118.3 86.9215 116.868C84.9562 115.398 84.5039 112.898 85.9074 111.201C87.2334 109.55 89.6385 109.418 91.4772 110.895C93.3158 112.372 93.7653 114.725 92.4639 116.395Z" fill="#CB6CE6" fill-opacity="0.34"/>
<path d="M120.701 167.105C119.406 168.817 117.032 169.01 115.176 167.555C113.278 166.102 112.828 163.75 114.129 162.079C115.424 160.367 117.798 160.174 119.654 161.629C121.528 163.062 121.978 165.414 120.701 167.105Z" fill="#CB6CE6" fill-opacity="0.34"/>
<path d="M148.055 293.328C146.81 294.827 144.314 294.922 142.64 293.541C140.966 292.161 140.605 289.698 141.85 288.199C143.094 286.7 145.59 286.605 147.264 287.986C148.938 289.367 149.299 291.829 148.055 293.328Z" fill="#CB6CE6" fill-opacity="0.34"/>
<path d="M138.597 220.696C140.495 222.148 140.927 224.523 139.608 226.216C138.289 227.908 135.884 228.04 134.02 226.543C132.255 225.126 131.837 222.834 133.037 221.191C134.331 219.478 136.723 219.263 138.597 220.696Z" fill="#CB6CE6" fill-opacity="0.34"/>
<path d="M14.4427 26.3831C13.5043 25.5931 12.4056 25.2537 11.333 25.3336L8.16834 29.2733C8.30789 30.2544 8.85171 31.2344 9.71659 31.9654C11.4395 33.3856 13.8515 33.2952 15.1312 31.7522C16.4532 30.207 16.1479 27.8253 14.4427 26.3831Z" fill="#CB6CE6" fill-opacity="0.34"/>
<path d="M148.1 274.644C146.855 276.143 144.359 276.238 142.685 274.857C141.011 273.476 140.65 271.013 141.895 269.514C143.139 268.015 145.635 267.92 147.309 269.301C148.983 270.682 149.344 273.145 148.1 274.644Z" fill="#CB6CE6" fill-opacity="0.34"/>
<path d="M101.566 126.856C100.233 128.465 97.7964 128.536 95.9931 127.015C94.2143 125.513 93.9268 123.11 95.3263 121.518C96.6551 120.015 98.965 119.951 100.73 121.369C102.569 122.846 102.916 125.225 101.566 126.856Z" fill="#CB6CE6" fill-opacity="0.34"/>
<path d="M147.504 250.229C149.188 251.546 149.588 254.112 148.361 255.589C147.163 256.98 144.715 257.115 143.104 255.857C141.42 254.54 141.02 251.974 142.247 250.497C143.445 249.106 145.893 248.971 147.504 250.229Z" fill="#CB6CE6" fill-opacity="0.34"/>
<path d="M110.368 132.117C112.042 133.497 112.374 136.046 111.098 137.484C109.805 138.943 107.235 138.979 105.639 137.552C104.116 136.184 103.786 133.782 104.935 132.352C106.162 130.875 108.718 130.756 110.368 132.117Z" fill="#CB6CE6" fill-opacity="0.34"/>
<path d="M130.209 177.712C129.031 179.229 126.44 179.392 124.791 178.031C123.215 176.729 122.818 174.31 123.918 172.84C125.096 171.324 127.688 171.16 129.337 172.522C130.913 173.824 131.309 176.242 130.209 177.712Z" fill="#CB6CE6" fill-opacity="0.34"/>
<path d="M139.813 207.081C138.636 208.597 136.019 208.741 134.388 207.357C132.812 206.055 132.433 203.615 133.558 202.164C134.735 200.648 137.352 200.504 138.983 201.888C140.541 203.212 140.938 205.63 139.813 207.081Z" fill="#CB6CE6" fill-opacity="0.34"/>
<path d="M148.934 236.749C147.707 238.226 145.397 238.29 143.766 236.907C142.159 235.543 141.867 233.245 143.143 231.808C144.348 230.458 146.549 230.379 148.142 231.659C149.809 232.999 150.161 235.272 148.934 236.749Z" fill="#CB6CE6" fill-opacity="0.34"/>
<path d="M63.1479 65.4711C61.981 66.9237 59.8781 67.0813 58.2316 65.8673C56.487 64.5745 56.0825 62.3666 57.2778 60.8283C58.4977 59.3096 60.7164 59.2088 62.3903 60.5897C64.0151 61.9311 64.3147 64.0185 63.1479 65.4711Z" fill="#CB6CE6" fill-opacity="0.34"/>
<path d="M72.7268 76.2423C71.4579 77.7216 69.201 77.7193 67.5802 76.2725C66.0574 74.9044 65.8177 72.7926 67.0336 71.3794C68.3025 69.9002 70.5593 69.9025 72.1802 71.3493C73.7098 72.7591 73.9427 74.8291 72.7268 76.2423Z" fill="#CB6CE6" fill-opacity="0.34"/>
<path d="M82.4386 86.7966C81.2541 88.2712 79.1933 88.4265 77.5331 87.1291C75.7817 85.7946 75.4262 83.6261 76.706 82.0831C77.9396 80.6479 80.014 80.576 81.6388 81.9175C83.2637 83.2589 83.5986 85.3023 82.4386 86.7966Z" fill="#CB6CE6" fill-opacity="0.34"/>
<path d="M52.6013 49.8288C54.2792 51.1042 54.6809 53.165 53.5876 54.6767C52.4235 56.2764 50.2117 56.4189 48.4956 55.0404C46.8708 53.699 46.5358 51.6556 47.6958 50.1613C48.8382 48.689 50.9234 48.5534 52.6013 49.8288Z" fill="#CB6CE6" fill-opacity="0.34"/>
<path d="M119.826 142.937C121.517 144.296 121.837 146.508 120.568 147.988C119.353 149.401 117.236 149.475 115.618 148.175C113.926 146.817 113.606 144.604 114.875 143.125C116.073 141.734 118.208 141.637 119.826 142.937Z" fill="#CB6CE6" fill-opacity="0.34"/>
<path d="M138.669 183.349C140.347 184.624 140.731 186.707 139.571 188.201C138.411 189.696 136.301 189.811 134.659 188.492C133.09 187.232 132.726 185.274 133.784 183.806C134.895 182.273 136.991 182.073 138.669 183.349Z" fill="#CB6CE6" fill-opacity="0.34"/>
<path d="M42.8749 39.1914C44.5528 40.4668 44.9368 42.5496 43.7768 44.0439C42.6168 45.5382 40.507 45.654 38.8645 44.3346C37.2955 43.0743 36.932 41.1166 37.9899 39.6489C39.1009 38.1152 41.2215 37.9357 42.8749 39.1914Z" fill="#CB6CE6" fill-opacity="0.34"/>
<path d="M86.4816 92.7602C87.722 91.3666 89.8523 91.3759 91.4486 92.803C92.9224 94.1317 93.1416 96.1184 91.9856 97.5073C90.7765 98.9622 88.6531 98.9946 87.0459 97.6312C85.4387 96.2678 85.2059 94.1977 86.4816 92.7602Z" fill="#CB6CE6" fill-opacity="0.34"/>
<path d="M149.091 217.575C147.917 218.986 145.734 219.042 144.169 217.677C142.702 216.39 142.434 214.364 143.572 212.997C144.746 211.586 146.929 211.529 148.494 212.895C149.943 214.204 150.211 216.23 149.091 217.575Z" fill="#CB6CE6" fill-opacity="0.34"/>
<path d="M130.123 158.488C129.027 159.852 126.917 159.968 125.379 158.769C123.768 157.511 123.448 155.299 124.646 153.907C125.774 152.604 127.915 152.55 129.417 153.793C130.92 155.036 131.219 157.123 130.123 158.488Z" fill="#CB6CE6" fill-opacity="0.34"/>
<path d="M101.198 103.061C102.658 104.306 102.958 106.394 101.879 107.736C100.706 109.147 98.4556 109.187 96.9574 107.838C95.5327 106.549 95.2929 104.437 96.4449 103.154C97.5969 101.87 99.7204 101.838 101.198 103.061Z" fill="#CB6CE6" fill-opacity="0.34"/>
<path d="M157.339 285.034C156.236 286.357 154.029 286.394 152.575 285.191C151.098 283.967 150.826 281.794 151.912 280.493C153.039 279.19 155.223 279.134 156.676 280.337C158.154 281.56 158.442 283.711 157.339 285.034Z" fill="#CB6CE6" fill-opacity="0.34"/>
<path d="M34.3997 33.7245C33.2967 35.0474 31.1624 35.1435 29.6425 33.9226C28.049 32.6425 27.7711 30.4277 28.9938 29.0562C30.1458 27.7727 32.2937 27.76 33.7783 29.0249C35.2452 30.3119 35.5026 32.4016 34.3997 33.7245Z" fill="#CB6CE6" fill-opacity="0.34"/>
<path d="M157.967 246.794C156.966 248.09 154.839 248.228 153.399 247.108C151.96 245.988 151.594 243.883 152.594 242.586C153.595 241.29 155.723 241.152 157.162 242.273C158.577 243.373 158.944 245.478 157.967 246.794Z" fill="#CB6CE6" fill-opacity="0.34"/>
<path d="M157.748 265.845C156.737 267.205 154.507 267.37 153.018 266.21C151.53 265.051 151.094 262.781 152.228 261.52C153.451 260.148 155.072 260.038 156.789 261.164C158.342 262.194 158.76 264.485 157.748 265.845Z" fill="#CB6CE6" fill-opacity="0.34"/>
<path d="M152.59 303.851C151.137 302.648 150.817 300.435 151.944 299.132C153.054 297.851 155.381 297.765 156.729 299.101C158.174 300.515 158.416 302.122 157.34 303.611C156.335 305.013 154.043 305.055 152.59 303.851Z" fill="#CB6CE6" fill-opacity="0.34"/>
<path d="M24.7128 22.9367C23.705 24.1912 21.5599 24.3511 20.1203 23.2309C18.6317 22.0713 18.2803 19.7974 19.3901 18.5162C20.4468 17.3011 22.6301 17.2443 24.0098 18.3888C25.3895 19.5333 25.7205 21.6822 24.7128 22.9367Z" fill="#CB6CE6" fill-opacity="0.34"/>
<path d="M111.158 117.977C110.146 119.337 107.85 119.485 106.396 118.281C104.999 117.158 104.65 115.032 105.609 113.738C106.621 112.378 108.917 112.231 110.37 113.434C111.75 114.579 112.116 116.684 111.158 117.977Z" fill="#CB6CE6" fill-opacity="0.34"/>
<path d="M148.152 194.189C149.61 195.287 150.018 197.39 149.017 198.686C148.016 199.982 145.854 200.164 144.485 198.956C143.018 197.669 142.747 196.148 143.654 194.667C144.49 193.275 146.678 193.113 148.152 194.189Z" fill="#CB6CE6" fill-opacity="0.34"/>
<path d="M138.803 164.553C140.347 165.794 140.664 167.859 139.499 169.06C138.262 170.348 136.737 170.389 135.157 169.193C133.675 168.075 133.351 165.968 134.534 164.746C135.777 163.499 137.268 163.502 138.803 164.553Z" fill="#CB6CE6" fill-opacity="0.34"/>
<path d="M120.593 128.525C119.399 129.811 117.961 129.995 116.328 128.865C114.786 127.771 114.433 125.75 115.568 124.488C116.755 123.161 118.292 123.055 119.836 124.296C121.381 125.537 121.542 127.043 120.593 128.525Z" fill="#CB6CE6" fill-opacity="0.34"/>
<path d="M129.309 134.948C130.692 136.24 131.11 137.626 130.123 139.006C129.112 140.366 127.624 140.51 126.1 139.395C124.594 138.257 124.288 136.78 125.275 135.401C126.262 134.021 127.71 134.026 129.309 134.948Z" fill="#CB6CE6" fill-opacity="0.34"/>
<path d="M157.381 223.473C158.801 224.868 159.125 226.323 157.944 227.692C156.764 229.061 155.207 229.041 153.698 227.757C152.262 226.531 152.065 225.069 153.126 223.749C154.275 222.318 155.772 222.362 157.381 223.473Z" fill="#CB6CE6" fill-opacity="0.34"/>
<path d="M148.992 180.089C147.691 179.95 146.253 180.134 145.085 179.63C143.66 178.993 143.411 176.693 144.435 175.669C145.555 174.576 147.155 174.341 148.302 175.625C149.135 176.547 149.212 178.057 149.653 179.316C149.416 179.561 149.204 179.825 148.992 180.089Z" fill="#CB6CE6" fill-opacity="0.34"/>
<path d="M62.7744 46.7041C61.4676 46.5233 60.0221 46.6658 58.8823 46.0762C57.4934 45.3951 57.3216 43.0481 58.3595 42.1075C59.528 41.0546 61.1423 40.9028 62.2471 42.1886C63.0373 43.113 63.0547 44.6479 63.4531 45.9094C63.2232 46.1955 63.0111 46.4596 62.7744 46.7041Z" fill="#CB6CE6" fill-opacity="0.34"/>
<path d="M166.678 295.904C165.385 295.807 163.953 296.032 162.767 295.551C161.35 294.955 161.033 292.637 162.009 291.574C163.097 290.42 164.68 290.207 165.855 291.405C166.705 292.305 166.849 293.833 167.307 295.07C167.095 295.334 166.883 295.598 166.678 295.904Z" fill="#CB6CE6" fill-opacity="0.34"/>
<path d="M82.76 66.8139C81.0297 68.4658 79.6224 68.7114 78.1515 67.5298C76.7786 66.427 76.5326 64.9257 77.4804 63.6955C78.5167 62.3553 80.2085 62.1572 81.4889 63.4754C82.3321 64.3338 82.4585 65.8837 82.76 66.8139Z" fill="#CB6CE6" fill-opacity="0.34"/>
<path d="M166.875 276.979C165.55 276.82 164.105 276.963 162.972 276.415C161.583 275.734 161.351 273.411 162.407 272.448C163.551 271.376 165.183 271.202 166.288 272.488C167.078 273.412 167.137 274.945 167.536 276.206C167.317 276.429 167.087 276.715 166.875 276.979Z" fill="#CB6CE6" fill-opacity="0.34"/>
<path d="M153.717 209.305C153.722 208.042 153.283 206.53 153.783 205.556C154.5 204.212 156.177 204.183 157.56 205.222C158.951 206.303 159.326 207.945 158.218 208.973C157.423 209.711 155.866 209.691 154.641 210.011C154.329 209.797 154.035 209.561 153.717 209.305Z" fill="#CB6CE6" fill-opacity="0.34"/>
<path d="M91.8177 78.6867C90.5177 78.5477 89.0545 78.7122 87.9216 78.1643C86.515 77.5052 86.2833 75.1826 87.3144 74.2003C88.4339 73.1079 90.0413 72.9144 91.1883 74.1979C92.0207 75.12 92.0803 76.6526 92.4963 77.8921C92.242 78.1585 92.0298 78.4226 91.8177 78.6867Z" fill="#CB6CE6" fill-opacity="0.34"/>
<path d="M71.296 52.0636C73.154 53.9181 73.562 55.3685 72.4767 56.6693C71.4621 57.8822 69.9676 57.9853 68.5948 56.8825C67.1061 55.7229 66.7415 54.0177 67.9699 52.9404C68.7888 52.2222 70.3774 52.3033 71.296 52.0636Z" fill="#CB6CE6" fill-opacity="0.34"/>
<path d="M167.236 257.751C165.96 257.632 164.451 257.904 163.396 257.31C161.937 256.464 161.594 254.631 162.776 253.662C163.524 253.032 165.494 252.839 166.307 253.384C167.194 253.987 167.383 255.66 167.883 256.895C167.653 257.181 167.423 257.467 167.236 257.751Z" fill="#CB6CE6" fill-opacity="0.34"/>
<path d="M96.8498 88.741C96.8802 87.498 96.5252 85.9817 97.0744 85.0469C97.8575 83.7205 99.7033 83.6823 100.784 84.9484C101.476 85.7941 101.815 87.732 101.291 88.434C100.739 89.2217 99.0062 89.1696 97.799 89.4673C97.4627 89.2333 97.1685 88.997 96.8498 88.741Z" fill="#CB6CE6" fill-opacity="0.34"/>
<path d="M53.0521 35.9612C51.7629 35.7585 50.2399 35.9474 49.2376 35.2871C47.8077 34.3557 47.5913 32.5162 48.8716 31.6254C49.6933 31.0543 51.6411 30.9894 52.4188 31.5779C53.27 32.2254 53.3569 33.9248 53.7485 35.1446C53.5363 35.4087 53.282 35.6751 53.0521 35.9612Z" fill="#CB6CE6" fill-opacity="0.34"/>
<path d="M139.644 146.183C139.558 147.345 139.826 148.719 139.287 149.59C138.522 150.894 137.011 150.767 135.722 149.659C134.434 148.552 134.17 147.072 135.341 146.167C136.156 145.554 137.594 145.622 138.723 145.371C139.049 145.669 139.368 145.925 139.644 146.183Z" fill="#CB6CE6" fill-opacity="0.34"/>
<path d="M167.399 234.599C167.366 235.695 167.705 236.981 167.251 237.847C166.559 239.211 165.093 239.228 163.762 238.123C162.414 237.04 162.157 235.602 163.321 234.655C164.07 234.025 165.398 234.078 166.468 233.851C166.787 234.107 167.105 234.363 167.399 234.599Z" fill="#CB6CE6" fill-opacity="0.34"/>
<path d="M39.4054 24.7814C39.4386 23.6856 39.1845 22.3951 39.6208 21.5507C40.3372 20.2069 41.81 20.2313 43.1162 21.3167C44.4468 22.4218 44.6616 23.8617 43.4726 24.7895C42.7176 25.378 41.3645 25.305 40.2948 25.5321C40.0183 25.2737 39.7241 25.0374 39.4054 24.7814Z" fill="#CB6CE6" fill-opacity="0.34"/>
<path d="M110.52 99.5405C109.304 99.3968 107.95 99.5764 106.944 99.0215C105.51 98.1956 105.355 96.7314 106.31 95.5429C107.264 94.3544 108.721 94.1482 109.836 95.3703C110.613 96.2113 110.754 97.5921 111.174 98.7262C110.962 98.9903 110.75 99.2544 110.52 99.5405Z" fill="#CB6CE6" fill-opacity="0.34"/>
<path d="M120.117 110.038C118.993 109.931 117.483 110.203 116.808 109.588C116.125 108.931 116.241 107.431 115.997 106.33C117.129 106.225 118.506 105.666 119.306 106.127C120.081 106.568 120.249 108.116 120.698 109.164C120.535 109.468 120.305 109.754 120.117 110.038Z" fill="#CB6CE6" fill-opacity="0.34"/>
<path d="M34.7205 14.6455C32.8338 14.4335 31.2332 14.6687 30.7332 14.086C30.097 13.3215 30.2865 11.8804 30.1265 10.7742C31.2304 10.7556 32.6103 10.3433 33.3566 10.8703C34.0716 11.336 34.1244 12.8268 34.7205 14.6455Z" fill="#CB6CE6" fill-opacity="0.34"/>
<path d="M158.951 190.587C157.05 190.292 155.485 190.483 155.003 189.878C154.384 189.092 154.665 187.688 154.54 186.538C155.651 186.561 157.063 186.21 157.791 186.759C158.453 187.291 158.439 188.764 158.951 190.587Z" fill="#CB6CE6" fill-opacity="0.34"/>
<path d="M148.769 160.683C147.698 160.51 146.235 160.675 145.668 160.075C145.07 159.413 144.954 157.8 145.387 157.061C145.691 156.581 147.621 156.538 148.234 157.031C148.945 157.602 149.02 158.965 149.377 159.976C149.176 160.177 148.964 160.441 148.769 160.683Z" fill="#CB6CE6" fill-opacity="0.34"/>
<path d="M126.255 120.472C126.21 118.771 125.78 117.448 126.247 116.917C126.749 116.343 128.129 116.582 129.128 116.443C129.341 117.484 129.975 118.753 129.634 119.529C129.392 120.132 127.895 120.088 126.255 120.472Z" fill="#CB6CE6" fill-opacity="0.34"/>
<path d="M163.635 218.901C163.657 217.869 163.291 216.416 163.824 215.903C164.418 215.366 166.077 215.359 166.876 215.82C167.42 216.148 167.727 218.024 167.317 218.636C166.828 219.294 165.44 219.265 164.444 219.551C164.174 219.334 163.904 219.118 163.635 218.901Z" fill="#CB6CE6" fill-opacity="0.34"/>
<path d="M139.175 126.832C139.193 128.367 139.528 129.506 139.115 129.971C138.659 130.437 137.472 130.208 136.61 130.276C136.449 129.423 135.885 128.318 136.218 127.752C136.509 127.189 137.728 127.227 139.175 126.832Z" fill="#CB6CE6" fill-opacity="0.34"/>
<path d="M163.928 200.56C164.002 199.062 163.719 197.857 164.189 197.474C164.669 197.027 165.87 197.339 166.738 197.313C166.857 198.169 167.319 199.3 166.979 199.824C166.615 200.328 165.406 200.226 163.928 200.56Z" fill="#CB6CE6" fill-opacity="0.34"/>
<path d="M176.989 267.903C175.271 267.682 174.001 267.857 173.514 267.357C172.979 266.819 172.813 265.418 173.175 264.767C173.384 264.356 175.048 264.244 175.58 264.635C176.211 265.106 176.318 266.278 176.989 267.903Z" fill="#CB6CE6" fill-opacity="0.34"/>
<path d="M175.846 282.882C175.895 284.478 176.325 285.801 175.873 286.163C175.273 286.658 174.044 286.431 173.056 286.507C172.906 285.589 172.359 284.462 172.727 283.853C173.06 283.287 174.322 283.323 175.846 282.882Z" fill="#CB6CE6" fill-opacity="0.34"/>
<path d="M88.3282 58.8284C88.3694 57.5217 88.0936 56.3587 88.4991 56.105C89.0528 55.717 90.1202 55.995 90.9532 56.0123C91.0164 56.7873 91.3737 57.7986 91.027 58.2805C90.7156 58.7183 89.6334 58.6094 88.3282 58.8284Z" fill="#CB6CE6" fill-opacity="0.34"/>
<path d="M173.225 248.838C173.383 247.336 173.15 246.171 173.619 245.787C174.131 245.401 175.448 245.518 176.09 245.925C176.493 246.176 176.637 247.704 176.259 248.125C175.81 248.633 174.692 248.568 173.225 248.838Z" fill="#CB6CE6" fill-opacity="0.34"/>
<path d="M158.743 171.012C157.187 170.739 156.019 170.888 155.575 170.386C155.107 169.865 155.046 168.585 155.372 167.978C155.588 167.608 157.139 167.586 157.629 167.98C158.175 168.455 158.244 169.524 158.743 171.012Z" fill="#CB6CE6" fill-opacity="0.34"/>
<path d="M82.0395 48.1286C80.6836 47.9085 79.5089 48.0151 79.2051 47.59C78.765 46.983 78.9875 46.003 78.9352 45.1643C79.7329 45.2257 80.7359 44.9813 81.2507 45.3948C81.7411 45.7887 81.701 46.8428 82.0395 48.1286Z" fill="#CB6CE6" fill-opacity="0.34"/>
<path d="M62.6977 26.3635C61.429 26.2859 60.5036 26.484 60.1045 26.1272C59.6809 25.7507 59.5522 24.7059 59.7832 24.1672C59.9041 23.866 61.1563 23.7131 61.5417 23.9865C62.0252 24.3387 62.1688 25.2144 62.6977 26.3635Z" fill="#CB6CE6" fill-opacity="0.34"/>
<path d="M101.264 69.4372C99.9437 69.1731 98.9556 69.2483 98.4761 68.7908C98.077 68.434 97.9712 67.0092 98.2637 66.8459C98.8066 66.5215 99.886 66.4833 100.478 66.8505C100.917 67.0578 100.919 68.1097 101.264 69.4372Z" fill="#CB6CE6" fill-opacity="0.34"/>
<path d="M176.99 229.339C175.732 229.198 174.86 229.33 174.376 228.978C173.991 228.704 173.719 227.436 173.98 227.211C174.432 226.85 175.442 226.647 175.936 226.935C176.406 227.204 176.496 228.146 176.99 229.339Z" fill="#CB6CE6" fill-opacity="0.34"/>
<path d="M146.232 141.045C146.163 139.976 145.855 139.004 146.134 138.758C146.585 138.396 147.463 138.558 148.181 138.519C148.266 139.167 148.656 139.987 148.379 140.381C148.128 140.794 147.253 140.779 146.232 141.045Z" fill="#CB6CE6" fill-opacity="0.34"/>
<path d="M110.348 76.8072C110.359 78.0479 110.643 79.0001 110.294 79.3349C109.909 79.7137 108.734 79.8202 108.317 79.4854C107.9 79.1507 107.667 77.9853 107.954 77.5278C108.188 77.1362 109.189 77.1443 110.348 76.8072Z" fill="#CB6CE6" fill-opacity="0.34"/>
<path d="M119.928 90.1874C118.839 90.0368 117.858 90.1538 117.61 89.8098C117.25 89.3036 117.391 88.4753 117.317 87.7641C117.982 87.7907 118.823 87.5973 119.239 87.932C119.674 88.2448 119.649 89.1298 119.928 90.1874Z" fill="#CB6CE6" fill-opacity="0.34"/>
<path d="M72.405 37.276C71.0559 37.0976 70.0991 37.2343 69.6088 36.8404C69.192 36.5057 69.3056 35.5106 69.1472 34.804C69.9244 34.7403 70.7872 34.4194 71.4149 34.7426C71.8711 34.9279 71.9576 35.9751 72.405 37.276Z" fill="#CB6CE6" fill-opacity="0.34"/>
</g>
</svg>
