<svg width="365" height="123" viewBox="0 0 365 123" fill="none" xmlns="http://www.w3.org/2000/svg">
<path d="M335.5 100.5H30L1 121.5V19.5C3 5.1 16.8333 1.16667 23.5 1H344C360.4 5 363.833 16 363.5 21V73C364.3 97 345.167 101.333 335.5 100.5Z" stroke="white"/>
<path d="M38.06 31.08H40.7V42.68H46.56V45H38.06V31.08ZM58.6016 40.58H51.3416C51.4482 41.38 51.7416 41.9933 52.2216 42.42C52.7149 42.8467 53.3682 43.06 54.1816 43.06C54.7816 43.06 55.4282 42.9533 56.1216 42.74C56.8282 42.5133 57.4816 42.2067 58.0816 41.82H58.1616V43.96C57.6282 44.3733 57.0149 44.6933 56.3216 44.92C55.6416 45.1333 54.9216 45.24 54.1616 45.24C53.0682 45.24 52.1149 45.02 51.3016 44.58C50.4882 44.14 49.8616 43.5067 49.4216 42.68C48.9816 41.8533 48.7616 40.8867 48.7616 39.78C48.7616 38.7 48.9682 37.7467 49.3816 36.92C49.8082 36.0933 50.4016 35.4533 51.1616 35C51.9216 34.5467 52.8016 34.32 53.8016 34.32C54.7749 34.32 55.6216 34.54 56.3416 34.98C57.0749 35.42 57.6349 36.0533 58.0216 36.88C58.4082 37.7067 58.6016 38.6733 58.6016 39.78V40.58ZM53.8016 36.44C53.1749 36.44 52.6482 36.6467 52.2216 37.06C51.8082 37.4733 51.5282 38.0467 51.3816 38.78H55.8816C55.7749 38.02 55.5482 37.44 55.2016 37.04C54.8549 36.64 54.3882 36.44 53.8016 36.44ZM64.2938 34.56H66.6938V36.52H64.2938V41.56C64.2938 42.5733 64.6804 43.08 65.4538 43.08C65.8138 43.08 66.2338 42.9533 66.7138 42.7V44.88C66.3804 45 66.0671 45.0867 65.7738 45.14C65.4938 45.2067 65.1738 45.24 64.8138 45.24C62.7071 45.24 61.6538 44.0133 61.6538 41.56V36.52H60.1338V34.56H61.6538V31.76L64.2938 30.84V34.56ZM71.7816 31.08C71.7816 31.8533 71.6616 32.6533 71.4216 33.48C71.1816 34.3067 70.7549 35.2533 70.1416 36.32H67.7416C68.1816 35.6133 68.5016 34.96 68.7016 34.36C68.9016 33.7467 69.0216 33.2067 69.0616 32.74C69.1149 32.2733 69.1416 31.72 69.1416 31.08H71.7816ZM76.8161 45.24C76.1228 45.24 75.4428 45.1467 74.7761 44.96C74.1094 44.76 73.4828 44.48 72.8961 44.12V41.62C73.5361 42.1 74.1428 42.4533 74.7161 42.68C75.2894 42.9067 75.9094 43.02 76.5761 43.02C77.2561 43.02 77.7561 42.9333 78.0761 42.76C78.4094 42.5867 78.5761 42.32 78.5761 41.96C78.5761 41.6133 78.4161 41.36 78.0961 41.2C77.7894 41.0267 77.2961 40.86 76.6161 40.7C75.8694 40.5133 75.2628 40.3267 74.7961 40.14C74.3294 39.94 73.9228 39.62 73.5761 39.18C73.2428 38.74 73.0761 38.1467 73.0761 37.4C73.0761 36.4667 73.4561 35.72 74.2161 35.16C74.9894 34.6 76.0228 34.32 77.3161 34.32C77.9428 34.32 78.5228 34.3933 79.0561 34.54C79.5894 34.6733 80.1361 34.9 80.6961 35.22V37.66C80.1228 37.26 79.5894 36.9733 79.0961 36.8C78.6028 36.6267 78.0761 36.54 77.5161 36.54C76.9028 36.54 76.4294 36.62 76.0961 36.78C75.7628 36.9267 75.5961 37.1467 75.5961 37.44C75.5961 37.7333 75.7361 37.9533 76.0161 38.1C76.3094 38.2333 76.7694 38.3733 77.3961 38.52C78.1428 38.68 78.7628 38.8667 79.2561 39.08C79.7628 39.28 80.1961 39.6133 80.5561 40.08C80.9161 40.5333 81.0961 41.1667 81.0961 41.98C81.0961 42.6067 80.9161 43.1733 80.5561 43.68C80.1961 44.1733 79.6894 44.56 79.0361 44.84C78.3828 45.1067 77.6428 45.24 76.8161 45.24ZM94.1616 45.24C93.0682 45.24 92.1082 45.02 91.2816 44.58C90.4682 44.1267 89.8416 43.4933 89.4016 42.68C88.9616 41.8667 88.7416 40.9133 88.7416 39.82C88.7416 38.7267 88.9682 37.7667 89.4216 36.94C89.8749 36.1 90.5082 35.4533 91.3216 35C92.1482 34.5467 93.0949 34.32 94.1616 34.32C95.3616 34.32 96.3749 34.5667 97.2016 35.06V37.38H97.1216C96.6816 37.1133 96.2016 36.9133 95.6816 36.78C95.1749 36.6467 94.7016 36.58 94.2616 36.58C93.3416 36.58 92.6482 36.8533 92.1816 37.4C91.7149 37.9467 91.4816 38.7533 91.4816 39.82C91.4816 41.9267 92.3949 42.98 94.2216 42.98C94.7016 42.98 95.1882 42.9067 95.6816 42.76C96.1882 42.6 96.6682 42.38 97.1216 42.1H97.2016V44.46C96.3482 44.98 95.3349 45.24 94.1616 45.24ZM105.902 34.32C106.956 34.32 107.802 34.6333 108.442 35.26C109.096 35.8733 109.422 36.6867 109.422 37.7V45H106.782V39.2C106.782 38.2933 106.642 37.6467 106.362 37.26C106.096 36.86 105.649 36.66 105.022 36.66C104.316 36.66 103.582 37.0533 102.822 37.84V45H100.182V29.92H102.822V35.64C103.342 35.1733 103.842 34.84 104.322 34.64C104.816 34.4267 105.342 34.32 105.902 34.32ZM122.195 40.58H114.935C115.042 41.38 115.335 41.9933 115.815 42.42C116.309 42.8467 116.962 43.06 117.775 43.06C118.375 43.06 119.022 42.9533 119.715 42.74C120.422 42.5133 121.075 42.2067 121.675 41.82H121.755V43.96C121.222 44.3733 120.609 44.6933 119.915 44.92C119.235 45.1333 118.515 45.24 117.755 45.24C116.662 45.24 115.709 45.02 114.895 44.58C114.082 44.14 113.455 43.5067 113.015 42.68C112.575 41.8533 112.355 40.8867 112.355 39.78C112.355 38.7 112.562 37.7467 112.975 36.92C113.402 36.0933 113.995 35.4533 114.755 35C115.515 34.5467 116.395 34.32 117.395 34.32C118.369 34.32 119.215 34.54 119.935 34.98C120.669 35.42 121.229 36.0533 121.615 36.88C122.002 37.7067 122.195 38.6733 122.195 39.78V40.58ZM117.395 36.44C116.769 36.44 116.242 36.6467 115.815 37.06C115.402 37.4733 115.122 38.0467 114.975 38.78H119.475C119.369 38.02 119.142 37.44 118.795 37.04C118.449 36.64 117.982 36.44 117.395 36.44ZM129.748 45.24C128.654 45.24 127.694 45.02 126.868 44.58C126.054 44.1267 125.428 43.4933 124.988 42.68C124.548 41.8667 124.328 40.9133 124.328 39.82C124.328 38.7267 124.554 37.7667 125.008 36.94C125.461 36.1 126.094 35.4533 126.908 35C127.734 34.5467 128.681 34.32 129.748 34.32C130.948 34.32 131.961 34.5667 132.788 35.06V37.38H132.708C132.268 37.1133 131.788 36.9133 131.268 36.78C130.761 36.6467 130.288 36.58 129.848 36.58C128.928 36.58 128.234 36.8533 127.768 37.4C127.301 37.9467 127.068 38.7533 127.068 39.82C127.068 41.9267 127.981 42.98 129.808 42.98C130.288 42.98 130.774 42.9067 131.268 42.76C131.774 42.6 132.254 42.38 132.708 42.1H132.788V44.46C131.934 44.98 130.921 45.24 129.748 45.24ZM139.588 40.62L138.388 41.94V45H135.748V29.92H138.388V38.76L142.028 34.56H145.028L141.228 38.78L145.268 45H142.248L139.588 40.62ZM147.35 29.92H149.99V39.92H147.35V29.92ZM148.67 45.24C148.177 45.24 147.757 45.08 147.41 44.76C147.077 44.4267 146.91 43.9933 146.91 43.46C146.91 42.9267 147.077 42.5 147.41 42.18C147.757 41.8467 148.177 41.68 148.67 41.68C149.163 41.68 149.577 41.8467 149.91 42.18C150.257 42.5 150.43 42.9267 150.43 43.46C150.43 43.9933 150.257 44.4267 149.91 44.76C149.577 45.08 149.163 45.24 148.67 45.24ZM178.368 31.08L173.988 45H170.908L167.948 35L164.988 45H161.908L157.528 31.08H160.388L163.488 41.78L166.548 31.08H169.448L172.508 41.78L175.608 31.08H178.368ZM186.039 34.32C187.092 34.32 187.939 34.6333 188.579 35.26C189.232 35.8733 189.559 36.6867 189.559 37.7V45H186.919V39.2C186.919 38.2933 186.779 37.6467 186.499 37.26C186.232 36.86 185.786 36.66 185.159 36.66C184.452 36.66 183.719 37.0533 182.959 37.84V45H180.319V29.92H182.959V35.64C183.479 35.1733 183.979 34.84 184.459 34.64C184.952 34.4267 185.479 34.32 186.039 34.32ZM202.332 40.58H195.072C195.179 41.38 195.472 41.9933 195.952 42.42C196.445 42.8467 197.099 43.06 197.912 43.06C198.512 43.06 199.159 42.9533 199.852 42.74C200.559 42.5133 201.212 42.2067 201.812 41.82H201.892V43.96C201.359 44.3733 200.745 44.6933 200.052 44.92C199.372 45.1333 198.652 45.24 197.892 45.24C196.799 45.24 195.845 45.02 195.032 44.58C194.219 44.14 193.592 43.5067 193.152 42.68C192.712 41.8533 192.492 40.8867 192.492 39.78C192.492 38.7 192.699 37.7467 193.112 36.92C193.539 36.0933 194.132 35.4533 194.892 35C195.652 34.5467 196.532 34.32 197.532 34.32C198.505 34.32 199.352 34.54 200.072 34.98C200.805 35.42 201.365 36.0533 201.752 36.88C202.139 37.7067 202.332 38.6733 202.332 39.78V40.58ZM197.532 36.44C196.905 36.44 196.379 36.6467 195.952 37.06C195.539 37.4733 195.259 38.0467 195.112 38.78H199.612C199.505 38.02 199.279 37.44 198.932 37.04C198.585 36.64 198.119 36.44 197.532 36.44ZM210.824 34.32C211.878 34.32 212.724 34.6333 213.364 35.26C214.018 35.8733 214.344 36.6867 214.344 37.7V45H211.704V39.2C211.704 38.2933 211.564 37.6467 211.284 37.26C211.018 36.86 210.571 36.66 209.944 36.66C209.251 36.66 208.518 37.0467 207.744 37.82V45H205.104V36.88L204.664 34.56H207.084L207.464 35.9C208.038 35.34 208.591 34.94 209.124 34.7C209.658 34.4467 210.224 34.32 210.824 34.32ZM238.663 34.56L235.483 45H232.323L230.303 38L228.323 45H225.163L221.963 34.56H224.643L226.843 42.3L229.003 34.56H231.683L233.883 42.32L236.063 34.56H238.663ZM247.09 45L246.83 43.74C245.883 44.74 244.743 45.24 243.41 45.24C242.356 45.24 241.496 44.9667 240.83 44.42C240.176 43.8733 239.85 43.1533 239.85 42.26C239.85 41.1 240.276 40.2 241.13 39.56C241.996 38.9067 243.243 38.58 244.87 38.58C245.456 38.58 246.043 38.6067 246.63 38.66V38.28C246.63 37.6933 246.463 37.26 246.13 36.98C245.796 36.6867 245.27 36.54 244.55 36.54C243.843 36.54 243.183 36.66 242.57 36.9C241.97 37.1267 241.316 37.5 240.61 38.02V35.66C241.223 35.1933 241.863 34.8533 242.53 34.64C243.196 34.4267 243.93 34.32 244.73 34.32C246.21 34.32 247.336 34.64 248.11 35.28C248.896 35.9067 249.29 36.8267 249.29 38.04V42.68L249.73 45H247.09ZM242.49 42.06C242.49 42.8333 242.93 43.22 243.81 43.22C244.316 43.22 244.796 43.12 245.25 42.92C245.703 42.7067 246.163 42.3733 246.63 41.92V40.5H244.71C243.936 40.5 243.37 40.6133 243.01 40.84C242.663 41.0667 242.49 41.4733 242.49 42.06ZM255.351 45.24C254.658 45.24 253.978 45.1467 253.311 44.96C252.645 44.76 252.018 44.48 251.431 44.12V41.62C252.071 42.1 252.678 42.4533 253.251 42.68C253.825 42.9067 254.445 43.02 255.111 43.02C255.791 43.02 256.291 42.9333 256.611 42.76C256.945 42.5867 257.111 42.32 257.111 41.96C257.111 41.6133 256.951 41.36 256.631 41.2C256.325 41.0267 255.831 40.86 255.151 40.7C254.405 40.5133 253.798 40.3267 253.331 40.14C252.865 39.94 252.458 39.62 252.111 39.18C251.778 38.74 251.611 38.1467 251.611 37.4C251.611 36.4667 251.991 35.72 252.751 35.16C253.525 34.6 254.558 34.32 255.851 34.32C256.478 34.32 257.058 34.3933 257.591 34.54C258.125 34.6733 258.671 34.9 259.231 35.22V37.66C258.658 37.26 258.125 36.9733 257.631 36.8C257.138 36.6267 256.611 36.54 256.051 36.54C255.438 36.54 254.965 36.62 254.631 36.78C254.298 36.9267 254.131 37.1467 254.131 37.44C254.131 37.7333 254.271 37.9533 254.551 38.1C254.845 38.2333 255.305 38.3733 255.931 38.52C256.678 38.68 257.298 38.8667 257.791 39.08C258.298 39.28 258.731 39.6133 259.091 40.08C259.451 40.5333 259.631 41.1667 259.631 41.98C259.631 42.6067 259.451 43.1733 259.091 43.68C258.731 44.1733 258.225 44.56 257.571 44.84C256.918 45.1067 256.178 45.24 255.351 45.24ZM270.837 34.56H273.237V36.52H270.837V41.56C270.837 42.5733 271.223 43.08 271.997 43.08C272.357 43.08 272.777 42.9533 273.257 42.7V44.88C272.923 45 272.61 45.0867 272.317 45.14C272.037 45.2067 271.717 45.24 271.357 45.24C269.25 45.24 268.197 44.0133 268.197 41.56V36.52H266.677V34.56H268.197V31.76L270.837 30.84V34.56ZM281.645 34.32C282.698 34.32 283.545 34.6333 284.185 35.26C284.838 35.8733 285.165 36.6867 285.165 37.7V45H282.525V39.2C282.525 38.2933 282.385 37.6467 282.105 37.26C281.838 36.86 281.391 36.66 280.765 36.66C280.058 36.66 279.325 37.0533 278.565 37.84V45H275.925V29.92H278.565V35.64C279.085 35.1733 279.585 34.84 280.065 34.64C280.558 34.4267 281.085 34.32 281.645 34.32ZM297.938 40.58H290.678C290.784 41.38 291.078 41.9933 291.558 42.42C292.051 42.8467 292.704 43.06 293.518 43.06C294.118 43.06 294.764 42.9533 295.458 42.74C296.164 42.5133 296.818 42.2067 297.418 41.82H297.497V43.96C296.964 44.3733 296.351 44.6933 295.658 44.92C294.978 45.1333 294.258 45.24 293.498 45.24C292.404 45.24 291.451 45.02 290.638 44.58C289.824 44.14 289.198 43.5067 288.758 42.68C288.318 41.8533 288.098 40.8867 288.098 39.78C288.098 38.7 288.304 37.7467 288.718 36.92C289.144 36.0933 289.738 35.4533 290.498 35C291.258 34.5467 292.138 34.32 293.138 34.32C294.111 34.32 294.958 34.54 295.678 34.98C296.411 35.42 296.971 36.0533 297.358 36.88C297.744 37.7067 297.938 38.6733 297.938 39.78V40.58ZM293.138 36.44C292.511 36.44 291.984 36.6467 291.558 37.06C291.144 37.4733 290.864 38.0467 290.718 38.78H295.218C295.111 38.02 294.884 37.44 294.538 37.04C294.191 36.64 293.724 36.44 293.138 36.44ZM40.82 72.24C40.1267 72.24 39.4467 72.1467 38.78 71.96C38.1133 71.76 37.4867 71.48 36.9 71.12V68.62C37.54 69.1 38.1467 69.4533 38.72 69.68C39.2933 69.9067 39.9133 70.02 40.58 70.02C41.26 70.02 41.76 69.9333 42.08 69.76C42.4133 69.5867 42.58 69.32 42.58 68.96C42.58 68.6133 42.42 68.36 42.1 68.2C41.7933 68.0267 41.3 67.86 40.62 67.7C39.8733 67.5133 39.2667 67.3267 38.8 67.14C38.3333 66.94 37.9267 66.62 37.58 66.18C37.2467 65.74 37.08 65.1467 37.08 64.4C37.08 63.4667 37.46 62.72 38.22 62.16C38.9933 61.6 40.0267 61.32 41.32 61.32C41.9467 61.32 42.5267 61.3933 43.06 61.54C43.5933 61.6733 44.14 61.9 44.7 62.22V64.66C44.1267 64.26 43.5933 63.9733 43.1 63.8C42.6067 63.6267 42.08 63.54 41.52 63.54C40.9067 63.54 40.4333 63.62 40.1 63.78C39.7667 63.9267 39.6 64.1467 39.6 64.44C39.6 64.7333 39.74 64.9533 40.02 65.1C40.3133 65.2333 40.7733 65.3733 41.4 65.52C42.1467 65.68 42.7667 65.8667 43.26 66.08C43.7667 66.28 44.2 66.6133 44.56 67.08C44.92 67.5333 45.1 68.1667 45.1 68.98C45.1 69.6067 44.92 70.1733 44.56 70.68C44.2 71.1733 43.6933 71.56 43.04 71.84C42.3867 72.1067 41.6467 72.24 40.82 72.24ZM50.7 61.56H53.1V63.52H50.7V68.56C50.7 69.5733 51.0867 70.08 51.86 70.08C52.22 70.08 52.64 69.9533 53.12 69.7V71.88C52.7867 72 52.4733 72.0867 52.18 72.14C51.9 72.2067 51.58 72.24 51.22 72.24C49.1133 72.24 48.06 71.0133 48.06 68.56V63.52H46.54V61.56H48.06V58.76L50.7 57.84V61.56ZM62.1678 72L61.9078 70.74C60.9611 71.74 59.8211 72.24 58.4878 72.24C57.4345 72.24 56.5745 71.9667 55.9078 71.42C55.2545 70.8733 54.9278 70.1533 54.9278 69.26C54.9278 68.1 55.3545 67.2 56.2078 66.56C57.0745 65.9067 58.3211 65.58 59.9478 65.58C60.5345 65.58 61.1211 65.6067 61.7078 65.66V65.28C61.7078 64.6933 61.5411 64.26 61.2078 63.98C60.8745 63.6867 60.3478 63.54 59.6278 63.54C58.9211 63.54 58.2611 63.66 57.6478 63.9C57.0478 64.1267 56.3945 64.5 55.6878 65.02V62.66C56.3011 62.1933 56.9411 61.8533 57.6078 61.64C58.2745 61.4267 59.0078 61.32 59.8078 61.32C61.2878 61.32 62.4145 61.64 63.1878 62.28C63.9745 62.9067 64.3678 63.8267 64.3678 65.04V69.68L64.8078 72H62.1678ZM57.5678 69.06C57.5678 69.8333 58.0078 70.22 58.8878 70.22C59.3945 70.22 59.8745 70.12 60.3278 69.92C60.7811 69.7067 61.2411 69.3733 61.7078 68.92V67.5H59.7878C59.0145 67.5 58.4478 67.6133 58.0878 67.84C57.7411 68.0667 57.5678 68.4733 57.5678 69.06ZM72.9494 61.32V63.92H72.6094C71.5694 63.92 70.7227 64.2067 70.0694 64.78V72H67.4294V63.88L66.9894 61.56H69.6294L69.8894 62.94C70.3294 62.34 70.7294 61.92 71.0894 61.68C71.4494 61.44 71.8494 61.32 72.2894 61.32H72.9494ZM78.7078 61.56H81.1078V63.52H78.7078V68.56C78.7078 69.5733 79.0945 70.08 79.8678 70.08C80.2278 70.08 80.6478 69.9533 81.1278 69.7V71.88C80.7945 72 80.4811 72.0867 80.1878 72.14C79.9078 72.2067 79.5878 72.24 79.2278 72.24C77.1211 72.24 76.0678 71.0133 76.0678 68.56V63.52H74.5478V61.56H76.0678V58.76L78.7078 57.84V61.56ZM96.7811 72L96.3811 70.6C95.9011 71.12 95.3411 71.52 94.7011 71.8C94.0744 72.08 93.4144 72.22 92.7211 72.22C91.4944 72.22 90.5211 71.74 89.8011 70.78C89.0944 69.82 88.7411 68.5133 88.7411 66.86C88.7411 65.1133 89.1478 63.7533 89.9611 62.78C90.7878 61.8067 91.9478 61.32 93.4411 61.32C94.4011 61.32 95.2944 61.5267 96.1211 61.94V56.92H98.7611V69.68L99.2011 72H96.7811ZM91.5211 66.82C91.5211 67.86 91.6811 68.66 92.0011 69.22C92.3211 69.78 92.7944 70.06 93.4211 70.06C94.3011 70.06 95.2011 69.62 96.1211 68.74V63.8C95.3478 63.6 94.6411 63.5 94.0011 63.5C93.1478 63.5 92.5211 63.7733 92.1211 64.32C91.7211 64.8533 91.5211 65.6867 91.5211 66.82ZM108.574 72L108.314 70.74C107.367 71.74 106.227 72.24 104.894 72.24C103.841 72.24 102.981 71.9667 102.314 71.42C101.661 70.8733 101.334 70.1533 101.334 69.26C101.334 68.1 101.761 67.2 102.614 66.56C103.481 65.9067 104.727 65.58 106.354 65.58C106.941 65.58 107.527 65.6067 108.114 65.66V65.28C108.114 64.6933 107.947 64.26 107.614 63.98C107.281 63.6867 106.754 63.54 106.034 63.54C105.327 63.54 104.667 63.66 104.054 63.9C103.454 64.1267 102.801 64.5 102.094 65.02V62.66C102.707 62.1933 103.347 61.8533 104.014 61.64C104.681 61.4267 105.414 61.32 106.214 61.32C107.694 61.32 108.821 61.64 109.594 62.28C110.381 62.9067 110.774 63.8267 110.774 65.04V69.68L111.214 72H108.574ZM103.974 69.06C103.974 69.8333 104.414 70.22 105.294 70.22C105.801 70.22 106.281 70.12 106.734 69.92C107.187 69.7067 107.647 69.3733 108.114 68.92V67.5H106.194C105.421 67.5 104.854 67.6133 104.494 67.84C104.147 68.0667 103.974 68.4733 103.974 69.06ZM116.716 61.56H119.116V63.52H116.716V68.56C116.716 69.5733 117.102 70.08 117.876 70.08C118.236 70.08 118.656 69.9533 119.136 69.7V71.88C118.802 72 118.489 72.0867 118.196 72.14C117.916 72.2067 117.596 72.24 117.236 72.24C115.129 72.24 114.076 71.0133 114.076 68.56V63.52H112.556V61.56H114.076V58.76L116.716 57.84V61.56ZM131.023 67.58H123.763C123.87 68.38 124.163 68.9933 124.643 69.42C125.137 69.8467 125.79 70.06 126.603 70.06C127.203 70.06 127.85 69.9533 128.543 69.74C129.25 69.5133 129.903 69.2067 130.503 68.82H130.583V70.96C130.05 71.3733 129.437 71.6933 128.743 71.92C128.063 72.1333 127.343 72.24 126.583 72.24C125.49 72.24 124.537 72.02 123.723 71.58C122.91 71.14 122.283 70.5067 121.843 69.68C121.403 68.8533 121.183 67.8867 121.183 66.78C121.183 65.7 121.39 64.7467 121.803 63.92C122.23 63.0933 122.823 62.4533 123.583 62C124.343 61.5467 125.223 61.32 126.223 61.32C127.197 61.32 128.043 61.54 128.763 61.98C129.497 62.42 130.057 63.0533 130.443 63.88C130.83 64.7067 131.023 65.6733 131.023 66.78V67.58ZM126.223 63.44C125.597 63.44 125.07 63.6467 124.643 64.06C124.23 64.4733 123.95 65.0467 123.803 65.78H128.303C128.197 65.02 127.97 64.44 127.623 64.04C127.277 63.64 126.81 63.44 126.223 63.44ZM144.021 72.24C142.968 72.24 142.041 72.02 141.241 71.58C140.441 71.1267 139.821 70.4867 139.381 69.66C138.954 68.8333 138.741 67.8733 138.741 66.78C138.741 65.6867 138.954 64.7267 139.381 63.9C139.821 63.0733 140.441 62.44 141.241 62C142.041 61.5467 142.968 61.32 144.021 61.32C145.074 61.32 146.001 61.5467 146.801 62C147.601 62.44 148.214 63.0733 148.641 63.9C149.081 64.7267 149.301 65.6867 149.301 66.78C149.301 67.8733 149.081 68.8333 148.641 69.66C148.214 70.4867 147.601 71.1267 146.801 71.58C146.001 72.02 145.074 72.24 144.021 72.24ZM144.021 70.06C144.808 70.06 145.421 69.78 145.861 69.22C146.301 68.6467 146.521 67.8333 146.521 66.78C146.521 65.7133 146.301 64.9 145.861 64.34C145.421 63.78 144.808 63.5 144.021 63.5C143.234 63.5 142.621 63.78 142.181 64.34C141.741 64.9 141.521 65.7133 141.521 66.78C141.521 67.8333 141.741 68.6467 142.181 69.22C142.621 69.78 143.234 70.06 144.021 70.06ZM152.434 63.52H150.874V61.56H152.434V60.36C152.434 59.12 152.721 58.2 153.294 57.6C153.867 56.9867 154.701 56.68 155.794 56.68C156.207 56.68 156.561 56.72 156.854 56.8C157.147 56.88 157.434 57 157.714 57.16V59.34C157.127 59.0333 156.601 58.88 156.134 58.88C155.747 58.88 155.474 58.9933 155.314 59.22C155.154 59.4333 155.074 59.8133 155.074 60.36V61.56H157.514V63.52H155.074V72H152.434V63.52ZM174.327 61.56L168.347 76.64H165.847L167.547 72.34L163.327 61.56H166.007L168.907 69.2L171.687 61.56H174.327ZM180.818 72.24C179.765 72.24 178.838 72.02 178.038 71.58C177.238 71.1267 176.618 70.4867 176.178 69.66C175.751 68.8333 175.538 67.8733 175.538 66.78C175.538 65.6867 175.751 64.7267 176.178 63.9C176.618 63.0733 177.238 62.44 178.038 62C178.838 61.5467 179.765 61.32 180.818 61.32C181.871 61.32 182.798 61.5467 183.598 62C184.398 62.44 185.011 63.0733 185.438 63.9C185.878 64.7267 186.098 65.6867 186.098 66.78C186.098 67.8733 185.878 68.8333 185.438 69.66C185.011 70.4867 184.398 71.1267 183.598 71.58C182.798 72.02 181.871 72.24 180.818 72.24ZM180.818 70.06C181.605 70.06 182.218 69.78 182.658 69.22C183.098 68.6467 183.318 67.8333 183.318 66.78C183.318 65.7133 183.098 64.9 182.658 64.34C182.218 63.78 181.605 63.5 180.818 63.5C180.031 63.5 179.418 63.78 178.978 64.34C178.538 64.9 178.318 65.7133 178.318 66.78C178.318 67.8333 178.538 68.6467 178.978 69.22C179.418 69.78 180.031 70.06 180.818 70.06ZM196.171 72L195.791 70.64C195.111 71.24 194.511 71.66 193.991 71.9C193.484 72.1267 192.904 72.24 192.251 72.24C191.624 72.24 191.051 72.0933 190.531 71.8C190.024 71.5067 189.624 71.1067 189.331 70.6C189.051 70.08 188.911 69.5 188.911 68.86V61.56H191.551V67.36C191.551 68.2 191.684 68.8333 191.951 69.26C192.218 69.6867 192.604 69.9 193.111 69.9C193.538 69.9 193.938 69.8067 194.311 69.62C194.684 69.4333 195.084 69.1333 195.511 68.72V61.56H198.151V69.68L198.591 72H196.171ZM207.344 61.32V63.92H207.004C205.964 63.92 205.117 64.2067 204.464 64.78V72H201.824V63.88L201.384 61.56H204.024L204.284 62.94C204.724 62.34 205.124 61.92 205.484 61.68C205.844 61.44 206.244 61.32 206.684 61.32H207.344ZM220.568 72.24C219.474 72.24 218.514 72.02 217.688 71.58C216.874 71.1267 216.248 70.4933 215.808 69.68C215.368 68.8667 215.148 67.9133 215.148 66.82C215.148 65.7267 215.374 64.7667 215.828 63.94C216.281 63.1 216.914 62.4533 217.728 62C218.554 61.5467 219.501 61.32 220.568 61.32C221.768 61.32 222.781 61.5667 223.608 62.06V64.38H223.528C223.088 64.1133 222.608 63.9133 222.088 63.78C221.581 63.6467 221.108 63.58 220.668 63.58C219.748 63.58 219.054 63.8533 218.588 64.4C218.121 64.9467 217.888 65.7533 217.888 66.82C217.888 68.9267 218.801 69.98 220.628 69.98C221.108 69.98 221.594 69.9067 222.088 69.76C222.594 69.6 223.074 69.38 223.528 69.1H223.608V71.46C222.754 71.98 221.741 72.24 220.568 72.24ZM233.769 72L233.389 70.64C232.709 71.24 232.109 71.66 231.589 71.9C231.082 72.1267 230.502 72.24 229.849 72.24C229.222 72.24 228.649 72.0933 228.129 71.8C227.622 71.5067 227.222 71.1067 226.929 70.6C226.649 70.08 226.509 69.5 226.509 68.86V61.56H229.149V67.36C229.149 68.2 229.282 68.8333 229.549 69.26C229.815 69.6867 230.202 69.9 230.709 69.9C231.135 69.9 231.535 69.8067 231.909 69.62C232.282 69.4333 232.682 69.1333 233.109 68.72V61.56H235.749V69.68L236.189 72H233.769ZM244.942 61.32V63.92H244.602C243.562 63.92 242.715 64.2067 242.062 64.78V72H239.422V63.88L238.982 61.56H241.622L241.882 62.94C242.322 62.34 242.722 61.92 243.082 61.68C243.442 61.44 243.842 61.32 244.282 61.32H244.942ZM253.34 61.32V63.92H253C251.96 63.92 251.113 64.2067 250.46 64.78V72H247.82V63.88L247.38 61.56H250.02L250.28 62.94C250.72 62.34 251.12 61.92 251.48 61.68C251.84 61.44 252.24 61.32 252.68 61.32H253.34ZM265.008 67.58H257.748C257.854 68.38 258.148 68.9933 258.628 69.42C259.121 69.8467 259.774 70.06 260.588 70.06C261.188 70.06 261.834 69.9533 262.528 69.74C263.234 69.5133 263.888 69.2067 264.488 68.82H264.568V70.96C264.034 71.3733 263.421 71.6933 262.728 71.92C262.048 72.1333 261.328 72.24 260.568 72.24C259.474 72.24 258.521 72.02 257.708 71.58C256.894 71.14 256.268 70.5067 255.828 69.68C255.388 68.8533 255.168 67.8867 255.168 66.78C255.168 65.7 255.374 64.7467 255.788 63.92C256.214 63.0933 256.808 62.4533 257.568 62C258.328 61.5467 259.208 61.32 260.208 61.32C261.181 61.32 262.028 61.54 262.748 61.98C263.481 62.42 264.041 63.0533 264.428 63.88C264.814 64.7067 265.008 65.6733 265.008 66.78V67.58ZM260.208 63.44C259.581 63.44 259.054 63.6467 258.628 64.06C258.214 64.4733 257.934 65.0467 257.788 65.78H262.288C262.181 65.02 261.954 64.44 261.608 64.04C261.261 63.64 260.794 63.44 260.208 63.44ZM273.5 61.32C274.553 61.32 275.4 61.6333 276.04 62.26C276.693 62.8733 277.02 63.6867 277.02 64.7V72H274.38V66.2C274.38 65.2933 274.24 64.6467 273.96 64.26C273.693 63.86 273.247 63.66 272.62 63.66C271.927 63.66 271.193 64.0467 270.42 64.82V72H267.78V63.88L267.34 61.56H269.76L270.14 62.9C270.713 62.34 271.267 61.94 271.8 61.7C272.333 61.4467 272.9 61.32 273.5 61.32ZM283.493 61.56H285.893V63.52H283.493V68.56C283.493 69.5733 283.88 70.08 284.653 70.08C285.013 70.08 285.433 69.9533 285.913 69.7V71.88C285.58 72 285.266 72.0867 284.973 72.14C284.693 72.2067 284.373 72.24 284.013 72.24C281.906 72.24 280.853 71.0133 280.853 68.56V63.52H279.333V61.56H280.853V58.76L283.493 57.84V61.56ZM299.746 61.32V63.92H299.406C298.366 63.92 297.52 64.2067 296.866 64.78V72H294.226V63.88L293.786 61.56H296.426L296.686 62.94C297.126 62.34 297.526 61.92 297.886 61.68C298.246 61.44 298.646 61.32 299.086 61.32H299.746ZM306.814 72.24C305.761 72.24 304.834 72.02 304.034 71.58C303.234 71.1267 302.614 70.4867 302.174 69.66C301.747 68.8333 301.534 67.8733 301.534 66.78C301.534 65.6867 301.747 64.7267 302.174 63.9C302.614 63.0733 303.234 62.44 304.034 62C304.834 61.5467 305.761 61.32 306.814 61.32C307.867 61.32 308.794 61.5467 309.594 62C310.394 62.44 311.007 63.0733 311.434 63.9C311.874 64.7267 312.094 65.6867 312.094 66.78C312.094 67.8733 311.874 68.8333 311.434 69.66C311.007 70.4867 310.394 71.1267 309.594 71.58C308.794 72.02 307.867 72.24 306.814 72.24ZM306.814 70.06C307.601 70.06 308.214 69.78 308.654 69.22C309.094 68.6467 309.314 67.8333 309.314 66.78C309.314 65.7133 309.094 64.9 308.654 64.34C308.214 63.78 307.601 63.5 306.814 63.5C306.027 63.5 305.414 63.78 304.974 64.34C304.534 64.9 304.314 65.7133 304.314 66.78C304.314 67.8333 304.534 68.6467 304.974 69.22C305.414 69.78 306.027 70.06 306.814 70.06ZM314.687 56.92H317.327V72H314.687V56.92ZM329.813 67.58H322.553C322.659 68.38 322.953 68.9933 323.433 69.42C323.926 69.8467 324.579 70.06 325.393 70.06C325.993 70.06 326.639 69.9533 327.333 69.74C328.039 69.5133 328.693 69.2067 329.293 68.82H329.372V70.96C328.839 71.3733 328.226 71.6933 327.533 71.92C326.853 72.1333 326.133 72.24 325.373 72.24C324.279 72.24 323.326 72.02 322.513 71.58C321.699 71.14 321.073 70.5067 320.633 69.68C320.193 68.8533 319.973 67.8867 319.973 66.78C319.973 65.7 320.179 64.7467 320.593 63.92C321.019 63.0933 321.613 62.4533 322.373 62C323.133 61.5467 324.013 61.32 325.013 61.32C325.986 61.32 326.833 61.54 327.553 61.98C328.286 62.42 328.846 63.0533 329.233 63.88C329.619 64.7067 329.813 65.6733 329.813 66.78V67.58ZM325.013 63.44C324.386 63.44 323.859 63.6467 323.433 64.06C323.019 64.4733 322.739 65.0467 322.593 65.78H327.093C326.986 65.02 326.759 64.44 326.413 64.04C326.066 63.64 325.599 63.44 325.013 63.44ZM333.885 66.78C333.885 66.02 334.011 65.3933 334.265 64.9C334.518 64.3933 334.825 64 335.185 63.72C335.545 63.4267 335.998 63.1267 336.545 62.82C337.131 62.4867 337.558 62.1933 337.825 61.94C338.105 61.6733 338.245 61.3133 338.245 60.86C338.245 60.2733 337.985 59.82 337.465 59.5C336.958 59.1667 336.285 59 335.445 59C334.178 59 332.951 59.38 331.765 60.14H331.685V57.78C332.845 57.0467 334.151 56.68 335.605 56.68C336.605 56.68 337.505 56.84 338.305 57.16C339.105 57.48 339.738 57.9533 340.205 58.58C340.685 59.2067 340.925 59.9667 340.925 60.86C340.925 61.5 340.805 62.04 340.565 62.48C340.325 62.9067 340.031 63.2533 339.685 63.52C339.338 63.7733 338.891 64.0467 338.345 64.34C337.731 64.6733 337.271 64.98 336.965 65.26C336.671 65.54 336.525 65.9133 336.525 66.38V66.92H333.885V66.78ZM335.185 72.24C334.691 72.24 334.271 72.08 333.925 71.76C333.591 71.4267 333.425 70.9933 333.425 70.46C333.425 69.9267 333.591 69.5 333.925 69.18C334.271 68.8467 334.691 68.68 335.185 68.68C335.678 68.68 336.091 68.8467 336.425 69.18C336.771 69.5 336.945 69.9267 336.945 70.46C336.945 70.9933 336.771 71.4267 336.425 71.76C336.091 72.08 335.678 72.24 335.185 72.24Z" fill="white"/>
</svg>
