<svg clip-rule="evenodd" fill-rule="evenodd" image-rendering="optimizeQuality" shape-rendering="geometricPrecision" text-rendering="geometricPrecision" viewBox="0 0 512 512" fill="#fff"  xmlns="http://www.w3.org/2000/svg" xmlns:xodm="http://www.corel.com/coreldraw/odm/2003"><g id="Layer_x0020_1"><g id="_2456905896400"><g><g><g id="_205839016"><path d="m438 427.95h-85.59c-3.31 0-5.99-2.69-5.99-6v-4.33c0-26.91 21.88-48.79 48.79-48.79 26.9 0 48.79 21.88 48.79 48.79v4.33c0 3.31-2.69 6-6 6zm-79.56-11.99h73.53c-.87-19.53-17.02-35.14-36.76-35.14s-35.9 15.61-36.77 35.14z"/></g><g id="_205838824"><path d="m395.21 360.03c-15.06 0-27.31-12.25-27.31-27.31 0-15.05 12.25-27.3 27.31-27.3 15.05 0 27.3 12.25 27.3 27.3 0 15.06-12.25 27.31-27.3 27.31zm0-42.62c-8.45 0-15.32 6.87-15.32 15.31 0 8.45 6.87 15.32 15.32 15.32 8.44 0 15.31-6.87 15.31-15.32 0-8.44-6.87-15.31-15.31-15.31z"/></g><g id="_205840936"><path d="m395.21 462.78c-53.59 0-97.19-43.6-97.19-97.19s43.6-97.19 97.19-97.19 97.19 43.6 97.19 97.19-43.6 97.19-97.19 97.19zm0-182.39c-46.98 0-85.21 38.22-85.21 85.2s38.23 85.2 85.21 85.2 85.2-38.22 85.2-85.2-38.22-85.2-85.2-85.2z"/></g></g><g id="_205844776"><path d="m356.77 511.75h-275.64c-33.92 0-61.53-27.6-61.53-61.53v-364.04c0-33.92 27.6-61.52 61.53-61.52l41.95-.01c1.59 0 3.11.64 4.23 1.76 1.13 1.12 1.76 2.65 1.76 4.24v47.89c0 2.8 2.28 5.08 5.08 5.08h169.6c2.8 0 5.08-2.28 5.08-5.08v-47.89c0-3.31 2.68-6 5.99-6h41.95c33.93 0 61.53 27.61 61.53 61.53v189.82c0 1.79-.8 3.48-2.17 4.62s-3.18 1.6-4.94 1.27c-5.26-1-10.64-1.5-15.98-1.5-46.98 0-85.2 38.22-85.2 85.2s38.22 85.2 85.2 85.2c5.27 0 10.58-.49 15.77-1.46 1.84-.35 3.74.19 5.13 1.46 1.39 1.26 2.11 3.1 1.94 4.97-2.84 31.4-29.75 55.99-61.28 55.99zm-275.64-475.11c-27.31 0-49.54 22.23-49.54 49.54v364.04c0 27.32 22.23 49.55 49.54 49.55h275.64c22.77 0 42.55-15.94 48.03-37.47-3.19.32-6.4.48-9.59.48-53.59 0-97.19-43.6-97.19-97.19s43.6-97.19 97.19-97.19c3.7 0 7.41.21 11.1.63v-182.85c0-27.31-22.22-49.54-49.54-49.54h-35.95v41.9c0 9.41-7.66 17.06-17.07 17.06h-169.61c-9.4 0-17.06-7.65-17.06-17.06v-41.9h-35.95z"/></g><g id="_205841560"><path d="m335.57 477.2h-233.24c-26.56 0-48.17-21.62-48.17-48.18v-321.63c0-26.57 21.61-48.18 48.17-48.18h20.75c3.31 0 5.99 2.69 5.99 6v13.33c0 2.8 2.28 5.08 5.08 5.08h169.6c2.8 0 5.08-2.28 5.08-5.08v-13.33c0-3.31 2.69-6 5.99-6h20.75c26.56 0 48.17 21.61 48.17 48.18v168.68c0 2.87-2.03 5.34-4.85 5.88-39.91 7.74-68.88 42.92-68.88 83.64 0 37.82 25.36 71.5 61.68 81.91 1.86.53 3.35 1.94 4 3.77.64 1.84.36 3.87-.76 5.45-9.06 12.82-23.78 20.48-39.36 20.48zm-233.24-406c-19.95 0-36.18 16.23-36.18 36.19v321.63c0 19.96 16.23 36.19 36.18 36.19h233.24c8.9 0 17.43-3.34 24-9.18-36.66-14.48-61.55-50.43-61.55-90.44 0-44.79 30.72-83.69 73.73-94.34v-163.86c0-19.96-16.23-36.19-36.18-36.19h-14.75v7.34c0 9.41-7.66 17.07-17.07 17.07h-169.6c-9.41 0-17.07-7.66-17.07-17.07v-7.34z"/></g><g id="_205841584"><path d="m303.75 95.6h-169.6c-9.41 0-17.07-7.65-17.07-17.06v-61.23c0-9.41 7.66-17.06 17.07-17.06h169.6c9.41 0 17.07 7.65 17.07 17.06v61.23c0 9.41-7.66 17.06-17.07 17.06zm-169.6-83.36c-2.8 0-5.08 2.27-5.08 5.07v61.23c0 2.8 2.28 5.08 5.08 5.08h169.6c2.8 0 5.08-2.28 5.08-5.08v-61.23c0-2.8-2.28-5.08-5.08-5.08z"/></g><g id="_205839400"><path d="m326.21 147.63h-214.51c-3.31 0-6-2.68-6-5.99s2.69-6 6-6h214.51c3.31 0 5.99 2.69 5.99 6s-2.68 5.99-5.99 5.99z"/></g><g id="_205840624"><path d="m326.21 203.14h-214.51c-3.31 0-6-2.69-6-5.99 0-3.32 2.69-6 6-6h214.51c3.31 0 5.99 2.68 5.99 6 0 3.3-2.68 5.99-5.99 5.99z"/></g><g id="_205837936"><path d="m326.21 258.65h-214.51c-3.31 0-6-2.69-6-6s2.69-5.99 6-5.99h214.51c3.31 0 5.99 2.68 5.99 5.99s-2.68 6-5.99 6z"/></g><g id="_205837888"><path d="m324.37 314.16h-212.67c-3.31 0-6-2.69-6-6s2.69-5.99 6-5.99h212.66c3.32 0 6 2.68 6 5.99s-2.68 6-5.99 6z"/></g><g id="_205842232"><path d="m304.04 369.67h-192.34c-3.31 0-6-2.69-6-6s2.69-5.99 6-5.99h192.34c3.31 0 5.99 2.68 5.99 5.99s-2.68 6-5.99 6z"/></g><g id="_205842136"><path d="m321.42 425.18h-209.72c-3.31 0-6-2.69-6-6s2.69-5.99 6-5.99h209.72c3.31 0 6 2.68 6 5.99s-2.69 6-6 6z"/></g></g></g></g></svg>