<svg id="Data_Fetch" viewBox="0 0 64 64" fill="#FFF" xmlns="http://www.w3.org/2000/svg" data-name="Data Fetch"><path d="m54 35.37v-10.37c0-.55-.45-1-1-1h-4v-21c0-.55-.45-1-1-1h-40c-.55 0-1 .45-1 1v15h-4c-.55 0-1 .45-1 1v36c0 .55.45 1 1 1h33.53c2.53 3.62 6.72 6 11.47 6 7.72 0 14-6.28 14-14 0-5.57-3.28-10.38-8-12.63zm-6 21.63h-.01c-.15 0-.28-.04-.41-.1-.01 0-.02 0-.03 0-.04-.02-.07-.06-.11-.08-.06-.05-.12-.08-.17-.14-.04-.04-.07-.1-.11-.15-.03-.06-.07-.11-.09-.17-.02-.07-.03-.14-.04-.21-.01-.05-.03-.09-.03-.14 0-.01.01-.02.01-.03 0-.07.02-.13.04-.2.01-.06.02-.13.05-.19 0 0 0-.02.01-.03l2-4c.24-.49.84-.69 1.34-.44.49.24.69.84.44 1.34l-1.16 2.32c3.02-.77 5.27-3.51 5.27-6.77 0-2.49-1.34-4.81-3.5-6.06-.48-.28-.64-.89-.37-1.37.28-.48.89-.64 1.37-.36 2.78 1.6 4.5 4.59 4.5 7.79 0 2.48-1.01 4.73-2.64 6.36s-3.88 2.64-6.36 2.64zm0-18s.02.01.03.01c.07 0 .13.02.19.03.07.02.14.03.2.06.01 0 .02 0 .03.01.04.02.07.06.11.08.06.04.12.08.17.14.04.04.07.1.11.15.03.06.07.11.09.17.02.07.03.14.04.21.01.05.03.09.03.14 0 .01-.01.02-.01.03 0 .07-.02.13-.04.2-.01.06-.02.13-.05.19 0 .01 0 .02-.01.03l-2 4c-.17.35-.52.55-.89.55-.15 0-.3-.03-.45-.11-.49-.24-.69-.84-.44-1.34l1.16-2.32c-3.02.77-5.27 3.51-5.27 6.77 0 2.49 1.34 4.81 3.5 6.06.48.28.64.89.37 1.37-.19.32-.53.5-.87.5-.17 0-.34-.04-.5-.14-2.78-1.6-4.5-4.59-4.5-7.79 0-4.96 4.04-9 9-9zm-5-30c0 .55-.45 1-1 1h-28c-.55 0-1-.45-1-1s.45-1 1-1h28c.55 0 1 .45 1 1zm-29 4h28c.55 0 1 .45 1 1s-.45 1-1 1h-28c-.55 0-1-.45-1-1s.45-1 1-1zm29 6c0 .55-.45 1-1 1h-18c-.55 0-1-.45-1-1s.45-1 1-1h18c.55 0 1 .45 1 1zm-39 35v-34h12.46l3.71 5.55s.06.08.1.12c.01.02.02.03.04.05.08.08.17.14.27.18.03.01.05.02.07.03.11.04.23.07.35.07h31v8.59c-1.27-.38-2.61-.59-4-.59-7.72 0-14 6.28-14 14 0 2.15.5 4.18 1.37 6z"/><rect height="6" rx="1" width="16" x="7" y="45"/><path d="m8 43h10c.55 0 1-.45 1-1s-.45-1-1-1h-10c-.55 0-1 .45-1 1s.45 1 1 1z"/></svg>