<svg id="Layer_1" enable-background="new 0 0 50 50" height="512" viewBox="0 0 50 50" width="512" xmlns="http://www.w3.org/2000/svg"><g><g><path d="m25 45.3c-11.2 0-20.4-9.1-20.4-20.3s9.2-20.4 20.4-20.4 20.3 9.1 20.3 20.4c0 11.2-9.1 20.3-20.3 20.3zm0-39.2c-10.4 0-18.9 8.5-18.9 18.9s8.5 18.8 18.9 18.8 18.8-8.5 18.8-18.8c0-10.4-8.4-18.9-18.8-18.9z"/></g><g><path d="m25 45.3c-6 0-10.6-8.9-10.6-20.3s4.6-20.4 10.6-20.4 10.7 8.9 10.7 20.4-4.7 20.3-10.7 20.3zm0-39.2c-5 0-9.1 8.6-9.1 18.9s4.1 18.8 9.1 18.8 9.2-8.6 9.2-18.8-4.2-18.9-9.2-18.9z"/></g><g><g><g><path d="m44.9 13.4c-.2 0-.4-.1-.6-.3l-3.4-4.2c-.2-.2-.2-.5-.1-.8s.4-.4.7-.4h1.2v-5.9c0-.4.3-.8.8-.8s.8.3.8.8v6.6c0 .4-.3.8-.8.8h-.4l1.8 2.3 1.8-2.3h-.5c-.4 0-.8-.3-.8-.8v-2c0-.4.3-.8.8-.8s.8.4.8.8v1.2h1.3c.3 0 .6.2.7.4.1.3.1.6-.1.8l-3.4 4.2c-.2.2-.4.4-.6.4z"/></g><g><path d="m46.2 4.2c-.4 0-.8-.3-.8-.8v-1.6c0-.4.3-.8.8-.8s.8.4.8.8v1.7c0 .4-.4.7-.8.7z"/></g></g></g><g><g><g><path d="m6.5 49c-.4 0-.8-.3-.8-.8v-6.7c0-.4.3-.8.8-.8h.4l-1.8-2.2-1.8 2.2h.5c.4 0 .8.3.8.8v2c0 .4-.3.8-.8.8s-.8-.3-.8-.7v-1.2h-1.2c-.3 0-.5-.2-.7-.4-.1-.3-.1-.6.1-.9l3.3-4.2c.1-.2.4-.3.6-.3s.4.1.6.3l3.4 4.2c.2.2.2.5.1.8s-.4.4-.7.4h-1.3v6c0 .4-.3.7-.7.7z"/></g><g><path d="m3.8 49c-.4 0-.8-.3-.8-.7v-1.8c0-.4.3-.8.8-.8s.8.3.8.8v1.8c-.1.4-.4.7-.8.7z"/></g></g></g><g><g><g><path d="m41.6 49c-.2 0-.3-.1-.5-.2l-4.2-3.4c-.2-.1-.3-.4-.3-.6s.1-.4.3-.6l4.2-3.4c.2-.2.5-.2.8-.1s.4.4.4.7v1.2h6c.4 0 .8.3.8.8s-.3.8-.8.8h-6.7c-.4 0-.8-.3-.8-.8v-.4l-2.3 1.8 2.3 1.8v-.5c0-.4.3-.8.8-.8h2c.4 0 .8.3.8.8s-.4.9-.8.9h-1.2v1.3c0 .3-.2.6-.4.7-.2 0-.3 0-.4 0z"/></g><g><path d="m48.3 47h-1.8c-.4 0-.8-.3-.8-.8s.3-.8.8-.8h1.8c.4 0 .8.3.8.8s-.4.8-.8.8z"/></g></g></g><g><g><g><path d="m8.4 9.2c-.1 0-.2 0-.3-.1-.3 0-.5-.3-.5-.6v-1.3h-5.8c-.4 0-.8-.3-.8-.7s.3-.8.8-.8h6.6c.4 0 .8.3.8.8v.4l2.2-1.8-2.3-1.8v.5c0 .4-.3.8-.8.8h-2c-.3-.1-.7-.4-.7-.8s.4-.8.8-.8h1.2v-1.2c0-.3.2-.5.4-.7.3-.1.6-.1.9.1l4.2 3.3c.2.1.3.4.3.6s-.1.4-.3.6l-4.2 3.4c-.2.1-.3.1-.5.1z"/></g><g><path d="m3.5 4.5h-1.7c-.4 0-.8-.3-.8-.7s.4-.8.8-.8h1.7c.4 0 .8.3.8.8s-.4.7-.8.7z"/></g></g></g><g><path d="m41.9 35.5h-33.8c-.4 0-.8-.3-.8-.8s.4-.7.8-.7h33.8c.4 0 .8.3.8.8s-.4.7-.8.7z"/></g><g><path d="m17.5 25.8h-12c-.4 0-.8-.3-.8-.8s.3-.8.8-.8h12c.4 0 .8.3.8.8s-.4.8-.8.8z"/></g><g><path d="m44.5 25.8h-12c-.4 0-.8-.3-.8-.8s.3-.8.8-.8h12c.4 0 .8.3.8.8s-.4.8-.8.8z"/></g><g><path d="m41.9 16h-33.8c-.4 0-.8-.3-.8-.8s.3-.8.8-.8h33.8c.4 0 .8.3.8.8s-.4.8-.8.8z"/></g><g><path d="m25 45.3c-.4 0-.8-.3-.8-.8v-12c0-.4.3-.8.8-.8s.8.3.8.8v12.1c0 .4-.4.7-.8.7z"/></g><g><path d="m25 18.2c-.4 0-.8-.3-.8-.8v-12c0-.4.3-.8.8-.8s.8.3.8.8v12.1c0 .4-.4.7-.8.7z"/></g><g><g><g><g><g><g><g><g><path d="m26.3 33.3h-2.3c-.4 0-.7-.3-.7-.7l-.1-1.2c-.4-.1-.7-.2-1.1-.4l-.9.7c-.3.2-.7.2-1-.1l-1.6-1.6c-.3-.3-.3-.7-.1-1l.7-.9c-.2-.3-.3-.7-.4-1l-1.2-.1c-.4 0-.7-.4-.7-.7v-2.3c0-.4.3-.7.7-.7l1.2-.1c.1-.4.2-.7.4-1.1l-.7-.9c-.2-.3-.2-.7.1-1l1.6-1.6c.3-.3.7-.3 1-.1l.9.7c.4-.2.7-.4 1.1-.5l.1-1.2c0-.4.4-.7.7-.7h2.3c.4 0 .7.3.7.7l.1 1.2c.4.1.7.2 1.1.4l.9-.7c.3-.2.7-.2 1 .1l1.6 1.6c.3.3.3.7.1 1l-.7.9c.2.3.3.7.4 1l1.2.1c.4 0 .7.4.7.7v2.3c0 .4-.3.7-.7.7l-1.2.1c-.1.3-.2.7-.4 1.1l.7 1c.2.3.2.7-.1 1l-1.6 1.6c-.3.3-.7.3-1 .1l-.9-.7c-.3.2-.7.3-1 .4l-.2 1.3c0 .4-.3.6-.7.6zm-1.6-1.5h1l.1-1c0-.3.3-.6.6-.7.5-.1 1-.3 1.6-.6.3-.1.6-.1.8.1l.8.6.7-.7-.6-.8c-.2-.2-.2-.5-.1-.8.3-.7.5-1.2.7-1.8.1-.3.3-.5.6-.5l1-.1v-1l-1-.1c-.3 0-.6-.3-.7-.6-.1-.5-.3-1-.6-1.6-.1-.3-.1-.6.1-.8l.6-.8-.8-.6-.8.6c-.3.2-.6.2-.9 0-.5-.3-.9-.5-1.5-.6-.3-.1-.6-.3-.6-.7l-.1-1h-1l-.1 1c0 .3-.3.6-.6.7-.4.1-.9.3-1.5.7-.3.2-.6.2-.9 0l-.8-.6-.7.7.6.8c.2.3.2.6 0 .9-.3.5-.5.9-.6 1.5-.1.3-.3.6-.7.6l-1 .1v1l1 .1c.3 0 .6.3.7.6.1.5.4 1 .6 1.6.1.3.1.6-.1.8l-.6.8.7.7.8-.6c.3-.2.6-.2.9 0 .5.3.9.5 1.5.6.3.1.6.3.6.7z"/></g></g></g></g></g></g></g></g><g><path d="m25 27.8c-1.6 0-2.9-1.3-2.9-2.8 0-1.6 1.3-2.9 2.9-2.9s2.8 1.3 2.8 2.9-1.2 2.8-2.8 2.8zm0-4.2c-.7 0-1.4.6-1.4 1.4 0 .7.6 1.3 1.4 1.3.7 0 1.3-.6 1.3-1.3s-.6-1.4-1.3-1.4z"/></g></g></svg>