<svg version="1.1" id="Layer_1" xmlns="http://www.w3.org/2000/svg" xmlns:xlink="http://www.w3.org/1999/xlink" x="0px" y="0px" viewBox="0 0 512 512" style="enable-background:new 0 0 512 512;" xml:space="preserve" width="300" height="300" xmlns:svgjs="http://svgjs.dev/svgjs"><g transform="matrix(1,0,0,1,0,0)"><g>
	
		<ellipse transform="matrix(0.9881 -0.154 0.154 0.9881 -25.056 14.6754)" style="fill-rule: evenodd; clip-rule: evenodd; stroke-linecap: round; stroke-linejoin: round; stroke-miterlimit: 22.9256;" cx="82.176" cy="169.03" rx="71.454" ry="71.454" fill="none" stroke="#fff" data-original-stroke-color="#fff" stroke-width="20" data-original-stroke-width="20"/>
	
		<ellipse transform="matrix(0.3545 -0.9351 0.9351 0.3545 119.4016 511.0209)" style="fill-rule: evenodd; clip-rule: evenodd; stroke-linecap: round; stroke-linejoin: round; stroke-miterlimit: 22.9256;" cx="429.824" cy="169.03" rx="71.454" ry="71.454" fill="none" stroke="#fff" data-original-stroke-color="#fff" stroke-width="20" data-original-stroke-width="20"/>
	
		<path style="fill-rule: evenodd; clip-rule: evenodd; stroke-linecap: round; stroke-linejoin: round; stroke-miterlimit: 22.9256;" d="&#10;&#9;&#9;M144.046,313.38V476H10V313.38c0-39.695,32.479-72.175,72.175-72.175h55.182c47.801,0,86.912-39.111,86.912-86.912&#10;&#9;&#9;c0-17.452,14.278-31.73,31.73-31.73c17.452,0,31.73,14.278,31.73,31.73c0,82.828-67.545,150.373-150.373,150.373h-28.84" fill="none" stroke="#fff" data-original-stroke-color="#fff" stroke-width="20" data-original-stroke-width="20"/>
	
		<path style="fill-rule: evenodd; clip-rule: evenodd; stroke-linecap: round; stroke-linejoin: round; stroke-miterlimit: 22.9256;" d="&#10;&#9;&#9;M367.954,313.38V476H502V313.38c0-39.695-32.479-72.175-72.175-72.175h-55.182c-47.802,0-86.912-39.111-86.912-86.912&#10;&#9;&#9; M257.253,248.1c27.595,34.445,69.989,56.566,117.39,56.566h28.84" fill="none" stroke="#fff" data-original-stroke-color="#fff" stroke-width="20" data-original-stroke-width="20"/>
	
		<line style="fill-rule: evenodd; clip-rule: evenodd; stroke-linecap: round; stroke-linejoin: round; stroke-miterlimit: 2.6131;" x1="256" y1="36" x2="256" y2="70.201" fill="none" stroke="#fff" data-original-stroke-color="#fff" stroke-width="20" data-original-stroke-width="20"/>
	
		<line style="fill-rule: evenodd; clip-rule: evenodd; stroke-linecap: round; stroke-linejoin: round; stroke-miterlimit: 2.6131;" x1="196.392" y1="51.972" x2="213.493" y2="81.591" fill="none" stroke="#fff" data-original-stroke-color="#fff" stroke-width="20" data-original-stroke-width="20"/>
	
		<line style="fill-rule: evenodd; clip-rule: evenodd; stroke-linecap: round; stroke-linejoin: round; stroke-miterlimit: 2.6131;" x1="315.608" y1="51.972" x2="298.507" y2="81.591" fill="none" stroke="#fff" data-original-stroke-color="#fff" stroke-width="20" data-original-stroke-width="20"/>
	
		<path style="fill-rule: evenodd; clip-rule: evenodd; stroke-linecap: round; stroke-linejoin: round; stroke-miterlimit: 2.6131;" d="&#10;&#9;&#9;M255.999,351.989c30.884-30.883,86.635,4.013,56.318,56.524c-13.953,24.168-42.095,46.325-56.318,50.136&#10;&#9;&#9;c-14.224-3.811-42.365-25.969-56.318-50.136C169.364,356.002,225.115,321.105,255.999,351.989z" fill="none" stroke="#fff" data-original-stroke-color="#fff" stroke-width="20" data-original-stroke-width="20"/>
</g><g>
</g><g>
</g><g>
</g><g>
</g><g>
</g><g>
</g><g>
</g><g>
</g><g>
</g><g>
</g><g>
</g><g>
</g><g>
</g><g>
</g><g>
</g></g></svg>