
<svg width="238" height="227" viewBox="0 0 238 227" fill="none" xmlns="http://www.w3.org/2000/svg">
<g opacity="0.44">
<path d="M232.638 346.363L263.062 345.646L260.749 247.532C260.001 248.179 259.254 248.825 258.368 249.57C257.608 248.487 256.965 247.558 256.293 246.599C257.208 245.854 258.094 245.11 259.064 244.332C259.621 245.231 260.149 246.068 260.708 246.998L260.437 235.492C260.382 235.557 260.326 235.589 260.243 235.654C259.539 234.57 258.954 233.703 258.281 232.681C258.945 232.099 259.636 231.485 260.328 230.871L260.049 219.051C259.931 218.865 259.815 218.711 259.669 218.525C259.78 218.428 259.891 218.331 260.029 218.234L259.014 175.166C257.684 176.266 256.299 177.4 254.997 178.469C253.886 176.859 252.543 174.972 251.402 173.301C252.925 172.038 254.809 170.484 256.36 169.189C257.125 170.523 258.068 172.168 258.98 173.751L258.731 163.157C258.094 163.706 257.485 164.224 256.931 164.678C255.732 162.913 254.211 160.716 252.925 158.859C254.342 157.882 256.231 156.547 257.982 155.342C258.158 155.621 258.362 155.9 258.566 156.178L258.413 149.67C257.071 147.878 255.789 146.178 254.593 144.571C255.971 144.318 257.254 143.659 258.249 142.754L258.012 132.695C257.376 132.081 256.659 131.594 255.834 131.331C253.102 130.451 249.941 131.721 248.907 134.576C248.297 136.226 248.124 138.464 248.587 140.151C249.049 141.776 250.548 143.062 251.628 144.578C248.48 145.187 246.269 147.22 245.962 150.971C245.656 154.752 247.631 157.096 250.886 158.592C247.113 159.059 246.197 159.741 243.914 163.506C242.675 158.88 240.818 156.785 237.651 156.577C235.021 156.419 232.157 158.31 231.548 161.219C231.193 162.957 231.302 165.156 231.933 166.777C232.563 168.335 234.113 169.43 235.215 170.663C232.204 171.111 231.178 171.89 229.117 175.493C228.991 174.961 228.895 174.46 228.772 174.023C227.906 170.866 225.74 168.81 223.108 168.558C220.391 168.307 217.892 170.096 216.694 173.175C216.533 173.557 216.372 173.906 216.183 174.288L216.238 174.224C216.103 178.065 217.414 180.959 221.181 182.632C217.798 182.9 215.746 184.49 214.36 187.982C213.924 183.872 211.981 181.685 209.016 180.497L209.102 180.557C205.963 180.38 203.42 181.509 202.059 184.875C200.592 188.496 201.97 191.86 205.501 194.293C203.749 195.467 201.775 196.772 199.774 198.109C199.177 195.575 197.525 193.758 195.156 192.713C191.335 192.331 188.636 194.031 187.615 197.452C186.543 201.063 187.853 203.926 191.929 206.723C188.711 206.799 186.694 208.671 185.33 211.88C185.142 211.098 185.017 210.598 184.893 210.129C183.993 206.69 181.486 204.548 178.58 204.679C175.675 204.81 173.329 207.131 172.728 210.384C172.153 213.543 173.577 216.435 176.41 218.035C176.897 218.307 177.275 218.77 177.707 219.137C174.728 218.547 172.03 220.278 170.975 223.448C169.761 227.062 171.136 230.27 174.865 232.761C173.748 233.259 172.371 233.575 171.318 234.417C170.237 235.292 169.479 236.662 168.52 237.912C168.393 237.317 168.267 236.754 168.113 236.191C167.274 232.971 164.739 230.861 161.89 230.991C158.985 231.122 156.611 233.443 156.095 236.695C155.577 239.884 157.002 242.838 159.804 244.282C160.289 244.522 160.721 244.89 161.181 245.225C157.677 245.119 155.032 246.722 154.402 249.945C154.048 251.684 154.324 253.816 154.872 255.502C155.448 257.187 156.724 258.572 157.252 259.409C155.422 259.641 153.112 261.079 152.234 264.56C151.304 268.262 152.917 270.803 155.596 273.005C152.343 273.994 150.245 276.025 150.021 279.679C149.795 283.301 151.63 285.68 153.973 286.82C152.167 288.089 150.14 289.521 148.195 290.888C146.804 286.957 144.584 285.06 141.513 285.352C138.837 285.604 136.628 287.732 136.046 290.608C135.44 293.642 136.534 296.95 139.047 298.118C140.56 298.806 142.514 299.043 144.056 298.566C145.542 298.122 146.718 296.49 147.576 295.746C149.033 297.694 150.521 299.703 151.659 301.249C149.994 302.483 148.078 303.881 146.219 305.277C144.939 301.313 142.663 299.385 139.536 299.679C136.746 299.934 134.54 302.187 134.074 305.186C133.557 308.407 134.954 311.362 137.556 312.716C140.528 314.219 143.269 313.116 145.564 309.854C147.052 311.863 148.627 313.996 150.056 315.913C147.33 316.449 145.004 318.422 144.644 322.3C144.308 326.019 146.173 328.46 149.515 330.08C145.769 330.483 143.355 332.333 142.797 336.183C142.24 340.128 144.22 342.661 147.563 344.312C146.805 344.487 146.355 344.56 145.905 344.665C143.773 345.25 142.224 346.608 141.393 348.483L152.597 348.219C151.854 346.664 150.64 345.466 149.129 344.872C150.965 343.697 152.968 342.391 154.749 341.28C155.83 342.796 157.202 344.714 158.399 346.384C157.791 346.933 157.099 347.515 156.408 348.161L163.577 347.992C163.285 347.621 163.022 347.25 162.76 346.879C164.091 345.872 165.756 344.606 167.337 343.405C168.245 344.799 169.241 346.317 170.208 347.804L177.941 347.621C178.662 347.07 179.411 346.486 180.132 345.934C180.426 346.431 180.75 346.989 181.074 347.548L232.214 346.342C231.658 345.505 231.102 344.701 230.489 343.834C231.321 343.186 232.098 342.601 232.929 341.953C233.515 342.819 234.014 343.625 234.629 344.555C233.994 345.167 233.33 345.749 232.638 346.363ZM235.994 330.588C235.358 331.169 234.916 331.589 234.363 332.105C233.866 331.393 233.37 330.713 232.816 329.94C233.454 329.453 234.036 328.999 234.646 328.513C235.115 329.256 235.496 329.845 235.994 330.588ZM223.824 328.233C223.022 328.975 222.276 329.654 221.364 330.493C220.693 329.597 220.051 328.731 219.352 327.804C220.295 327.09 221.154 326.409 222.18 325.598C222.797 326.59 223.296 327.396 223.824 328.233ZM211.61 326.414C210.641 327.254 209.645 328.127 208.621 329.001C207.803 327.825 207.043 326.742 206.166 325.473C207.164 324.694 208.217 323.852 209.438 322.911C210.143 324.089 210.846 325.174 211.61 326.414ZM199.218 324.221C198.166 325.127 197.004 326.129 195.758 327.196C194.822 325.835 193.916 324.503 193.009 323.172C194.173 322.233 195.42 321.228 196.666 320.192C197.459 321.463 198.309 322.796 199.218 324.221ZM238.032 316.449C237.395 316.967 236.842 317.452 236.177 318.002C235.565 317.199 234.983 316.458 234.371 315.654C235.035 315.073 235.616 314.587 236.391 313.908C236.919 314.745 237.418 315.551 238.032 316.449ZM225.7 314.412C224.982 315.089 224.292 315.766 223.491 316.54C222.79 315.55 222.118 314.591 221.33 313.477C222.246 312.826 222.996 312.274 223.772 311.69C224.415 312.587 225.028 313.421 225.7 314.412ZM213.56 312.119C212.619 312.928 211.678 313.736 210.599 314.674C209.81 313.56 208.992 312.416 208.147 311.272C209.2 310.46 210.226 309.65 211.363 308.774C212.066 309.827 212.799 310.973 213.56 312.119ZM197.707 312.839C196.831 311.601 195.925 310.302 194.932 308.91C196.151 307.937 197.371 306.965 198.59 305.993C199.383 307.263 200.233 308.596 201.085 309.991C200.061 310.865 198.926 311.835 197.707 312.839ZM252.458 304.282C251.822 304.863 251.269 305.379 250.605 305.961C250.135 305.186 249.724 304.535 249.284 303.822C249.921 303.304 250.475 302.85 251.113 302.332C251.552 302.982 251.961 303.57 252.458 304.282ZM239.955 302.186C239.208 302.833 238.516 303.447 237.797 304.093C237.213 303.257 236.658 302.484 236.015 301.556C236.763 300.94 237.455 300.358 238.313 299.614C238.929 300.575 239.398 301.319 239.955 302.186ZM227.536 300.057C226.76 300.673 226.04 301.256 225.236 301.904C224.594 301.039 223.982 300.235 223.254 299.277C224.086 298.629 224.918 298.011 225.778 297.331C226.393 298.26 226.95 299.127 227.536 300.057ZM215.511 297.856C214.542 298.665 213.601 299.474 212.521 300.38C211.673 299.173 210.913 298.059 210.095 296.914C211.177 296.071 212.257 295.196 213.339 294.353C214.073 295.562 214.806 296.709 215.511 297.856ZM199.629 298.545C198.753 297.307 197.847 296.039 196.912 294.677C198.075 293.738 199.294 292.734 200.569 291.697C201.419 293.03 202.242 294.394 203.063 295.696C201.955 296.603 200.82 297.542 199.629 298.545ZM254.551 290.078C253.831 290.693 253.306 291.146 252.641 291.696C252.116 290.985 251.62 290.305 251.036 289.501C251.701 288.95 252.311 288.464 253.003 287.913C253.5 288.593 253.938 289.212 254.551 290.078ZM241.962 287.89C241.215 288.568 240.524 289.182 239.721 289.862C239.108 289.027 238.495 288.192 237.852 287.264C238.684 286.615 239.46 285.999 240.375 285.254C240.991 286.246 241.433 287.022 241.962 287.89ZM229.573 285.823C228.769 286.471 227.992 287.056 227.188 287.704C226.459 286.715 225.761 285.85 224.974 284.799C225.916 284.022 226.663 283.376 227.549 282.631C228.223 283.685 228.84 284.708 229.573 285.823ZM217.295 283.691C216.438 284.466 215.498 285.306 214.502 286.21C213.685 285.066 212.866 283.89 211.989 282.621C212.904 281.907 213.874 281.129 214.928 280.318C215.746 281.494 216.505 282.546 217.295 283.691ZM201.609 284.312C200.704 283.044 199.768 281.682 198.805 280.352C200.052 279.348 201.326 278.311 202.546 277.339C203.338 278.61 204.217 279.973 205.098 281.399C204.018 282.305 202.855 283.277 201.609 284.312ZM256.615 275.812C255.84 276.46 255.203 277.009 254.511 277.592C253.927 276.788 253.43 276.076 252.846 275.241C253.538 274.658 254.175 274.108 255.033 273.396C255.531 274.171 256.03 274.945 256.615 275.812ZM244.111 273.654C243.308 274.333 242.561 274.98 241.703 275.724C241.032 274.796 240.389 273.899 239.689 272.94C240.548 272.259 241.38 271.611 242.323 270.865C242.997 271.919 243.524 272.724 244.111 273.654ZM231.578 271.496C230.665 272.272 229.751 273.049 228.783 273.889C227.936 272.714 227.206 271.693 226.475 270.641C227.445 269.863 228.415 269.086 229.524 268.21C230.199 269.295 230.845 270.318 231.578 271.496ZM219.244 269.365C218.218 270.144 217.192 270.923 216.221 271.701C215.405 270.588 214.646 269.536 213.8 268.392C214.798 267.614 215.851 266.771 216.933 265.959C217.694 267.105 218.455 268.22 219.244 269.365ZM203.507 270.208C202.6 268.877 201.636 267.484 200.671 266.091C202.001 265.022 203.247 263.986 204.466 262.982C205.317 264.315 206.255 265.802 207.164 267.228C206 268.136 204.753 269.172 203.507 270.208ZM258.763 261.513C257.988 262.192 257.242 262.87 256.439 263.549C255.737 262.528 255.181 261.723 254.596 260.856C255.4 260.208 256.204 259.592 257.064 258.911C257.621 259.81 258.149 260.615 258.763 261.513ZM246.232 259.418C245.347 260.194 244.544 260.873 243.63 261.65C242.93 260.691 242.258 259.732 241.469 258.618C242.439 257.84 243.298 257.159 244.296 256.35C244.912 257.342 245.557 258.333 246.232 259.418ZM233.7 257.26C232.73 258.069 231.733 258.879 230.709 259.753C229.92 258.639 229.131 257.525 228.284 256.35C229.448 255.41 230.474 254.6 231.527 253.757C232.232 254.904 232.937 256.051 233.7 257.26ZM221.308 255.099C220.31 255.877 219.256 256.688 218.147 257.564C217.359 256.482 216.571 255.368 215.782 254.254C216.86 253.254 217.856 252.381 218.878 251.445C219.64 252.59 220.43 253.798 221.308 255.099ZM208.613 253.228C207.563 254.196 206.513 255.165 205.434 256.134C204.555 254.77 203.676 253.439 202.797 252.075C203.85 251.233 204.959 250.357 206.152 249.449C207.031 250.78 207.793 251.989 208.613 253.228ZM192.49 254.489C191.411 253.004 190.243 251.396 189.22 249.942C190.663 248.839 192.243 247.606 193.796 246.406C194.591 247.771 195.505 249.385 196.359 250.875C195.033 252.133 193.651 253.392 192.49 254.489ZM248.465 245.148C247.496 245.957 246.527 246.766 245.502 247.64C244.887 246.711 244.272 245.75 243.541 244.698C244.537 243.825 245.422 243.049 246.389 242.146C247.033 243.074 247.705 244.034 248.465 245.148ZM235.542 243.188C234.602 244.028 233.69 244.867 232.61 245.805C231.848 244.596 231.145 243.543 230.412 242.397C231.463 241.46 232.487 240.555 233.51 239.65C234.187 240.798 234.864 241.977 235.542 243.188ZM223.065 240.997C221.876 242.063 220.77 243.065 219.636 244.066C218.76 242.829 217.855 241.561 216.949 240.292C218.251 239.224 219.526 238.187 220.8 237.119C221.506 238.329 222.271 239.632 223.065 240.997ZM210.965 239.207C209.8 240.084 208.525 241.089 207.22 242.063C206.258 240.765 205.179 239.312 204.129 237.89C205.378 236.98 206.739 236.035 208.128 235.027C209.093 236.452 210.029 237.845 210.965 239.207ZM194.507 240.633C193.339 238.993 192.054 237.168 190.945 235.653C192.443 234.517 194.107 233.219 195.716 232.017C196.627 233.506 197.713 235.273 198.8 237.04C197.471 238.173 195.92 239.467 194.507 240.633ZM250.31 231.17C249.314 232.043 248.346 232.915 247.295 233.852C246.507 232.77 245.719 231.687 244.93 230.574C246.065 229.603 247.172 228.634 248.279 227.695C248.955 228.812 249.633 229.991 250.31 231.17ZM238.124 229.319C236.987 230.226 235.823 231.166 234.576 232.17C233.7 230.933 232.737 229.603 231.802 228.304C233.077 227.268 234.323 226.232 235.543 225.259C236.363 226.529 237.215 227.893 238.124 229.319ZM225.564 227.193C224.372 228.165 223.042 229.234 221.74 230.303C220.775 228.91 219.724 227.425 218.701 225.971C220.086 224.837 221.443 223.704 222.745 222.636C223.627 224.093 224.595 225.643 225.564 227.193ZM252.919 217.269C251.81 218.144 250.619 219.116 249.343 220.121C248.437 218.822 247.56 217.553 246.626 216.254C247.789 215.283 249.007 214.247 250.309 213.179C251.102 214.481 252.011 215.875 252.919 217.269ZM240.303 215.145C239.111 216.116 237.808 217.154 236.506 218.222C235.542 216.83 234.547 215.375 233.553 213.92C234.8 212.915 236.157 211.782 237.543 210.68C238.424 212.138 239.364 213.657 240.303 215.145ZM227.768 212.892C226.438 213.962 224.942 215.192 223.612 216.262C222.53 214.714 221.391 213.106 220.339 211.621C221.726 210.55 223.307 209.317 224.776 208.182C225.746 209.763 226.8 211.374 227.768 212.892ZM210.778 214.488C209.58 212.787 208.208 210.9 207.127 209.353C208.624 208.185 210.398 206.791 212.062 205.494C212.974 207.045 214.121 208.968 215.18 210.767C213.768 211.964 212.135 213.355 210.778 214.488ZM255.126 203.094C253.851 204.131 252.549 205.168 251.274 206.205C250.223 204.72 249.199 203.234 248.264 201.903C249.622 200.802 250.979 199.669 252.28 198.569C253.189 199.994 254.158 201.544 255.126 203.094ZM242.536 200.875C241.233 201.912 239.792 203.078 238.407 204.212C237.326 202.665 236.129 201.026 235.135 199.602C236.576 198.436 238.129 197.236 239.571 196.101C240.482 197.62 241.538 199.294 242.536 200.875ZM257.361 188.887C256.003 189.988 254.506 191.188 253.176 192.257C252.037 190.648 250.84 188.978 249.79 187.556C251.204 186.453 252.812 185.188 254.308 183.989C255.307 185.633 256.363 187.306 257.361 188.887ZM244.744 186.731C243.358 187.865 241.724 189.224 240.284 190.391C239.144 188.75 237.857 186.894 236.746 185.284C238.188 184.149 239.99 182.723 241.597 181.427C242.567 183.039 243.685 184.932 244.744 186.731ZM238.125 170.688C240.402 170.289 242.513 168.761 243.355 166.162C244.562 168.272 245.888 170.6 247.009 172.618C245.512 173.817 243.656 175.339 242.215 176.505C240.988 174.741 239.526 172.637 238.125 170.688ZM223.676 183.076C225.254 181.749 227.221 180.13 228.827 178.771C229.769 180.416 231.065 182.682 232.156 184.606C230.631 185.837 228.831 187.327 227.418 188.492C226.276 186.758 224.844 184.716 223.676 183.076ZM208.646 194.754C210.897 194.386 212.978 192.827 213.824 190.386C215.001 192.402 216.296 194.636 217.386 196.561C215.864 197.855 214.119 199.312 212.68 200.541C211.481 198.808 210.02 196.735 208.646 194.754ZM221.951 197.334C223.42 196.167 225.166 194.773 226.774 193.509C227.744 195.121 228.89 197.013 229.89 198.719C228.478 199.885 226.899 201.212 225.515 202.377C224.374 200.705 223.06 198.849 221.951 197.334ZM194.308 207.045C195.864 205.97 197.753 204.636 199.392 203.496C200.445 205.013 201.704 206.902 202.903 208.666C201.487 209.675 199.737 210.911 198.265 211.984C196.985 210.379 195.53 208.557 194.308 207.045ZM177.765 219.199C179.137 218.726 180.658 218.564 181.796 217.72C183.156 216.712 184.163 215.085 185.208 213.896C185.248 216.789 186.745 219.207 188.891 220.415C187.036 221.968 185.097 223.587 183.298 225.107C182.639 222.323 181.385 219.459 177.765 219.199ZM192.638 221.238C193.972 220.326 195.752 219.152 197.447 218.011C198.471 219.497 199.7 221.323 200.753 222.871C199.342 224.1 197.765 225.49 196.464 226.621C195.267 224.951 193.866 223.002 192.638 221.238ZM205.739 223.54C207.041 222.471 208.509 221.273 209.977 220.043C210.946 221.624 212.002 223.298 213.059 225.003C211.866 225.912 210.479 226.983 209.176 227.988C208.04 226.537 206.816 224.93 205.739 223.54ZM177.844 233.351C179.424 232.087 181.42 230.499 183 229.235C184.028 230.941 185.293 233.081 186.41 234.942C184.942 236.14 183.141 237.63 181.618 238.892C180.476 237.189 179.044 235.116 177.844 233.351ZM161.381 245.314C164.413 244.551 167.386 243.694 168.361 239.551C168.612 243.005 169.999 245.552 172.314 246.724C170.458 248.214 168.519 249.833 166.58 251.42C166.174 248.567 164.48 246.216 161.381 245.314ZM175.951 247.644C177.421 246.54 179.336 245.111 181.112 243.78C181.995 245.3 183.142 247.255 184.231 249.116C182.792 250.377 181.159 251.768 179.747 252.965C178.521 251.264 177.118 249.253 175.951 247.644ZM160.609 259.298C163.119 259.145 165.223 257.365 166.178 254.763C167.214 256.783 168.339 258.959 169.287 260.855C167.934 262.145 166.277 263.725 164.896 265.048C163.642 263.379 162.097 261.308 160.609 259.298ZM174.674 261.766C176.003 260.634 177.581 259.307 179.049 258.077C179.932 259.629 180.934 261.367 181.848 263.012C180.521 264.207 179.083 265.531 177.728 266.727C176.759 265.177 175.672 263.378 174.674 261.766ZM187.832 264.098C189.132 262.966 190.489 261.833 191.846 260.669C192.753 262.032 193.749 263.549 194.714 264.973C193.33 266.138 191.917 267.304 190.588 268.405C189.679 267.011 188.741 265.523 187.832 264.098ZM159.709 273.788C161.147 272.496 162.861 270.946 164.41 269.588C165.466 271.231 166.784 273.276 167.841 274.949C166.262 276.276 164.435 277.829 162.884 279.124C162.001 277.572 160.796 275.587 159.709 273.788ZM172.263 275.694C173.706 274.591 175.454 273.291 177.064 272.089C178.032 273.639 179.119 275.407 180.175 277.112C178.819 278.276 177.242 279.634 175.858 280.831C174.718 279.191 173.374 277.272 172.263 275.694ZM185.562 278.023C186.893 276.985 188.336 275.881 189.805 274.746C190.685 276.109 191.683 277.721 192.651 279.271C191.406 280.338 190.049 281.471 188.72 282.603C187.639 281.056 186.557 279.477 185.562 278.023ZM157.156 287.688C158.765 286.455 160.761 284.898 162.398 283.633C163.454 285.338 164.747 287.478 165.833 289.214C164.338 290.476 162.538 291.965 161.07 293.195C159.843 291.462 158.325 289.359 157.156 287.688ZM170.397 289.955C171.813 288.915 173.478 287.681 175.171 286.446C176.051 287.84 177.138 289.608 178.195 291.344C176.756 292.573 175.262 293.898 173.906 295.063C172.794 293.422 171.508 291.565 170.397 289.955ZM183.696 292.284C185.054 291.214 186.468 290.08 187.798 289.01C188.679 290.436 189.675 291.986 190.616 293.536C189.342 294.604 188.014 295.768 186.74 296.836C185.744 295.318 184.691 293.77 183.696 292.284ZM155.12 301.954C156.647 300.817 158.701 299.321 160.478 298.021C161.447 299.603 162.739 301.711 163.826 303.51C162.331 304.772 160.532 306.324 159.148 307.489C157.835 305.696 156.288 303.562 155.12 301.954ZM168.474 304.186C169.862 303.179 171.554 301.912 173.165 300.742C174.103 302.229 175.189 303.965 176.216 305.608C174.806 306.868 173.256 308.226 171.984 309.357C170.872 307.716 169.643 305.889 168.474 304.186ZM181.775 306.609C183.132 305.508 184.518 304.406 185.877 303.336C186.757 304.73 187.725 306.28 188.694 307.83C187.503 308.833 186.201 309.902 184.817 311.098C183.88 309.674 182.828 308.157 181.775 306.609ZM153.479 316.147C154.976 314.979 156.888 313.456 158.496 312.191C159.583 313.958 160.874 316.004 162.019 317.864C160.715 318.838 159.021 320.074 157.577 321.114C156.241 319.541 154.729 317.69 153.479 316.147ZM166.524 318.513C167.967 317.441 169.66 316.174 171.214 315.005C172.152 316.493 173.267 318.259 174.294 319.902C172.884 321.162 171.334 322.52 170.006 323.652C168.865 321.98 167.606 320.091 166.524 318.513ZM179.795 320.873C181.126 319.804 182.539 318.67 183.925 317.568C184.805 318.962 185.802 320.511 186.77 322.061C185.525 323.129 184.196 324.261 182.867 325.393C181.843 323.876 180.819 322.359 179.795 320.873ZM151.499 330.411C152.946 329.496 154.894 328.255 156.73 327.11C157.812 328.658 159.126 330.514 160.236 332.06C158.82 333.1 157.098 334.336 155.572 335.473C154.263 333.837 152.721 331.923 151.499 330.411ZM164.516 332.746C165.932 331.706 167.653 330.439 169.29 329.236C170.287 330.785 171.402 332.552 172.457 334.194C171.046 335.423 169.441 336.813 168.056 337.978C166.944 336.306 165.628 334.387 164.516 332.746ZM177.816 335.106C179.147 334.068 180.588 332.933 182.002 331.799C182.882 333.225 183.88 334.805 184.876 336.355C183.548 337.518 182.193 338.714 180.948 339.813C179.865 338.203 178.811 336.623 177.816 335.106ZM190.944 337.407C192.165 336.466 193.44 335.461 194.743 334.455C195.594 335.787 196.473 337.151 197.352 338.514C196.245 339.452 195.054 340.455 193.781 341.523C192.903 340.223 191.91 338.831 190.944 337.407ZM204.131 339.769C205.24 338.894 206.377 338.018 207.514 337.142C208.131 338.165 208.777 339.188 209.482 340.367C208.46 341.334 207.548 342.174 206.553 343.078C205.736 341.965 204.948 340.882 204.131 339.769ZM222.293 342.361C221.296 343.202 220.466 343.914 219.525 344.722C218.911 343.824 218.297 342.927 217.624 341.936C218.51 341.192 219.367 340.417 220.336 339.607C221.008 340.535 221.622 341.433 222.293 342.361Z" fill="#CB6CE6" fill-opacity="0.34"/>
<path d="M209.159 180.556C207.839 179.675 206.326 178.987 205.226 177.818C203.4 175.848 203.21 172.581 204.394 170.1C205.605 167.586 208.085 166.175 210.608 166.588C213.244 166.997 215.182 168.933 215.815 171.812C216.003 172.625 216.08 173.473 216.212 174.288L216.267 174.223C215.174 178.181 212.854 180.375 209.045 180.527L209.159 180.556Z" fill="#CB6CE6" fill-opacity="0.34"/>
<path d="M195.269 192.71C191.574 191.697 189.093 189.459 188.732 184.938L188.677 185.002C190.204 180.28 192.191 178.346 195.358 178.523C198.469 178.701 200.902 181.286 201.237 184.738C201.541 188.033 199.692 191.033 196.777 191.983C196.216 192.153 195.715 192.448 195.184 192.681C195.185 192.712 195.269 192.71 195.269 192.71Z" fill="#CB6CE6" fill-opacity="0.34"/>
<path d="M224.944 154.203C229.563 156.075 231.348 158.738 230.652 162.749C230.08 166.034 227.424 168.362 224.427 168.212C221.374 168.064 218.972 165.604 218.526 162.249C218.109 158.956 219.898 155.769 222.784 154.82C223.513 154.583 224.272 154.439 225.002 154.264L224.944 154.203Z" fill="#CB6CE6" fill-opacity="0.34"/>
<path d="M233.303 149.445C233.214 145.672 235.797 142.655 239.183 142.544C242.654 142.43 245.436 145.447 245.471 149.315C245.503 153.089 242.862 156.045 239.446 156.094C236.059 156.142 233.364 153.249 233.303 149.445Z" fill="#CB6CE6" fill-opacity="0.34"/>
<path d="M163.846 216.916C167.203 216.774 170.009 219.602 170.21 223.34C170.414 227.173 167.807 230.38 164.365 230.524C160.895 230.668 158.086 227.715 157.995 223.848C157.934 220.075 160.489 217.058 163.846 216.916Z" fill="#CB6CE6" fill-opacity="0.34"/>
<path d="M180.706 190.632C184.15 190.582 186.933 193.63 186.938 197.468C186.942 201.211 184.301 204.198 180.942 204.246C177.498 204.296 174.715 201.247 174.71 197.41C174.705 193.636 177.347 190.68 180.706 190.632Z" fill="#CB6CE6" fill-opacity="0.34"/>
<path d="M172.052 209.268C172.17 213.071 169.615 216.088 166.2 216.169C162.785 216.249 160.092 213.387 160.029 209.552C159.97 205.841 162.443 202.921 165.771 202.779C169.213 202.635 171.934 205.465 172.052 209.268Z" fill="#CB6CE6" fill-opacity="0.34"/>
<path d="M188.733 184.97C187.584 187.702 185.938 189.754 182.974 189.823C179.644 189.902 176.953 187.166 176.811 183.521C176.639 179.813 179.052 176.768 182.294 176.534C185.649 176.298 188.391 178.844 188.704 182.517C188.78 183.333 188.687 184.184 188.707 185.033C188.678 185.034 188.733 184.97 188.733 184.97Z" fill="#CB6CE6" fill-opacity="0.34"/>
<path d="M203.059 170.981C203.149 174.784 200.621 177.769 197.205 177.818C193.79 177.899 191.124 175.005 191.091 171.2C191.032 167.521 193.533 164.6 196.835 164.491C200.221 164.379 202.941 167.177 203.059 170.981Z" fill="#CB6CE6" fill-opacity="0.34"/>
<path d="M225.002 154.264C222.542 152.97 220.692 151.126 220.614 147.825C220.526 144.116 222.969 141.133 226.242 140.993C229.57 140.82 232.316 143.523 232.543 147.167C232.773 150.904 230.501 153.946 227.204 154.275C226.472 154.355 225.707 154.248 224.945 154.266C224.944 154.203 225.002 154.264 225.002 154.264Z" fill="#CB6CE6" fill-opacity="0.34"/>
<path d="M205.83 159.183C205.769 155.41 208.383 152.486 211.828 152.468C215.216 152.451 217.827 155.409 217.833 159.246C217.835 162.926 215.275 165.754 211.945 165.833C208.529 165.882 205.863 162.988 205.83 159.183Z" fill="#CB6CE6" fill-opacity="0.34"/>
<path d="M157.233 221.476C157.262 225.124 154.677 228.047 151.402 228.093C148.043 228.141 145.345 225.122 145.37 221.378C145.398 217.76 148.04 214.867 151.316 214.884C154.592 214.87 157.202 217.796 157.233 221.476Z" fill="#CB6CE6" fill-opacity="0.34"/>
<path d="M247.259 135.339C247.405 139.11 244.85 142.127 241.435 142.207C238.218 142.315 235.495 139.391 235.409 135.744C235.323 132.097 237.85 129.113 241.123 129.004C244.396 128.864 247.117 131.693 247.259 135.339Z" fill="#CB6CE6" fill-opacity="0.34"/>
<path d="M173.92 195.038C174.006 198.685 171.507 201.701 168.234 201.809C164.876 201.92 162.096 198.997 162.065 195.255C162.035 191.607 164.592 188.653 167.866 188.607C171.14 188.53 173.834 191.392 173.92 195.038Z" fill="#CB6CE6" fill-opacity="0.34"/>
<path d="M213.652 138.805C216.87 138.761 219.623 141.747 219.651 145.332C219.679 148.917 216.983 151.937 213.764 151.919C210.629 151.898 207.962 149.004 207.88 145.515C207.796 141.931 210.434 138.849 213.652 138.805Z" fill="#CB6CE6" fill-opacity="0.34"/>
<path d="M184.879 162.854C188.13 162.997 190.717 166.113 190.604 169.702C190.49 173.259 187.622 176.189 184.426 175.981C181.259 175.773 178.731 172.75 178.818 169.256C178.903 165.668 181.657 162.71 184.879 162.854Z" fill="#CB6CE6" fill-opacity="0.34"/>
<path d="M198.884 150.823C202.13 150.746 204.883 153.732 204.912 157.349C204.941 160.965 202.273 163.985 199.025 163.967C195.862 163.979 193.196 161.085 193.113 157.564C193 153.95 195.61 150.9 198.884 150.823Z" fill="#CB6CE6" fill-opacity="0.34"/>
<path d="M169.902 174.405C173.036 174.394 175.761 177.38 175.814 180.839C175.871 184.424 173.064 187.541 169.898 187.427C166.762 187.343 164.093 184.324 164.124 180.863C164.099 177.404 166.796 174.415 169.902 174.405Z" fill="#CB6CE6" fill-opacity="0.34"/>
<path d="M228.337 126.852C231.441 126.747 234.22 129.639 234.387 133.126C234.527 136.677 231.807 139.855 228.617 139.899C225.483 139.91 222.758 136.955 222.677 133.497C222.595 130.007 225.205 126.926 228.337 126.852Z" fill="#CB6CE6" fill-opacity="0.34"/>
<path d="M142.377 233.37C142.458 236.828 139.848 239.878 136.745 240.014C133.556 240.12 130.689 237.074 130.69 233.52C130.693 230.06 133.332 227.041 136.438 226.999C139.571 226.956 142.295 229.912 142.377 233.37Z" fill="#CB6CE6" fill-opacity="0.34"/>
<path d="M153.325 200.682C156.574 200.763 159.246 203.908 159.133 207.497C158.99 211.023 156.29 213.886 153.182 213.802C149.933 213.721 147.261 210.576 147.374 206.988C147.488 203.462 150.216 200.598 153.325 200.682Z" fill="#CB6CE6" fill-opacity="0.34"/>
<path d="M249.045 121.268C249.071 124.759 246.403 127.779 243.296 127.757C240.133 127.738 237.436 124.719 237.495 121.257C237.527 117.828 240.086 114.968 243.134 114.897C246.267 114.823 249.019 117.777 249.045 121.268Z" fill="#CB6CE6" fill-opacity="0.34"/>
<path d="M154.968 186.521C158.1 186.384 160.879 189.307 160.962 192.796C161.044 196.286 158.433 199.335 155.3 199.378C152.251 199.418 149.587 196.619 149.422 193.226C149.256 189.769 151.809 186.658 154.968 186.521Z" fill="#CB6CE6" fill-opacity="0.34"/>
<path d="M201.15 136.772C204.374 136.948 206.845 139.972 206.674 143.499C206.474 146.964 203.854 149.636 200.773 149.489C197.549 149.313 195.078 146.289 195.249 142.762C195.449 139.297 198.069 136.625 201.15 136.772Z" fill="#CB6CE6" fill-opacity="0.34"/>
<path d="M144.212 218.983C144.38 222.502 141.826 225.551 138.636 225.626C135.56 225.698 132.926 222.961 132.76 219.505C132.592 215.986 135.146 212.938 138.335 212.863C141.412 212.79 144.046 215.527 144.212 218.983Z" fill="#CB6CE6" fill-opacity="0.34"/>
<path d="M186.356 148.822C189.578 148.966 192.079 152.021 191.879 155.517C191.706 158.981 189.087 161.685 186.006 161.538C182.783 161.394 180.283 158.339 180.483 154.842C180.683 151.346 183.302 148.674 186.356 148.822Z" fill="#CB6CE6" fill-opacity="0.34"/>
<path d="M177.58 167.084C177.635 170.574 175.189 173.431 172.084 173.504C168.867 173.611 166.229 170.717 166.23 167.131C166.232 163.64 168.736 160.844 171.87 160.833C174.948 160.823 177.526 163.594 177.58 167.084Z" fill="#CB6CE6" fill-opacity="0.34"/>
<path d="M156.908 172.981C160.097 172.875 162.615 175.489 162.727 179.041C162.811 182.593 160.447 185.354 157.258 185.429C154.153 185.471 151.721 182.949 151.583 179.492C151.414 175.91 153.72 173.119 156.908 172.981Z" fill="#CB6CE6" fill-opacity="0.34"/>
<path d="M236.063 119.184C236.061 122.707 233.583 125.376 230.391 125.325C227.227 125.274 224.846 122.499 224.902 118.912C224.963 115.482 227.359 112.909 230.465 112.899C233.627 112.887 236.063 115.598 236.063 119.184Z" fill="#CB6CE6" fill-opacity="0.34"/>
<path d="M215.469 124.828C218.6 124.691 221.204 127.335 221.343 130.823C221.512 134.405 219.04 137.357 215.822 137.401C212.688 137.444 210.14 134.767 210.058 131.278C209.976 127.788 212.337 124.965 215.469 124.828Z" fill="#CB6CE6" fill-opacity="0.34"/>
<path d="M140.205 198.759C143.394 198.652 145.912 201.266 146.024 204.818C146.108 208.37 143.745 211.131 140.556 211.206C137.45 211.248 135.019 208.726 134.881 205.269C134.712 201.688 137.018 198.897 140.205 198.759Z" fill="#CB6CE6" fill-opacity="0.34"/>
<path d="M182.644 141.109C182.535 137.683 184.842 134.924 187.889 134.789C191.048 134.651 193.596 137.328 193.651 140.849C193.703 144.245 191.367 146.974 188.291 147.046C185.214 147.119 182.752 144.503 182.644 141.109Z" fill="#CB6CE6" fill-opacity="0.34"/>
<path d="M173.713 146.793C176.79 146.72 179.252 149.336 179.36 152.73C179.471 156.25 177.052 159.044 173.89 159.055C170.84 159.064 168.406 156.417 168.353 152.99C168.272 149.563 170.637 146.865 173.713 146.793Z" fill="#CB6CE6" fill-opacity="0.34"/>
<path d="M147.864 190.651C147.916 194.047 145.551 196.745 142.503 196.817C139.37 196.891 136.877 194.15 136.879 190.627C136.884 187.262 139.306 184.594 142.356 184.585C145.378 184.608 147.812 187.256 147.864 190.651Z" fill="#CB6CE6" fill-opacity="0.34"/>
<path d="M118.214 231.392C118.131 227.871 120.523 225.141 123.714 225.129C126.764 225.12 129.169 227.737 129.25 231.163C129.333 234.684 126.941 237.414 123.75 237.426C120.7 237.435 118.295 234.818 118.214 231.392Z" fill="#CB6CE6" fill-opacity="0.34"/>
<path d="M197.412 129.123C197.276 125.729 199.582 122.938 202.6 122.772C205.73 122.604 208.307 125.28 208.389 128.769C208.469 132.165 206.133 134.893 203.086 134.997C200.038 135.1 197.52 132.486 197.412 129.123Z" fill="#CB6CE6" fill-opacity="0.34"/>
<path d="M223.126 116.658C223.233 120.021 220.872 122.845 217.881 122.947C214.862 123.049 212.314 120.404 212.207 117.073C212.1 113.71 214.462 110.886 217.453 110.784C220.471 110.65 222.99 113.296 223.126 116.658Z" fill="#CB6CE6" fill-opacity="0.34"/>
<path d="M120.194 217.128C120.114 213.764 122.506 211.003 125.526 210.932C128.546 210.86 131.037 213.538 131.117 216.902C131.196 220.265 128.804 223.027 125.785 223.098C122.793 223.169 120.273 220.492 120.194 217.128Z" fill="#CB6CE6" fill-opacity="0.34"/>
<path d="M153.614 165.038C153.563 161.674 155.955 158.912 158.975 158.872C161.996 158.833 164.487 161.51 164.539 164.875C164.59 168.239 162.198 171.001 159.177 171.04C156.157 171.08 153.665 168.402 153.614 165.038Z" fill="#CB6CE6" fill-opacity="0.34"/>
<path d="M144.153 170.954C147.031 170.855 149.607 173.531 149.739 176.736C149.874 180.036 147.373 182.988 144.409 182.995C141.528 183 139.008 180.292 138.932 177.085C138.856 173.879 141.247 171.054 144.153 170.954Z" fill="#CB6CE6" fill-opacity="0.34"/>
<path d="M237.809 104.611C237.942 107.816 235.58 110.671 232.705 110.865C229.743 111.029 227.08 108.261 227.002 104.96C226.955 101.753 229.345 98.9286 232.223 98.8293C235.129 98.7293 237.677 101.406 237.809 104.611Z" fill="#CB6CE6" fill-opacity="0.34"/>
<path d="M133.01 202.608C133.086 205.815 130.696 208.639 127.819 208.77C124.856 208.871 122.22 206.071 122.199 202.769C122.18 199.561 124.627 196.767 127.507 196.731C130.414 196.693 132.935 199.402 133.01 202.608Z" fill="#CB6CE6" fill-opacity="0.34"/>
<path d="M106.075 229.13C105.998 225.861 108.446 223.098 111.355 223.124C114.208 223.151 116.585 225.768 116.659 228.912C116.736 232.181 114.288 234.944 111.379 234.918C108.526 234.891 106.149 232.274 106.075 229.13Z" fill="#CB6CE6" fill-opacity="0.34"/>
<path d="M204.696 108.694C207.575 108.626 210.124 111.334 210.171 114.542C210.219 117.749 207.772 120.574 204.891 120.548C202.067 120.552 199.633 117.935 199.532 114.824C199.4 111.619 201.789 108.763 204.696 108.694Z" fill="#CB6CE6" fill-opacity="0.34"/>
<path d="M175.274 132.727C178.183 132.722 180.705 135.493 180.696 138.702C180.687 141.941 178.155 144.706 175.301 144.648C172.476 144.589 170.069 141.909 169.995 138.797C169.919 135.559 172.366 132.733 175.274 132.727Z" fill="#CB6CE6" fill-opacity="0.34"/>
<path d="M195.428 126.433C195.56 129.638 193.143 132.526 190.236 132.595C187.329 132.663 184.78 129.955 184.732 126.717C184.686 123.572 186.994 120.844 189.814 120.683C192.691 120.521 195.296 123.228 195.428 126.433Z" fill="#CB6CE6" fill-opacity="0.34"/>
<path d="M166.348 150.615C166.396 153.822 163.92 156.617 161.068 156.621C158.159 156.596 155.665 153.824 155.703 150.646C155.742 147.499 158.079 144.834 160.873 144.768C163.78 144.668 166.301 147.408 166.348 150.615Z" fill="#CB6CE6" fill-opacity="0.34"/>
<path d="M134.834 188.914C134.883 192.184 132.491 194.914 129.552 194.858C126.7 194.831 124.351 192.244 124.305 189.068C124.256 185.798 126.648 183.068 129.586 183.125C132.439 183.152 134.788 185.738 134.834 188.914Z" fill="#CB6CE6" fill-opacity="0.34"/>
<path d="M219.496 96.8018C222.404 96.7647 224.722 99.2578 224.798 102.496C224.846 105.734 222.619 108.303 219.712 108.372C216.805 108.409 214.487 105.916 214.41 102.678C214.362 99.4392 216.589 96.8703 219.496 96.8018Z" fill="#CB6CE6" fill-opacity="0.34"/>
<path d="M113.226 209.02C116.134 208.983 118.423 211.445 118.471 214.715C118.52 217.954 116.32 220.49 113.384 220.528C110.477 220.565 108.188 218.103 108.139 214.833C108.091 211.594 110.29 209.057 113.226 209.02Z" fill="#CB6CE6" fill-opacity="0.34"/>
<path d="M146.166 156.941C149.073 156.904 151.391 159.397 151.44 162.667C151.488 165.906 149.261 168.475 146.325 168.513C143.418 168.55 141.1 166.057 141.051 162.787C141.03 159.516 143.258 156.978 146.166 156.941Z" fill="#CB6CE6" fill-opacity="0.34"/>
<path d="M131.288 169.087C134.137 168.989 136.423 171.294 136.582 174.436C136.715 177.704 134.546 180.303 131.639 180.371C128.816 180.438 126.557 178.038 126.455 174.895C126.352 171.72 128.467 169.217 131.288 169.087Z" fill="#CB6CE6" fill-opacity="0.34"/>
<path d="M114.728 194.893C117.551 194.858 119.782 197.259 119.856 200.402C119.932 203.64 117.677 206.178 114.767 206.153C111.971 206.124 109.767 203.66 109.749 200.515C109.732 197.37 111.905 194.928 114.728 194.893Z" fill="#CB6CE6" fill-opacity="0.34"/>
<path d="M148.15 142.866C150.945 142.832 153.178 145.327 153.223 148.44C153.268 151.553 151.039 154.027 148.244 154.062C145.45 154.096 143.216 151.601 143.171 148.488C143.154 145.374 145.354 142.869 148.15 142.866Z" fill="#CB6CE6" fill-opacity="0.34"/>
<path d="M172.198 124.464C172.152 121.32 174.296 118.848 177.147 118.78C180.082 118.711 182.344 121.237 182.337 124.508C182.326 127.654 180.124 130.065 177.272 130.069C174.448 130.073 172.245 127.64 172.198 124.464Z" fill="#CB6CE6" fill-opacity="0.34"/>
<path d="M168.019 136.39C168.064 139.534 165.92 142.006 163.07 142.074C160.163 142.142 157.872 139.617 157.88 136.346C157.89 133.2 160.093 130.789 162.945 130.785C165.797 130.78 168 133.213 168.019 136.39Z" fill="#CB6CE6" fill-opacity="0.34"/>
<path d="M234.153 84.9123C237.088 84.8117 239.375 87.2112 239.452 90.4806C239.498 93.6249 237.41 96.0961 234.589 96.2255C231.655 96.3262 229.368 93.9267 229.319 90.6566C229.216 87.5136 231.332 85.0103 234.153 84.9123Z" fill="#CB6CE6" fill-opacity="0.34"/>
<path d="M201.765 100.554C201.664 97.4424 203.806 94.8756 206.599 94.7783C209.392 94.6809 211.708 97.0798 211.81 100.191C211.911 103.303 209.769 105.87 206.976 105.967C204.183 106.064 201.867 103.666 201.765 100.554Z" fill="#CB6CE6" fill-opacity="0.34"/>
<path d="M191.916 106.763C194.738 106.696 196.997 109.096 197.099 112.239C197.205 115.508 194.977 118.045 192.041 118.052C189.217 118.055 187.013 115.622 186.967 112.447C186.92 109.271 189.064 106.798 191.916 106.763Z" fill="#CB6CE6" fill-opacity="0.34"/>
<path d="M98.4904 221.225C101.257 221.192 103.577 223.779 103.537 226.862C103.494 229.852 101.294 232.325 98.611 232.326C95.8444 232.36 93.5235 229.741 93.5645 226.689C93.6077 223.731 95.8085 221.257 98.4904 221.225Z" fill="#CB6CE6" fill-opacity="0.34"/>
<path d="M216.587 88.4407C216.518 85.4857 218.716 82.9174 221.368 82.792C224.105 82.696 226.509 85.2815 226.525 88.3321C226.51 91.2892 224.282 93.8266 221.629 93.8577C218.947 93.8895 216.657 91.3957 216.587 88.4407Z" fill="#CB6CE6" fill-opacity="0.34"/>
<path d="M133.27 154.949C135.922 154.855 138.267 157.285 138.393 160.239C138.521 163.255 136.213 165.983 133.502 165.984C130.848 165.984 128.531 163.522 128.489 160.567C128.419 157.611 130.618 155.043 133.27 154.949Z" fill="#CB6CE6" fill-opacity="0.34"/>
<path d="M121.731 186.518C121.857 189.472 119.717 192.133 117.067 192.29C114.332 192.48 111.872 189.928 111.8 186.878C111.729 183.892 113.928 181.324 116.58 181.23C119.231 181.104 121.604 183.533 121.731 186.518Z" fill="#CB6CE6" fill-opacity="0.34"/>
<path d="M95.605 212.644C95.536 209.72 97.8178 207.087 100.443 207.057C103.097 207.025 105.417 209.613 105.43 212.538C105.412 215.4 103.268 217.873 100.701 217.996C98.049 218.09 95.6739 215.567 95.605 212.644Z" fill="#CB6CE6" fill-opacity="0.34"/>
<path d="M164.931 127.624C162.276 127.592 159.956 125.005 160 122.079C160.043 119.121 162.383 116.581 165.012 116.676C167.584 116.773 169.788 119.237 169.826 122.067C169.84 125.055 167.558 127.656 164.931 127.624Z" fill="#CB6CE6" fill-opacity="0.34"/>
<path d="M178.961 104.709C181.584 104.553 183.986 107.044 184.112 109.998C184.21 112.921 181.985 115.584 179.332 115.646C176.792 115.706 174.477 113.339 174.297 110.481C174.143 107.559 176.31 104.835 178.961 104.709Z" fill="#CB6CE6" fill-opacity="0.34"/>
<path d="M193.787 92.7214C196.439 92.6274 198.785 95.1198 198.827 98.0756C198.866 100.937 196.751 103.44 194.155 103.533C191.503 103.627 189.157 101.134 189.115 98.1788C189.076 95.3174 191.192 92.8455 193.787 92.7214Z" fill="#CB6CE6" fill-opacity="0.34"/>
<path d="M155 133.992C155.126 136.945 152.9 139.546 150.247 139.608C147.678 139.637 145.42 137.3 145.295 134.409C145.169 131.456 147.395 128.855 150.048 128.793C152.617 128.764 154.875 131.101 155 133.992Z" fill="#CB6CE6" fill-opacity="0.34"/>
<path d="M118.647 167.121C121.245 167.123 123.447 169.493 123.515 172.385C123.585 175.371 121.301 177.91 118.646 177.847C116.046 177.782 113.87 175.317 113.887 172.455C113.904 169.56 116.049 167.151 118.647 167.121Z" fill="#CB6CE6" fill-opacity="0.34"/>
<path d="M235.745 70.9723C238.342 70.9425 240.573 73.3119 240.641 76.204C240.74 79.1898 238.485 81.7594 235.8 81.6969C233.202 81.6638 231.026 79.2302 231.015 76.3367C231.003 73.4432 233.148 71.0021 235.745 70.9723Z" fill="#CB6CE6" fill-opacity="0.34"/>
<path d="M223.442 68.9661C226.039 68.9363 228.04 71.1538 228.081 74.0781C228.121 76.9709 226.14 79.188 223.514 79.2184C220.917 79.2482 218.916 77.0307 218.876 74.1064C218.836 71.2136 220.816 68.9652 223.442 68.9661Z" fill="#CB6CE6" fill-opacity="0.34"/>
<path d="M135.256 140.968C137.938 140.905 140.052 143.151 140.094 146.139C140.136 149.126 138.101 151.438 135.419 151.439C132.821 151.437 130.792 149.252 130.697 146.392C130.598 143.406 132.575 141.032 135.256 140.968Z" fill="#CB6CE6" fill-opacity="0.34"/>
<path d="M102.298 193.487C104.95 193.393 107.093 195.671 107.191 198.625C107.289 201.579 105.256 203.955 102.603 204.049C99.9512 204.143 97.8078 201.866 97.7099 198.911C97.6402 195.956 99.6456 193.581 102.298 193.487Z" fill="#CB6CE6" fill-opacity="0.34"/>
<path d="M120.492 153.143C123.06 153.083 125.144 155.235 125.212 158.127C125.28 160.988 123.357 163.298 120.761 163.359C118.193 163.42 116.109 161.267 116.04 158.375C115.972 155.483 117.923 153.204 120.492 153.143Z" fill="#CB6CE6" fill-opacity="0.34"/>
<path d="M208.558 80.861C211.238 80.7663 213.353 83.0126 213.423 85.9991C213.494 88.9856 211.459 91.2983 208.777 91.3301C206.179 91.3599 204.151 89.1744 204.027 86.315C203.9 83.3299 205.878 80.9557 208.558 80.861Z" fill="#CB6CE6" fill-opacity="0.34"/>
<path d="M99.8034 184.708C99.7062 181.785 101.601 179.507 104.196 179.383C106.82 179.289 108.875 181.411 109 184.302C109.097 187.225 107.202 189.503 104.607 189.627C101.983 189.72 99.8998 187.599 99.8034 184.708Z" fill="#CB6CE6" fill-opacity="0.34"/>
<path d="M81.1483 224.686C81.0809 221.825 83.0031 219.515 85.5996 219.454C88.1679 219.393 90.2519 221.546 90.3201 224.438C90.3875 227.299 88.4653 229.609 85.8688 229.67C83.3005 229.73 81.244 227.546 81.1483 224.686Z" fill="#CB6CE6" fill-opacity="0.34"/>
<path d="M195.746 78.8353C198.173 78.7467 200.315 80.9609 200.435 83.6631C200.557 86.4596 198.469 88.8994 195.956 88.9272C193.528 88.9215 191.441 86.6746 191.378 83.971C191.341 81.2354 193.319 78.8926 195.746 78.8353Z" fill="#CB6CE6" fill-opacity="0.34"/>
<path d="M176.585 96.1152C176.461 93.2558 178.41 90.8822 180.977 90.7902C183.545 90.6982 185.659 92.913 185.726 95.7738C185.791 98.5402 183.925 100.817 181.443 100.97C178.877 101.125 176.709 98.9746 176.585 96.1152Z" fill="#CB6CE6" fill-opacity="0.34"/>
<path d="M137.156 126.895C139.582 126.806 141.723 128.989 141.872 131.69C142.022 134.486 139.935 136.958 137.422 136.985C134.994 137.011 132.88 134.765 132.816 132.061C132.724 129.358 134.73 127.015 137.156 126.895Z" fill="#CB6CE6" fill-opacity="0.34"/>
<path d="M161.815 108.039C161.747 105.178 163.726 102.866 166.294 102.806C168.863 102.777 170.921 105.024 170.96 107.886C170.969 110.654 169.073 112.869 166.591 112.99C164.024 113.113 161.911 110.93 161.815 108.039Z" fill="#CB6CE6" fill-opacity="0.34"/>
<path d="M152.063 114.842C154.633 114.845 156.663 117.124 156.674 119.987C156.657 122.849 154.592 125.068 152.021 125.035C149.534 124.967 147.591 122.78 147.526 120.014C147.486 117.121 149.493 114.84 152.063 114.842Z" fill="#CB6CE6" fill-opacity="0.34"/>
<path d="M83.1572 210.452C83.066 207.781 85.0432 205.407 87.4681 205.255C89.9503 205.134 92.1798 207.472 92.2176 210.27C92.2523 212.943 90.218 215.287 87.7908 215.344C85.3911 215.369 83.2485 213.124 83.1572 210.452Z" fill="#CB6CE6" fill-opacity="0.34"/>
<path d="M233.304 62.0653C233.297 59.3605 235.444 57.0137 237.846 57.0828C240.276 57.1513 242.366 59.5555 242.288 62.2309C242.208 64.8435 240.171 67.0619 237.884 67.0843C235.427 67.0794 233.282 64.708 233.304 62.0653Z" fill="#CB6CE6" fill-opacity="0.34"/>
<path d="M206.232 72.0142C206.141 69.3428 208.202 66.9351 210.601 66.91C212.916 66.8869 215.001 69.0709 215.091 71.6795C215.182 74.3509 213.121 76.7586 210.721 76.7837C208.406 76.8069 206.349 74.5907 206.232 72.0142Z" fill="#CB6CE6" fill-opacity="0.34"/>
<path d="M89.6321 191.647C91.9761 191.655 94.0058 193.903 94.0392 196.513C94.0754 199.249 91.9556 201.563 89.5248 201.464C87.1503 201.362 85.1763 199.081 85.2276 196.469C85.2783 193.826 87.3156 191.608 89.6321 191.647Z" fill="#CB6CE6" fill-opacity="0.34"/>
<path d="M105.812 165.285C108.24 165.259 110.358 167.631 110.364 170.304C110.372 173.009 108.224 175.356 105.822 175.287C103.505 175.216 101.447 172.968 101.386 170.39C101.351 167.686 103.412 165.278 105.812 165.285Z" fill="#CB6CE6" fill-opacity="0.34"/>
<path d="M122.362 139.039C124.759 138.92 126.96 141.227 126.994 143.9C127.055 146.477 125.105 148.788 122.764 148.906C120.366 149.026 118.166 146.718 118.131 144.046C118.098 141.467 120.049 139.157 122.362 139.039Z" fill="#CB6CE6" fill-opacity="0.34"/>
<path d="M139.171 113.008C141.627 112.95 143.483 115.013 143.491 117.75C143.496 120.36 141.736 122.352 139.365 122.408C136.909 122.466 135.054 120.402 135.045 117.666C135.069 115.055 136.801 113.064 139.171 113.008Z" fill="#CB6CE6" fill-opacity="0.34"/>
<path d="M225.217 55.6192C227.671 55.4984 229.582 57.4979 229.646 60.2329C229.709 62.8735 227.977 64.896 225.636 65.0141C223.182 65.1349 221.271 63.1354 221.207 60.4004C221.174 57.7905 222.876 55.7373 225.217 55.6192Z" fill="#CB6CE6" fill-opacity="0.34"/>
<path d="M168.197 88.9215C170.567 88.8341 172.448 90.7399 172.595 93.3786C172.744 96.1116 170.96 98.2925 168.505 98.3818C166.051 98.4712 164.138 96.4089 164.102 93.6732C164.068 91.0319 165.828 89.0088 168.197 88.9215Z" fill="#CB6CE6" fill-opacity="0.34"/>
<path d="M158.312 105.605C158.348 108.309 156.506 110.429 154.049 110.424C151.62 110.418 149.735 108.324 149.756 105.587C149.779 102.975 151.538 100.952 153.909 100.896C156.336 100.839 158.277 102.901 158.312 105.605Z" fill="#CB6CE6" fill-opacity="0.34"/>
<path d="M107.77 151.336C110.141 151.311 111.966 153.25 112.028 155.891C112.093 158.626 110.249 160.682 107.792 160.677C105.448 160.638 103.678 158.635 103.644 155.994C103.61 153.353 105.398 151.36 107.77 151.336Z" fill="#CB6CE6" fill-opacity="0.34"/>
<path d="M87.3774 182.264C87.3434 179.623 89.1037 177.631 91.5034 177.606C93.9595 177.58 95.8155 179.643 95.7678 182.412C95.7447 185.024 93.9272 186.985 91.5542 186.947C89.182 186.94 87.4122 184.937 87.3774 182.264Z" fill="#CB6CE6" fill-opacity="0.34"/>
<path d="M183.051 76.9331C185.507 76.9066 187.335 78.9709 187.343 81.7072C187.32 84.3185 185.53 86.2793 183.187 86.3032C180.731 86.3296 178.903 84.2653 178.895 81.529C178.89 78.9184 180.679 76.9575 183.051 76.9331Z" fill="#CB6CE6" fill-opacity="0.34"/>
<path d="M77.0811 222.265C77.1144 224.875 75.3549 226.898 73.0116 226.922C70.6684 226.946 68.8429 224.976 68.8096 222.366C68.7763 219.756 70.5358 217.733 72.8791 217.709C75.2216 217.654 77.0471 219.624 77.0811 222.265Z" fill="#CB6CE6" fill-opacity="0.34"/>
<path d="M124.538 134.333C122.194 134.325 120.366 132.261 120.389 129.649C120.413 127.07 122.287 125.075 124.631 125.114C126.864 125.188 128.605 127.16 128.664 129.674C128.697 132.284 126.881 134.309 124.538 134.333Z" fill="#CB6CE6" fill-opacity="0.34"/>
<path d="M97.5746 168.027C97.5752 170.449 95.7043 172.537 93.5296 172.526C91.355 172.514 89.4701 170.42 89.4694 167.998C89.4688 165.576 91.3397 163.487 93.5144 163.499C95.689 163.51 97.574 165.605 97.5746 168.027Z" fill="#CB6CE6" fill-opacity="0.34"/>
<path d="M212.517 53.5597C214.69 53.5085 216.63 55.5387 216.687 57.9593C216.744 60.3799 214.931 62.5301 212.758 62.5814C210.585 62.6326 208.645 60.6024 208.588 58.1818C208.503 55.7618 210.316 53.6431 212.517 53.5597Z" fill="#CB6CE6" fill-opacity="0.34"/>
<path d="M235.667 48.5158C235.554 46.0965 237.31 43.9162 239.481 43.7706C241.736 43.623 243.762 45.7142 243.821 48.2291C243.879 50.6497 242.065 52.7685 239.892 52.8512C237.692 52.9345 235.781 50.9351 235.667 48.5158Z" fill="#CB6CE6" fill-opacity="0.34"/>
<path d="M74.6746 204.015C76.8745 203.901 78.8129 205.868 78.9554 208.318C79.1001 210.862 77.2611 213.108 74.946 213.131C72.7446 213.183 70.862 211.183 70.7752 208.7C70.7173 206.248 72.4747 204.13 74.6746 204.015Z" fill="#CB6CE6" fill-opacity="0.34"/>
<path d="M202.003 69.9436C202.093 72.5522 200.336 74.6696 197.993 74.7249C195.651 74.7801 193.768 72.78 193.735 70.1701C193.704 67.6545 195.379 65.6334 197.635 65.5173C199.976 65.3991 201.885 67.3357 202.003 69.9436Z" fill="#CB6CE6" fill-opacity="0.34"/>
<path d="M105.739 141.853C105.682 139.433 107.524 137.282 109.697 137.23C111.871 137.211 113.813 139.335 113.813 141.726C113.811 144.053 112.052 146.108 109.964 146.189C107.765 146.335 105.796 144.274 105.739 141.853Z" fill="#CB6CE6" fill-opacity="0.34"/>
<path d="M155.811 86.9486C157.955 86.8666 159.924 88.9276 159.98 91.3168C160.037 93.706 158.167 95.8575 156.021 95.8766C153.96 95.8938 152.078 93.9251 151.968 91.6316C151.855 89.2437 153.667 87.0307 155.811 86.9486Z" fill="#CB6CE6" fill-opacity="0.34"/>
<path d="M170.139 75.476C172.283 75.394 174.254 77.5178 174.282 79.9076C174.28 82.2038 172.521 84.2899 170.434 84.3706C168.29 84.4526 166.319 82.3287 166.291 79.9389C166.293 77.6112 168.08 75.556 170.139 75.476Z" fill="#CB6CE6" fill-opacity="0.34"/>
<path d="M72.863 194.276C72.8646 191.948 74.6806 189.924 76.7699 189.906C78.9438 189.886 80.8591 192.074 80.7744 194.467C80.6881 196.796 78.8149 198.791 76.7517 198.714C74.6602 198.637 72.8607 196.572 72.863 194.276Z" fill="#CB6CE6" fill-opacity="0.34"/>
<path d="M145.215 103.46C145.216 105.882 143.26 107.973 141.112 107.866C139.019 107.758 137.22 105.693 137.222 103.397C137.222 100.975 139.177 98.8846 141.326 98.9912C143.418 99.0991 145.218 101.164 145.215 103.46Z" fill="#CB6CE6" fill-opacity="0.34"/>
<path d="M188.908 67.8935C188.908 70.284 187.147 72.2442 185 72.2005C182.853 72.1567 181.111 70.1533 181.168 67.7614C181.226 65.4639 182.905 63.6 184.966 63.5829C187.139 63.5316 188.908 65.5029 188.908 67.8935Z" fill="#CB6CE6" fill-opacity="0.34"/>
<path d="M130.33 115.292C130.414 117.681 128.711 119.702 126.566 119.753C124.421 119.804 122.625 117.864 122.597 115.475C122.571 113.179 124.191 111.254 126.25 111.142C128.394 111.029 130.245 112.904 130.33 115.292Z" fill="#CB6CE6" fill-opacity="0.34"/>
<path d="M95.4442 149.551C97.6181 149.531 99.2727 151.442 99.2459 153.896C99.2161 156.224 97.591 157.961 95.4735 157.98C93.2996 157.999 91.6449 156.088 91.6718 153.634C91.7298 151.305 93.3542 149.537 95.4442 149.551Z" fill="#CB6CE6" fill-opacity="0.34"/>
<path d="M230.692 45.8968C230.806 48.3475 229.186 50.273 227.012 50.2928C224.923 50.3421 223.245 48.6202 223.162 46.2946C223.047 43.8438 224.668 41.9184 226.842 41.8986C228.93 41.8179 230.608 43.5397 230.692 45.8968Z" fill="#CB6CE6" fill-opacity="0.34"/>
<path d="M78.5578 175.898C80.7013 175.785 82.379 177.475 82.4628 179.832C82.5756 182.22 81.0664 184.08 78.9504 184.162C76.8069 184.275 75.1292 182.585 75.0454 180.228C74.9333 177.871 76.4426 176.011 78.5578 175.898Z" fill="#CB6CE6" fill-opacity="0.34"/>
<path d="M157.446 73.6365C159.394 73.6221 161.075 75.4697 161.098 77.6394C161.121 79.8092 159.471 81.6725 157.523 81.687C155.574 81.7015 153.893 79.8539 153.87 77.6841C153.847 75.5143 155.498 73.651 157.446 73.6365Z" fill="#CB6CE6" fill-opacity="0.34"/>
<path d="M108.002 127.677C107.89 125.289 109.427 123.429 111.571 123.347C113.716 123.265 115.367 125.018 115.423 127.408C115.476 129.671 113.994 131.467 111.964 131.61C109.82 131.723 108.114 130.033 108.002 127.677Z" fill="#CB6CE6" fill-opacity="0.34"/>
<path d="M196.112 55.9912C196.027 53.6027 197.594 51.7729 199.739 51.7537C201.884 51.7031 203.508 53.4892 203.508 55.8797C203.533 58.1438 202.021 59.9094 199.99 59.9887C197.846 60.0708 196.167 58.349 196.112 55.9912Z" fill="#CB6CE6" fill-opacity="0.34"/>
<path d="M143.129 85.6436C145.077 85.6291 146.759 87.4767 146.782 89.6465C146.805 91.8163 145.154 93.6796 143.206 93.694C141.258 93.7085 139.577 91.8609 139.554 89.6911C139.531 87.5214 141.181 85.6581 143.129 85.6436Z" fill="#CB6CE6" fill-opacity="0.34"/>
<path d="M60.1143 216.469C62.2035 216.451 63.8278 218.268 63.8269 220.628C63.8253 222.955 62.1727 224.724 60.0538 224.68C58.0477 224.633 56.5104 222.907 56.457 220.644C56.4014 218.286 57.9968 216.487 60.1143 216.469Z" fill="#CB6CE6" fill-opacity="0.34"/>
<path d="M218.158 43.6759C218.237 45.8129 216.588 47.7705 214.669 47.8157C212.75 47.861 210.983 45.984 210.989 43.845C210.969 41.8009 212.535 39.9397 214.368 39.8335C216.285 39.694 218.079 41.5389 218.158 43.6759Z" fill="#CB6CE6" fill-opacity="0.34"/>
<path d="M124.845 101.833C124.766 99.6963 126.471 97.7374 128.391 97.7236C130.227 97.7432 131.906 99.5279 131.983 101.571C132.062 103.708 130.357 105.667 128.437 105.68C126.601 105.661 124.921 103.876 124.845 101.833Z" fill="#CB6CE6" fill-opacity="0.34"/>
<path d="M58.4644 206.348C58.4415 204.178 60.1758 202.282 62.0972 202.331C64.0468 202.379 65.7304 204.321 65.668 206.461C65.6033 208.507 63.9796 210.307 62.1451 210.35C60.2252 210.364 58.4866 208.486 58.4644 206.348Z" fill="#CB6CE6" fill-opacity="0.34"/>
<path d="M80.5409 161.792C82.4594 161.715 84.2544 163.591 84.2766 165.73C84.2966 167.774 82.7026 169.636 80.8696 169.742C78.9512 169.819 77.1561 167.942 77.134 165.804C77.114 163.76 78.7079 161.898 80.5409 161.792Z" fill="#CB6CE6" fill-opacity="0.34"/>
<path d="M172.073 61.685C173.907 61.6103 175.642 63.3309 175.803 65.3716C175.966 67.5066 174.319 69.527 172.402 69.6351C170.483 69.7118 168.688 67.8355 168.666 65.6971C168.645 63.6216 170.239 61.7597 172.073 61.685Z" fill="#CB6CE6" fill-opacity="0.34"/>
<path d="M96.8079 135.521C98.7264 135.445 100.522 137.352 100.516 139.491C100.536 141.535 98.9139 143.398 97.0802 143.473C95.1617 143.549 93.366 141.642 93.372 139.503C93.3802 137.458 94.9742 135.596 96.8079 135.521Z" fill="#CB6CE6" fill-opacity="0.34"/>
<path d="M238.093 34.0526C238.07 31.8828 239.805 29.9861 241.726 30.0351C243.676 30.0835 245.359 32.0254 245.297 34.1658C245.232 36.2118 243.609 38.0115 241.774 38.0548C239.827 38.1007 238.088 36.223 238.093 34.0526Z" fill="#CB6CE6" fill-opacity="0.34"/>
<path d="M187.071 49.8191C188.964 49.8689 190.475 51.689 190.412 53.7979C190.321 55.9389 188.721 57.5493 186.798 57.406C184.96 57.2921 183.564 55.595 183.573 53.5817C183.579 51.4427 185.177 49.738 187.071 49.8191Z" fill="#CB6CE6" fill-opacity="0.34"/>
<path d="M113.616 109.427C115.536 109.413 117.073 111.138 117.067 113.277C117.061 115.385 115.491 117.089 113.57 117.04C111.761 116.988 110.283 115.356 110.234 113.313C110.184 111.175 111.696 109.441 113.616 109.427Z" fill="#CB6CE6" fill-opacity="0.34"/>
<path d="M60.6429 192.142C60.5918 189.973 62.0773 188.303 64.0261 188.32C65.8903 188.339 67.311 189.909 67.36 191.984C67.4111 194.153 65.9257 195.824 63.9768 195.807C62.1408 195.787 60.6918 194.217 60.6429 192.142Z" fill="#CB6CE6" fill-opacity="0.34"/>
<path d="M79.3988 151.69C79.2927 149.585 80.6378 147.95 82.528 147.873C84.4182 147.797 85.8664 149.336 85.9161 151.442C85.9636 153.454 84.7009 154.994 82.8968 155.131C81.0081 155.27 79.5049 153.795 79.3988 151.69Z" fill="#CB6CE6" fill-opacity="0.34"/>
<path d="M98.8529 121.665C100.688 121.653 102.139 123.286 102.103 125.362C102.064 127.314 100.688 128.824 98.909 128.835C97.0738 128.847 95.6234 127.214 95.6591 125.137C95.726 123.185 97.1023 121.674 98.8529 121.665Z" fill="#CB6CE6" fill-opacity="0.34"/>
<path d="M201.617 37.9954C203.394 37.922 204.84 39.3663 204.972 41.3448C205.106 43.449 203.734 45.117 201.872 45.1924C199.981 45.2684 198.532 43.667 198.511 41.5915C198.492 39.5789 199.84 38.0688 201.617 37.9954Z" fill="#CB6CE6" fill-opacity="0.34"/>
<path d="M232.106 31.6461C232.213 33.751 230.867 35.3869 228.977 35.4629C227.087 35.5389 225.639 34.0004 225.589 31.8941C225.542 29.8822 226.804 28.3426 228.608 28.2057C230.525 28.0661 232.028 29.5405 232.106 31.6461Z" fill="#CB6CE6" fill-opacity="0.34"/>
<path d="M65.8965 174.247C67.6463 174.206 69.0945 175.744 69.1687 177.693C69.2451 179.735 67.7596 181.406 65.9237 181.386C64.2006 181.364 62.7791 179.762 62.7614 177.812C62.7436 175.862 64.1467 174.288 65.8965 174.247Z" fill="#CB6CE6" fill-opacity="0.34"/>
<path d="M145.12 71.8828C146.842 71.8737 148.293 73.5379 148.31 75.4248C148.327 77.3431 146.84 78.9509 145.146 78.9594C143.422 78.9371 141.972 77.3042 141.956 75.4174C141.939 73.4991 143.397 71.892 145.12 71.8828Z" fill="#CB6CE6" fill-opacity="0.34"/>
<path d="M115.474 96.0466C117.111 95.9765 118.587 97.5144 118.658 99.3371C118.729 101.16 117.356 102.796 115.72 102.866C114.084 102.936 112.607 101.398 112.536 99.5758C112.466 97.7846 113.839 96.148 115.474 96.0466Z" fill="#CB6CE6" fill-opacity="0.34"/>
<path d="M130.184 83.936C131.876 83.8332 133.438 85.4319 133.511 87.3174C133.584 89.203 132.129 90.9987 130.434 90.9443C128.597 90.8933 127.468 89.7247 127.222 87.686C127.009 85.8352 128.492 84.0388 130.184 83.936Z" fill="#CB6CE6" fill-opacity="0.34"/>
<path d="M162.569 63.3875C162.585 65.2744 161.1 66.945 159.377 66.9228C157.682 66.8998 156.116 65.1753 156.269 63.2844C156.419 61.2678 157.492 60.0473 159.324 59.9097C161.044 59.7748 162.553 61.5006 162.569 63.3875Z" fill="#CB6CE6" fill-opacity="0.34"/>
<path d="M47.1435 214.856C48.8354 214.753 50.4277 216.414 50.4439 218.301C50.4862 220.093 49.0846 221.73 47.4774 221.831C45.7855 221.934 44.1932 220.273 44.1769 218.386C44.1629 216.593 45.5362 214.957 47.1435 214.856Z" fill="#CB6CE6" fill-opacity="0.34"/>
<path d="M174.15 47.9849C175.788 47.9777 177.238 49.5791 177.252 51.3717C177.267 53.1957 175.836 54.8021 174.227 54.8086C172.589 54.8158 171.139 53.2144 171.125 51.4218C171.11 49.5664 172.54 47.9599 174.15 47.9849Z" fill="#CB6CE6" fill-opacity="0.34"/>
<path d="M219.52 29.5838C219.506 31.4085 218.075 32.9835 216.436 32.9278C214.797 32.8721 213.346 31.2078 213.501 29.4112C213.652 27.4575 214.699 26.3319 216.447 26.2278C218.083 26.1263 219.533 27.7592 219.52 29.5838Z" fill="#CB6CE6" fill-opacity="0.34"/>
<path d="M81.5765 137.453C81.477 135.631 82.8214 133.964 84.4576 133.894C86.0938 133.824 87.6267 135.36 87.585 137.186C87.5463 139.137 86.5577 140.324 84.8413 140.585C83.2378 140.843 81.7041 139.275 81.5765 137.453Z" fill="#CB6CE6" fill-opacity="0.34"/>
<path d="M64.9409 163.701C64.8942 161.72 66.269 160.147 67.9379 160.265C69.7196 160.38 70.7349 161.52 70.838 163.499C70.9382 165.352 69.5359 166.958 67.8388 166.841C66.0846 166.694 65.1258 165.552 64.9409 163.701Z" fill="#CB6CE6" fill-opacity="0.34"/>
<path d="M49.1278 200.844C50.8806 200.928 51.9486 201.909 52.1364 203.887C52.2938 205.77 50.9754 207.342 49.2798 207.288C47.4995 207.236 46.4286 206.129 46.3819 204.148C46.3352 202.168 47.3825 201.073 49.1278 200.844Z" fill="#CB6CE6" fill-opacity="0.34"/>
<path d="M48.4226 190.04C48.5192 188.15 49.3095 186.937 51.0006 186.802C52.6925 186.699 53.762 187.744 53.8911 189.628C53.9921 191.513 53.0599 192.699 51.3688 192.833C49.6776 192.967 48.7478 191.857 48.4226 190.04Z" fill="#CB6CE6" fill-opacity="0.34"/>
<path d="M189.044 42.5067C187.206 42.4243 185.986 40.9747 186.141 39.1467C186.291 37.1301 187.396 36.0976 189.178 36.2442C190.875 36.3615 191.779 37.5669 191.767 39.423C191.702 41.469 190.594 42.4073 189.044 42.5067Z" fill="#CB6CE6" fill-opacity="0.34"/>
<path d="M98.0211 111.525C98.172 109.54 99.0759 108.354 100.884 108.375C102.691 108.395 103.68 109.598 103.67 111.58C103.658 113.468 102.667 114.561 100.974 114.601C99.1395 114.644 98.2082 113.471 98.0211 111.525Z" fill="#CB6CE6" fill-opacity="0.34"/>
<path d="M204.195 24.0006C204.899 25.1163 206.025 26.1592 206.195 27.3505C206.432 29.0119 205.274 30.2031 203.692 30.2089C202.111 30.2147 200.926 29.0474 201.168 27.3432C201.337 26.1439 202.443 25.1113 203.15 23.9937C203.489 23.9857 203.857 24.0086 204.195 24.0006Z" fill="#CB6CE6" fill-opacity="0.34"/>
<path d="M231.242 14.1465C231.973 15.2302 233.041 16.2115 233.409 17.4296C233.84 18.9292 232.241 20.6025 230.798 20.4793C229.242 20.3273 228.03 19.2549 228.272 17.5507C228.441 16.32 229.546 15.2874 230.226 14.1705C230.537 14.1946 230.875 14.1552 231.242 14.1465Z" fill="#CB6CE6" fill-opacity="0.34"/>
<path d="M70.2541 145.898C70.9857 146.982 72.0536 147.963 72.4212 149.181C72.8519 150.681 71.2536 152.354 69.8105 152.231C68.2538 152.079 67.0424 151.007 67.2846 149.302C67.4533 148.072 68.5585 147.039 69.2374 145.891C69.5768 145.914 69.9155 145.906 70.2541 145.898Z" fill="#CB6CE6" fill-opacity="0.34"/>
<path d="M147.413 57.7372C148.172 58.7888 149.267 59.738 149.663 60.9554C150.121 62.423 148.553 64.1585 147.111 64.0981C145.528 64.0096 144.344 62.9366 144.503 61.2658C144.643 60.0358 145.719 58.941 146.369 57.7933C146.708 57.7853 147.047 57.7773 147.413 57.7372Z" fill="#CB6CE6" fill-opacity="0.34"/>
<path d="M132.814 69.7824C133.547 70.8975 134.587 71.9109 134.898 73.1303C135.273 74.6312 133.646 76.3052 132.23 76.1185C130.672 75.935 129.488 74.7992 129.759 73.1257C129.956 71.9258 131.09 70.8925 131.798 69.7749C132.109 69.799 132.476 69.7904 132.814 69.7824Z" fill="#CB6CE6" fill-opacity="0.34"/>
<path d="M89.548 123.457C88.5787 124.266 87.706 125.576 86.6387 125.822C85.1496 126.14 84.0467 124.876 83.9495 123.149C83.8797 121.389 84.8928 120.044 86.3938 120.229C87.47 120.36 88.4585 121.564 89.4923 122.294C89.5295 122.671 89.5383 123.048 89.548 123.457Z" fill="#CB6CE6" fill-opacity="0.34"/>
<path d="M117.88 81.8985C118.611 82.9507 119.792 83.9293 120.018 85.1193C120.311 86.7794 119.131 88.2227 117.627 87.9436C116.663 87.7776 115.247 86.3956 115.139 85.4231C115.03 84.3562 116.187 83.1336 116.808 81.9552C117.175 81.9465 117.542 81.9379 117.88 81.8985Z" fill="#CB6CE6" fill-opacity="0.34"/>
<path d="M161.904 45.9462C162.551 47.0633 163.764 48.1985 163.705 49.2694C163.642 50.2145 162.32 51.6296 161.365 51.8409C159.848 52.1598 158.685 50.7717 158.956 49.0668C159.127 47.9304 160.206 46.9928 160.859 45.9709C161.198 45.9629 161.565 45.9542 161.904 45.9462Z" fill="#CB6CE6" fill-opacity="0.34"/>
<path d="M50.3518 174.896C51.2959 174.214 52.1738 173.124 53.1869 172.974C54.6775 172.718 55.5538 173.956 55.5374 175.655C55.521 177.354 54.5599 178.509 53.1123 178.197C52.1186 177.969 51.2445 176.826 50.3243 176.124C50.3422 175.683 50.3325 175.274 50.3518 174.896Z" fill="#CB6CE6" fill-opacity="0.34"/>
<path d="M176.704 34.1164C177.293 35.1091 178.218 36.0309 178.384 37.0649C178.649 38.7257 177.627 39.7249 176.074 39.6987C174.52 39.6724 173.562 38.5626 173.863 36.9514C174.064 35.9087 175.032 35.0365 175.659 34.0781C175.998 34.1016 176.337 34.0936 176.704 34.1164Z" fill="#CB6CE6" fill-opacity="0.34"/>
<path d="M100.072 96.693C100.931 96.0122 101.696 94.9247 102.651 94.7135C104.14 94.3639 105.098 95.4736 105.11 97.2033C105.151 98.9323 104.217 100.055 102.742 99.7755C101.778 99.6095 100.963 98.5592 100.1 97.8876C100.09 97.4789 100.081 97.0703 100.072 96.693Z" fill="#CB6CE6" fill-opacity="0.34"/>
<path d="M35.2983 213.122C35.9414 214.051 37.1223 215.029 37.0873 215.942C37.0249 216.887 35.8031 217.765 35.1183 218.662C34.3088 217.864 32.9934 217.171 32.8308 216.263C32.669 215.386 33.7437 214.26 34.2562 213.241C34.5934 213.17 34.9603 213.162 35.2983 213.122Z" fill="#CB6CE6" fill-opacity="0.34"/>
<path d="M218.522 12.4334C219.11 13.426 220.151 14.4395 220.117 15.4154C220.081 16.2655 218.733 17.7756 218.137 17.6639C217.258 17.5273 216.043 16.2664 215.907 15.3259C215.802 14.4477 216.935 13.383 217.504 12.3945C217.844 12.4179 218.182 12.4099 218.522 12.4334Z" fill="#CB6CE6" fill-opacity="0.34"/>
<path d="M71.8634 131.517C72.8623 133.161 74.0172 134.234 73.8656 134.993C73.6628 135.973 72.4083 136.663 71.6091 137.5C70.911 136.635 69.7331 135.782 69.6834 134.871C69.6634 134.023 70.799 133.084 71.8634 131.517Z" fill="#CB6CE6" fill-opacity="0.34"/>
<path d="M55.5591 158.575C56.1176 159.505 57.1863 160.518 57.0927 161.338C56.9723 162.222 55.8129 163.35 54.9692 163.496C54.4062 163.572 53.1296 162.124 53.111 161.338C53.0895 160.426 54.0841 159.49 54.627 158.565C54.91 158.59 55.2487 158.582 55.5591 158.575Z" fill="#CB6CE6" fill-opacity="0.34"/>
<path d="M39.3214 201.704C38.0491 202.835 37.3145 204.016 36.6082 204.001C35.8454 203.988 35.1391 202.778 34.389 202.103C35.0471 201.27 35.6094 199.967 36.4227 199.728C37.0391 199.524 37.9704 200.698 39.3214 201.704Z" fill="#CB6CE6" fill-opacity="0.34"/>
<path d="M188.399 24.7505C189.202 24.071 190.02 22.825 190.784 22.9013C191.576 22.977 192.678 24.2092 192.869 25.1168C192.997 25.7429 191.79 27.2497 191.058 27.3299C190.241 27.4121 189.341 26.3639 188.48 25.7865C188.444 25.4414 188.435 25.0956 188.399 24.7505Z" fill="#CB6CE6" fill-opacity="0.34"/>
<path d="M90.4943 109.689C89.6906 110.337 88.8156 111.553 88.0796 111.476C87.2864 111.369 86.2118 110.105 86.0492 109.196C85.9497 108.57 87.1863 107.125 87.9187 107.045C88.7364 106.994 89.609 108.074 90.4698 108.652C90.4779 108.998 90.4861 109.343 90.4943 109.689Z" fill="#CB6CE6" fill-opacity="0.34"/>
<path d="M35.858 187.726C37.0204 186.723 37.6748 185.733 38.2964 185.749C38.947 185.797 39.5367 186.853 40.1442 187.467C39.5953 188.141 39.114 189.284 38.4671 189.394C37.8492 189.534 37.0924 188.577 35.858 187.726Z" fill="#CB6CE6" fill-opacity="0.34"/>
<path d="M148.498 43.8719C149.408 45.3602 150.361 46.2185 150.265 46.9442C150.17 47.7013 149.176 48.6684 148.474 48.8422C148.025 48.9471 146.894 47.7156 146.85 47.0247C146.802 46.208 147.63 45.3707 148.498 43.8719Z" fill="#CB6CE6" fill-opacity="0.34"/>
<path d="M76.2807 121.285C75.0879 122.194 74.3489 123.186 73.7532 123.075C73.1019 122.996 72.5672 121.876 71.9872 121.229C72.565 120.586 73.1325 119.503 73.7519 119.426C74.3721 119.38 75.0731 120.37 76.2807 121.285Z" fill="#CB6CE6" fill-opacity="0.34"/>
<path d="M119.357 67.898C120.295 69.3543 121.247 70.2125 121.179 70.9061C121.112 71.6626 120.148 72.6919 119.417 72.8349C118.968 72.9399 117.81 71.7405 117.766 71.081C117.72 70.2957 118.547 69.4584 119.357 67.898Z" fill="#CB6CE6" fill-opacity="0.34"/>
<path d="M131.547 59.1179C132.736 58.0519 133.471 56.8708 134.038 56.9832C134.804 57.1224 135.422 58.2087 136.117 58.9158C135.512 59.6221 135.003 60.7664 134.299 60.8774C133.652 60.987 132.867 59.999 131.547 59.1179Z" fill="#CB6CE6" fill-opacity="0.34"/>
<path d="M107.205 83.0624C105.954 83.9097 105.214 84.8393 104.618 84.7276C103.994 84.585 103.234 83.5021 103.131 82.7496C103.064 82.2794 104.139 81.1846 104.704 81.2027C105.383 81.2182 106.053 82.1145 107.205 83.0624Z" fill="#CB6CE6" fill-opacity="0.34"/>
<path d="M232.559 0.527346C233.464 1.79561 234.385 2.52879 234.344 3.19029C234.304 3.88323 233.423 4.84763 232.779 5.05156C232.358 5.15585 231.26 4.11227 231.189 3.48487C231.115 2.76316 231.83 1.95996 232.559 0.527346Z" fill="#CB6CE6" fill-opacity="0.34"/>
<path d="M57.0288 144.292C57.8234 145.657 58.6894 146.454 58.5921 147.117C58.4955 147.811 57.5559 148.683 56.8815 148.824C56.4597 148.897 55.4437 147.726 55.4289 147.097C55.44 146.373 56.2132 145.632 57.0288 144.292Z" fill="#CB6CE6" fill-opacity="0.34"/>
<path d="M205.839 15.8464C204.934 14.5782 204.099 13.9059 204.054 13.1835C204.012 12.5869 204.942 11.3382 205.366 11.3596C206.046 11.438 207.053 12.232 207.21 12.8889C207.337 13.5149 206.54 14.4145 205.839 15.8464Z" fill="#CB6CE6" fill-opacity="0.34"/>
<path d="M163.188 32.1391C164.037 33.4401 164.932 34.2368 164.862 34.8675C164.793 35.5611 163.884 36.4948 163.21 36.6679C162.789 36.7722 161.718 35.6652 161.703 35.0364C161.685 34.2819 162.458 33.5088 163.188 32.1391Z" fill="#CB6CE6" fill-opacity="0.34"/>
<path d="M89.8693 92.7502C90.5719 93.8031 91.2351 94.3851 91.2774 94.9817C91.3167 95.4526 90.522 96.4779 90.1818 96.423C89.6144 96.3106 88.8086 95.669 88.7106 95.1051C88.6133 94.5727 89.2751 93.8966 89.8693 92.7502Z" fill="#CB6CE6" fill-opacity="0.34"/>
<path d="M42.1787 173.171C41.4055 173.912 40.8611 174.774 40.4927 174.72C39.9252 174.608 39.4834 173.832 38.991 173.309C39.4315 172.826 39.8073 172 40.2864 171.957C40.7647 171.883 41.3172 172.562 42.1787 173.171Z" fill="#CB6CE6" fill-opacity="0.34"/>
<path d="M177.911 20.6257C178.641 21.6465 179.389 22.2579 179.345 22.7936C179.302 23.3608 178.586 24.1012 178.025 24.2717C177.717 24.3733 176.792 23.4829 176.781 23.0114C176.739 22.4148 177.345 21.7714 177.911 20.6257Z" fill="#CB6CE6" fill-opacity="0.34"/>
<path d="M20.2412 226.059C20.8279 226.989 21.5498 227.664 21.4465 228.075C21.2913 228.676 20.5671 229.102 20.071 229.617C19.6633 229.092 18.9733 228.574 18.9607 228.039C18.9199 227.506 19.6128 226.954 20.2412 226.059Z" fill="#CB6CE6" fill-opacity="0.34"/>
</g>
</svg>
