<svg width="90" height="90" viewBox="0 0 90 90" fill="none" xmlns="http://www.w3.org/2000/svg">
<path d="M3.96524 54.8405L4.85598 55.9579C14.2087 45.2316 29.9082 41.5816 36.5887 41.0975C50.3061 40.8293 61.7521 46.4234 65.7605 49.2539C59.7034 49.7902 55.8882 50.5202 54.7376 50.8182C51.7981 51.4439 48.391 55.6971 47.0549 57.7456C45.986 59.7121 46.9064 59.7568 47.5003 59.5333C54.359 57.1199 69.1379 58.2298 75.67 59.0864C78.9657 59.8015 80.8289 59.2354 81.3484 58.8629L85.2454 54.9523C87.2051 53.2539 86.6557 50.8927 86.1362 49.9243L74.1112 29.8125L71.3276 32.6058C69.368 34.036 69.6947 36.4047 70.1028 37.4103L71.1049 40.6505L62.0862 36.4047C57.7215 34.4382 52.9933 33.1272 51.1746 32.7175C45.3848 31.198 38.7414 31.8609 36.1433 32.3823C29.9082 33.0974 21.8915 36.8516 18.6626 38.6394C6.97159 44.8964 5.52403 50.3713 4.63329 52.2707C3.9207 53.7903 3.89101 54.6171 3.96524 54.8405Z" fill="#0097B2" stroke="#0097B2"/>
</svg>
