<svg width="60" height="60" viewBox="0 0 60 60" fill="none" xmlns="http://www.w3.org/2000/svg">
<path d="M2.64349 36.5604L3.23732 37.3052C9.47245 30.1544 19.9388 27.7211 24.3925 27.3983C33.5374 27.2195 41.1681 30.9489 43.8403 32.836C39.8023 33.1935 37.2588 33.6802 36.4917 33.8788C34.5321 34.2959 32.2607 37.1314 31.3699 38.4971C30.6574 39.8081 31.2709 39.8378 31.6669 39.6889C36.2393 38.0799 46.092 38.8199 50.4466 39.3909C52.6438 39.8676 53.8859 39.4903 54.2323 39.2419L56.8303 36.6349C58.1367 35.5026 57.7705 33.9284 57.4241 33.2829L49.4074 19.875L47.5517 21.7372C46.2453 22.6907 46.4631 24.2698 46.7352 24.9402L47.4033 27.1004L41.3908 24.2698C38.481 22.9588 35.3288 22.0848 34.1164 21.8117C30.2565 20.7987 25.8276 21.2406 24.0956 21.5882C19.9388 22.065 14.5943 24.5678 12.4417 25.7596C4.64772 29.9309 3.68269 33.5808 3.08886 34.8471C2.6138 35.8602 2.59401 36.4114 2.64349 36.5604Z" fill="#0097B2" stroke="#0097B2"/>
</svg>
